<?xml version="1.0" encoding="UTF-8"?><svg id="Layer_2" xmlns="http://www.w3.org/2000/svg" viewBox="0 0 578.88 451.44"><defs><style>.cls-1{fill:#fff;}.cls-2{fill:#04db00;}</style></defs><g id="Layer_1-2"><g><path class="cls-2" d="M559.23,84.39c.28-3.95,.62-7.89,.81-11.84,.29-6.14,.47-12.28,.68-18.42,.03-.78,0-1.57,0-2.59h-19.26v-15.21c-6.21-.76-12.21-.52-18.2-.38,.67-2.6,.11-5.2,0-7.8-.36-8.6-.74-17.2-1.13-25.8-.04-.78-.24-1.56-.37-2.34H56.16c.03,2,.07,3.99,.08,5.99,.01,2.08,.06,4.16-.01,6.24-.07,1.96,.32,3.96-.35,6.16h-17.91V51.42H19.14v16.23H0v238.91c6.2,.03,12.4,.05,18.82,.08v17.55c3.31,0,6.41,0,9.5,0,3.16,0,6.32,.03,9.72,.05v17.25h17.91v18.25H341.35v56.01c1.28,.08,2.3,.2,3.31,.2,10.64,.01,21.27,0,31.91,0h2.62c.12,6.12-.06,11.91,.11,17.8,6.2,.13,12.08-.06,18.13,.11v17.58h36.48c.11-1.03,.32-2.06,.32-3.09,.02-15.34,.02-30.69,0-46.03,0-.69-.09-1.39-.15-2.21-2.11,0-4.02,0-5.94,0s-3.84,.05-5.76-.01c-1.87-.06-3.79,.31-5.6-.27-.51-7.3-.26-38.02,.4-40.03h105.13v-18.29h18.96v-17.11h19.21c.05-5.95,.11-11.65,.16-17.48,1.11-.08,1.89-.19,2.68-.19,4.32-.02,8.64-.02,12.95,0,.87,0,1.74,.19,2.61,.29V84.44c-6.55-.02-13.1-.03-19.65-.05Z"/><path class="cls-2" d="M414.83,432.32h-16.66v-15.31h16.79c.48,2.91,.38,13.6-.14,15.31Z"/><path class="cls-1" d="M559.44,306.18h-17.51v17.22h-19.28v16.35c-1.35,.07-2.46,.18-3.57,.19-5.68,.02-11.36,0-17.04,0-27.76,0-55.52,0-83.28,0-1,0-1.99,.08-3.12,.13v6.28c0,2,0,4,0,6,0,1.96-.04,3.92-.06,6.06h-18.04v56.77h-18.19c0-.69-.01-1.55,0-2.4,.05-3.52,.14-7.03,.17-10.55,.03-3.4-.49-3.93-3.85-3.94-4.08,0-8.16,.05-12.24,.06-.78,0-1.56-.07-2.49-.12-.12-1.51-.32-2.85-.31-4.19,.11-10.15,.27-20.3,.39-30.45,.05-4.64-.71-5.47-5.36-5.63-3.76-.13-7.52-.07-11.28-.11-.78,0-1.55-.08-2.6-.14v-18.02H94.7v-15.91c-.92-.11-1.61-.25-2.31-.26-4.32-.02-8.64-.04-12.96,0-2.59,.02-3.04,.5-3.06,3.13-.03,3.6,0,7.2-.02,10.79,0,.6-.12,1.21-.18,1.76-3.6,.49-16.62,.33-18.31-.21v-13.8c1.51-.15,2.93-.35,4.35-.42,3.35-.16,6.71-.23,10.07-.41,3.19-.17,4.05-1.06,4.1-4.3,.06-3.76,.02-7.52,.01-11.27,0-.71-.08-1.41-.13-2.29-.96-.1-1.81-.26-2.67-.26-4.16,0-8.32,.03-12.48,.11-3.06,.05-3.91,.91-4,4.08-.1,3.44-.09,6.87-.14,10.31-.01,.78-.07,1.56-.12,2.44h-18.03c-.1-.9-.27-1.75-.27-2.61,0-2.96,0-5.92,.08-8.87,.14-4.74,.57-5.18,5.28-5.35,3.2-.11,6.4-.11,9.59-.21,2.53-.08,3.2-.67,3.25-3.1,.07-3.59,.06-7.19-.01-10.79-.03-1.67-.51-2.25-2.14-2.28-4.48-.09-8.96-.08-13.43,.04-1.67,.04-2.54,1.02-2.79,2.77-.2,1.42-.26,2.86-.31,4.3-.06,2,.01,4-.1,5.99-.11,1.95-.74,2.54-2.67,2.65-1.68,.1-3.36,.11-5.04,.12-3.51,.02-7.01,0-10.67,0v-15.86c.6-.1,1.05-.24,1.51-.26,3.91-.18,7.83-.35,11.75-.49,4.12-.15,4.63-.67,4.67-4.82,.08-8.71,.17-17.42,.25-26.14,.02-2.4,.12-4.8,.02-7.19-.1-2.23-.94-2.98-3.13-3.11-1.12-.07-2.24-.04-3.36-.04-3.83,0-7.66,0-11.7,0-.09-1.5-.24-2.84-.25-4.18-.08-11.99-.18-23.98-.19-35.98-.03-31.58-.02-63.16,0-94.74,0-8.15,.07-16.31,.13-24.46,0-1.24,.16-2.47,.25-3.79,4.75,0,9.22-.07,13.68,.02,4.06,.08,5.14-.87,5.22-4.96,0-.24,0-.48,0-.72,.03-7.27,.06-14.55,.12-21.82,.01-1.34,.15-2.68,.25-4.23,6.22-.14,12.25,.05,18.49-.12V21.39c2.55-.53,443.91-.46,445.93,.09v14.84c1.1,.06,1.96,.14,2.82,.14,4.56,.02,9.12,.06,13.67,.01,1.15-.01,2.3-.3,3.44-.47-.6,10.75-.51,21.49-.11,32.43h18.28v15.64c6.1,.78,11.96,.52,17.81,.4,.1,1.64,.29,3.28,.29,4.93,.05,34.06,.08,68.12,.1,102.18,.03,37.42,.05,74.84,.06,112.25,0,.69-.09,1.39-.15,2.35Z"/></g></g></svg>