<?xml version="1.0" encoding="UTF-8"?><svg id="Layer_2" xmlns="http://www.w3.org/2000/svg" viewBox="0 0 48.98 50.79"><g id="Layer_1-2"><path d="M40.18,27.88c0,4.16,.01,8.31,0,12.47,0,1.67-.11,3.34-.12,5.01,0,1.14,.41,1.58,1.52,1.55,1.59-.04,3.18-.16,4.77-.25,.44-.02,.88-.04,1.32-.04,.58,0,1.21-.06,1.31,.77,.09,.75-.35,1.49-1.07,1.65-.75,.17-1.51,.29-2.27,.33-2.41,.14-4.82,.26-7.24,.35-.95,.03-1.31-.34-1.3-1.28,.02-1.46,.09-2.91,.14-4.36,.01-.38,.06-.79-.04-1.15-.12-.42-.4-.79-.6-1.18-.34,.19-.77,.3-1.02,.57-1.61,1.82-3.43,3.4-5.46,4.74-2.64,1.74-5.42,3.22-8.59,3.58-2.06,.23-4.16,.2-6.23,.06-2.53-.18-4.98-.8-7.26-1.97C3.38,46.33,.6,42.61,.08,37.36c-.66-6.57,3.01-10.97,8.08-13.55,2.53-1.28,5.25-2.04,8.06-2.12,5.74-.16,11.49-.14,17.24-.2,.8,0,1.6,.01,2.39-.02,.96-.04,1.38-.44,1.36-1.39-.05-2.25,.17-4.56-.29-6.73-1.12-5.27-4.76-8.3-9.73-9.86-2.63-.83-5.35-.73-8.07-.55-4.49,.3-8.49,1.88-12.22,4.3-.44,.28-.88,.56-1.33,.83-.62,.38-1.14,.26-1.58-.32-.44-.58-.4-1.1,.14-1.59,2.18-2,4.74-3.39,7.49-4.4C15.46,.34,19.46-.19,23.52,.06c4.91,.3,9.29,1.92,12.68,5.66,2.16,2.39,3.6,5.15,3.8,8.39,.19,3.04,.15,6.1,.19,9.15,.02,1.54,0,3.08,0,4.62,0,0-.01,0-.02,0Zm-13.69-3.41h0c-2.53,0-5.07-.12-7.59,.02-2.34,.13-4.72,.32-7,.84-5.49,1.25-9.89,5.87-9.04,12.25,.51,3.81,2.52,6.55,5.76,8.45,2.2,1.29,4.66,1.69,7.16,1.94,3.38,.35,6.63-.03,9.73-1.46,4.68-2.17,8.02-5.79,10.8-10.01,.38-.58,.85-1.25,.88-1.9,.14-2.75,.15-5.5,.15-8.25,0-1.39-.53-1.88-1.92-1.88-2.97-.02-5.94,0-8.91,0Z"/></g></svg>