<?xml version="1.0" encoding="UTF-8"?><svg id="Layer_2" xmlns="http://www.w3.org/2000/svg" viewBox="0 0 45.23 58.48"><g id="Layer_1-2"><path d="M45.23,36.74c-.16,4.54-.86,8.9-3.18,12.85-2.75,4.68-6.77,7.63-12.19,8.55-4.44,.75-8.71,.34-12.7-1.87-2.03-1.12-3.82-2.58-5.44-4.24-.43-.44-1.02-.71-1.54-1.06-.14,.65-.38,1.3-.4,1.95-.04,1.09,.05,2.19,.11,3.29,.04,.65-.06,1.18-.83,1.25-.76,.07-1.42-.5-1.45-1.25-.13-2.77-.33-5.54-.35-8.32-.08-11.66-.13-23.33-.14-34.99,0-3.1,.21-6.2,.28-9.3,.03-1.16-.26-1.36-1.45-1.25-1.64,.15-3.28,.3-4.92,.38-.33,.02-.68-.27-1.03-.41,.26-.45,.41-1.1,.79-1.29,.64-.31,1.42-.38,2.15-.46C4.87,.36,6.8,.15,8.74,.01c1.04-.07,1.19,.13,1.16,1.19-.09,2.91-.22,5.82-.28,8.73-.03,1.64,.02,3.28,.07,4.92,.03,.85,.64,1.07,1.37,1.07,4.57-.01,9.14-.19,13.7,.01,4.63,.21,9.07,1.37,12.87,4.22,3.75,2.8,6.1,6.52,6.92,11.14,.32,1.8,.46,3.64,.67,5.46Zm-35.66-4.56s0,0-.01,0c0,3.83,.02,7.65-.02,11.48-.01,1.01,.19,1.89,.8,2.69,.78,1.03,1.48,2.12,2.33,3.09,4.14,4.74,9.2,7.38,15.66,6.71,4.24-.44,7.67-2.38,10.33-5.68,3.08-3.83,3.91-8.4,4.04-13.14,.05-1.74-.15-3.51-.46-5.23-.77-4.19-2.77-7.66-6.34-10.13-3.89-2.69-8.32-3.49-12.9-3.61-3.9-.1-7.8,.06-11.71,.08-1.28,0-1.72,.34-1.72,1.61-.01,4.05,0,8.09,0,12.14Z"/></g></svg>