<?xml version="1.0" encoding="utf-8"?>
<!-- Generator: Adobe Illustrator 26.4.1, SVG Export Plug-In . SVG Version: 6.00 Build 0)  -->
<svg version="1.1" id="Layer_1" xmlns="http://www.w3.org/2000/svg" xmlns:xlink="http://www.w3.org/1999/xlink" x="0px" y="0px"
	 viewBox="0 0 549.6 420" style="enable-background:new 0 0 549.6 420;" xml:space="preserve">
<style type="text/css">
	.st0{fill:#C6E8A1;}
</style>
<path class="st0" d="M437.6,420c-4,0-8.2-0.2-12.4-0.6c-28.7-2.5-53.3-14.1-73.1-34.5l-12.6-15.7l-5.8-10l-4.7-10.5l-3.6-10
	l-3.2-12.5l-2-5.4l-2.2-5.7l-2.1-3.6l-8.4-10.5l-0.2-0.1c-11.6-9.8-23-14.6-34.7-14.6c-12.8,0-25.7,5.6-39.4,17.2l-0.1,0.1l-0.1,0.2
	c-5.9,7.3-9.8,15.9-13.5,24.3c-4.3,9.6-8.7,19.6-16.3,27.4c-1,1-2,2.1-2.9,3.1l-0.1,0.1c-0.4,0.5-0.8,0.9-1.3,1.4
	C176.7,384,149,396,116.5,396c-1.2,0-2.5,0-3.7-0.1c-32.7-0.9-60.1-12.5-81.4-34.6l-14.7-18.9L12,333l-5.1-10.5l-2.8-8.9l-1.5-6.8
	L2,300.5l-2-8.9v-14.2l1.6-6.8l1.6-11.5l2.6-9l3.2-7.3l0-0.1c2.9-8.7,7.5-17.1,13.5-25.1c7.2-10,16.6-18.7,28.6-26.6
	c12-7.9,25.9-13.1,45.2-16.7l3-0.6l-1.6-2.7l-0.1-0.2c-6.5-8.1-14.4-19.1-18.8-32.3l0-0.1l0-0.1c-3.2-7.6-5.1-15.8-5.7-25.1l0.5-21
	l3.7-20c2.9-9.9,6.6-17.9,11.5-24.7L100.2,33c9-9.8,19.7-17.5,32.8-23.6c10.6-5,22.2-7,33.3-9l2.1-0.4h15.2l21,4.2l12.1,4.6l16.2,9
	l15.8,13l6.8,8l4.8,6.2l7.3,12.2l2.7,6.7l4.1,11.1c2.9,9.8,3.4,20.1,3.9,30c0.1,2,0.2,4.1,0.3,6.1l0,1l1.7,2.1l0.5,0.5l1.6,1.6
	l1,1.1l0.5,0.5l2.6,1.1l1.6,0.5l5.7-2.7l5.8-7.8l0.1-0.5c2-13.6,5.9-25.5,11.9-36.2l0-0.1l0-0.1c3.9-8.3,9.6-16,16.8-22.9l0.1-0.1
	c17.4-17.8,38.2-28.3,61.9-31.1c3.7-0.4,7.4-0.6,11.6-0.6c7.2,0,14.3,0.7,20.9,1.3l12.1,3.7l13.7,5.1l13.2,7.8l9.4,7.5l7.4,7.2
	l5.2,6.3l5.7,8l3.7,6.2l6.2,13.3l5.7,23.6c1.4,13.7,0.5,25.7-2.5,36.6l0,0.1l0,0.1c-2.4,11.3-7,22-14.2,32.5
	c-5,7.7-11.4,15-19.7,22.1l-2.9,2.5l12,3.6l12.6,5.7l10.5,6.2l13.6,11.6l4.8,4.2l2.1,2.1l4.2,5.2l3.1,4.3l4.2,6.3l4.1,6.9l2.7,6.2
	l1.6,3.7l4.6,13.2c2.1,10.2,4.3,20.7,3.2,31.5l-1.1,12.6l-6.8,25.2c-4.5,12.9-12,24.7-23.1,36.1C496.3,408.5,469.1,420,437.6,420
	L437.6,420z"/>
</svg>
