<?xml version="1.0" encoding="UTF-8"?><svg id="Layer_2" xmlns="http://www.w3.org/2000/svg" viewBox="0 0 550.4 310.86"><defs><style>.cls-1{fill:#fdfdfd;}.cls-2{fill:#fdfdf9;}.cls-3{fill:#848333;}.cls-4{fill:#90ab4b;}.cls-5{fill:#cefdb9;}.cls-6{fill:#a8b65c;}.cls-7{fill:#b2b761;}.cls-8{fill:#aac67d;}.cls-9{fill:#a7b65b;}.cls-10{fill:#93b451;}.cls-11{fill:#94b954;}.cls-12{fill:#95c059;}.cls-13{fill:#94b451;}.cls-14{fill:#94bc56;}.cls-15{fill:#292723;}</style></defs><g id="Layer_1-2"><g><path class="cls-15" d="M15.63,275.81c-2.77-.37-5.55-.28-8.33-.27-1.57,0-3.12,.26-4.64,.62-1.58,.38-1.89,.15-1.89-1.49,0-15.58,0-31.17,0-46.75,0-1.82-.33-3.63-.24-5.46,.06-1.35,.48-1.83,1.85-1.83,5.04,0,10.07,0,15.11,0,.36,0,.72,.03,1.08,0,1.05-.11,1.74-.8,1.63-1.82-.5-4.53,.05-9.08-.25-13.6-.4-5.86-.07-11.71-.21-17.57-.02-1-.4-1.94-.06-3.01,.31-.97,.9-1.26,1.74-1.41,.08-.01,.16,0,.24,0,5.14,.05,10.27-.47,15.41-.21,1.62,.08,2.26-.51,2.05-2.32-.31-2.67-.05-5.32-.2-7.98-.12-2.1-.3-4.19-.24-6.3,.04-1.43,.69-2.03,2.06-2.15,3.14-.28,6.29-.05,9.42-.26,6.42-.43,12.84-.15,19.25-.15,1.81,0,3.64,.12,5.46,.21,.85,.04,1.64-.18,2.45-.31,.81-.12,1.15-.78,1.2-1.64,.28-5.05,.24-10.11,.21-15.17,0-.99,.25-1.22,1.29-1.43,4.3-.91,8.62-.16,12.93-.41,1.1-.06,2.18-.41,3.3-.25,1.87,.4,2.45,1.73,2.52,3.45,.1,2.47-.03,4.94-.06,7.41-.07,8.18-.05,16.37-.05,24.55,0,13.33,0,26.66,.01,40-5.18-.01-10.35-.02-15.53-.04-1.71,0-3.42-.05-5.13-.08,0-2.71,0-5.42,.01-8.14,.03-7.48-.13-14.96,.24-22.44,.02-.31,.14-.64,.14-.92-.01-1.4,.58-2.88-.37-4.2-.77-.83-1.73-1.04-2.82-.95-1.07,.09-2.15,.14-3.22,.15-4.39,.04-8.78,.06-13.16,.08-6.04-.22-12.08,0-18.11,0-.88,0-1.66,.45-1.93,1.42-.1,1.39-.29,2.78-.29,4.18-.04,13.37-.06,26.75-.08,40.12,0,.44-.05,.87-.07,1.31-.11,2.38-.33,4.77,.34,7.11-.04,.5,.16,.89,.53,1.21-.09,.35-.22,.69-.28,1.04-.82,4.68-.32,9.4-.43,14.1-.03,1.36,.66,1.91,2.09,2.15,.12,.31,.39,.22,.61,.22,4.99,0,9.99-.02,14.98-.03,2.48,.19,3.55,1.35,3.42,3.89-.21,4.18,.03,8.36-.08,12.53-.04,1.58,.37,1.99,1.94,2.32,1.28,.37,2.57,.37,3.85,0,.64-.02,1.28-.03,1.93-.05,3.6,0,7.19,.16,10.79-.08,.03,.39,.08,.79,.07,1.18-.04,4.26-.09,8.53-.12,12.79,0,1.19,.05,2.38,.72,3.44,.36,.72,1.03,.68,1.68,.68,25.37,0,50.74,0,76.1,0,.76,0,1.48-.13,2.02-.73l.09-.02,.02-.09c.66-.87,.68-1.79,.27-2.76,.05-1.69-.07-3.37-.29-5.05-.07-1.19,.3-2.41-.19-3.58-.02-.4-.03-.81-.05-1.21,.11-.87,.21-1.74,.32-2.61,0,0-.02,.03-.02,.03,.54,.2,.35-.4,.58-.53l.09-.02,.02-.09c.33-.11,.62-.29,.97-.38,1.17-.34,2.31-.06,3.48-.02,2.29,.07,4.6-.02,6.89-.25,.81-.08,1.7,.04,2.44-.27,1.26-.51,1.36,.05,1.36,1.09-.01,4.55,.03,9.1,.05,13.65,.01,2.13,.45,2.65,2.54,3,1.51,.26,2.99-.15,4.48-.16,17.64-.17,35.27,.3,52.91-.25,1.67-.05,2.96-1.57,2.58-3.19-.48-2.1-.34-4.26-.34-6.35,0-2.2,.12-4.44,.09-6.65-.01-1.17,.18-1.79,1.47-1.62,.59,.02,1.19,.06,1.78,.06,2.07,.02,2.99-.96,3.05-3.09,.03-.92-.22-1.79-.29-2.68,.01-3.67,.02-7.33,.04-11,.47-.89,1.06-1.7,2.16-1.67,1.59,.04,3.14-.3,4.73-.29,3.47,.02,6.95,.21,10.42-.21,1.08-.13,2.05,.13,2.82,.96-.29,.79-.01,1.58,.03,2.36,.28,5.38-.24,10.73-.5,16.09-2.73-.93-5.51-1-8.36-.8-2.17,.15-4.38-.12-6.57-.13-2.2-.01-2.64,.57-2.9,2.73-.26,2.15,.22,4.26-.07,6.44-.32,2.5-.26,5.06-.56,7.59-.11,.92,.31,1.54,1.37,1.51,.4-.01,.8,.01,1.19,.02,.61,.24,1.21,.24,1.82,0,5.39-.02,10.78-.06,16.16-.07,11.54-.01,23.07,0,34.61,0,1.04,0,2.07-.06,3.11-.09,3.14,.05,6.27,.23,9.42-.12,2.12-.24,4.28-.19,6.42-.3,.93-.05,1.89-.03,2.67-.7,.25,.07,.43-.06,.59-.23l.09-.02,.02-.09c.35-.33,.68-.71,.7-1.18,.11-2.72-.17-5.42-.35-8.13-.12-1.82-.85-3.69,.26-5.46l.09-.02,.02-.09c.33-.53,1.02-.44,1.43-.83,1.19,0,2.36-.02,3.55,.15,1.15,.17,2.35,.24,3.42-.42,2.22-.37,4.47-.33,6.71-.46,1.19-.07,2.39-.05,3.58-.07,6.25,.08,12.51,.17,18.76,.25,.06,.27,.16,.54,.16,.81,.1,4.38,.19,8.77,.28,13.15,.01,.76,.05,1.51,.2,2.26,.17,.85,.68,1.36,1.48,1.52,.74,.15,1.5,.29,2.25,.28,5.42-.09,10.84,.14,16.26-.04,4.94-.16,9.89-.02,14.84-.01,3.23,.02,6.47,.04,9.7,.06,.17,0,.31-.04,.36-.22,7.64,0,15.27,0,22.91-.02,2.76,0,5.51-.03,8.27-.05,2.79,.02,5.58,.09,8.37,.04,2.58-.04,5.17,.23,7.73-.27,.7,.11,1.34,0,1.92-.43h0c1.21-.3,1.31-1.38,1.39-2.29,.27-2.84-.32-5.66-.53-8.48-.16-2.19,.09-4.22,.8-6.25,3.68-.02,7.36-.03,11.04-.05,2.24,.01,4.47,.02,6.71,.03,.96,0,1.59-.47,1.4-1.41-.27-1.3-.4-2.61-.59-3.92-.19-1.38-.2-2.78-.01-4.16,.22-1.66,.24-3.3,0-4.96-.32-2.23-.07-4.39,3.27-4.27,2.04,.07,4.08,.03,6.11,0,.36,0,.8,.23,1.09-.21l6.01-.05c3.15,.01,6.31,.02,9.46,.03,.22,0,.49,.1,.61-.22,.4,.01,.8,.02,1.2,.03,.27,.25,.6,.19,.91,.19,5.22,.05,10.45-.04,15.67,.17,3.43,.14,6.86,.03,10.3,.03,1.7,.03,1.61-.48,1.91-1.73,.15-.65-.23-1.22-.25-1.85-.06-2.41-.08-4.83-.16-7.24-.12-3.92-.16-7.85,.11-11.78,.26-3.89,.06-7.81,.05-11.71,0-.5-.02-1.02-.71-1.1-.49-.68-1.24-.69-1.95-.69-2.75-.01-5.51-.03-8.26,.05-2.88,.09-5.74,.13-8.51-.83,0-1.24,0-2.47,0-3.71,0-9.76,0-19.52,0-29.28,0-1.09-.14-2.1-1.43-2.45-.68-.5-1.46-.57-2.26-.56-5.8,.04-11.61,.06-17.41,.09-1.89-.33-3.8-.51-5.71-.51-15.42,0-30.84,.04-46.27,.1-.98,0-1.29-.22-1.26-1.24,.13-4.78,.18-9.56,.26-14.34,0-.24,.01-.48,0-.72-.07-1.07-.76-1.77-1.94-1.96-.5-.21-1.02-.11-1.54-.11-5.1,.02-10.2-.02-15.29-.23-.33-1.4-.21-2.83-.23-4.24,0-.24,.02-.48-.01-.72-.56-3.73-.71-7.47-.18-11.21,.07-.52-.18-1.57,.99-1.56,1.19,.01,2.38-.19,3.54-.18,3.39,.03,6.76-.23,10.14-.34,2.95-.09,4.05-.75,4.16-3.83,.15-4.01,.4-8.03,.27-12.05-.03-.87-.04-2.01-1.14-2.52-.09-.08-.18-.16-.27-.25-.17-.31-.48-.24-.75-.24-4.27-.06-8.55-.16-12.82-.15-1.23,0-2.46,.18-3.68-.11-.7-1.42-.33-2.87-.28-4.35,.12-3.55,.07-7.11,.02-10.67-.01-1.06-.28-2.1-1.43-2.6-2.43-.92-4.95-.78-7.48-.7-3.25,.11-6.48,.55-9.74,.33,0-3.11,0-6.21,0-9.32,0-.43,.11-.87,.13-1.28,.1-1.81,.6-3.63-.11-5.44-.26-.68-.56-1.33-1.17-1.7-1.74-1.06-3.62-1.54-5.69-1.28-3.48,.44-6.98,.58-10.48,.14-.6-.08-1.17-.23-1.68-.54,.05-.25-.05-.44-.25-.59l-.02-.09-.09-.02c-.32-.99-.48-2.01-.65-3.04-.23-1.42-.01-2.84-.24-4.23-.25-1.49-.32-2.95,.02-4.42,.36-1.57,0-2.89-.91-3.4-.54-.44-1.17-.72-1.87-.71-2.07,.02-4.15,.1-6.22,.13-3.63,.04-7.26,.18-10.89-.09h-.49c-4.47,.06-8.94,.12-13.42,.18-1.28-.14-2.57-.14-3.85-.01-.31-.01-.62-.02-.93-.03,0-.24-.01-.48-.01-.72,0-5.3,0-10.6-.02-15.91,0-.36,.41-1.03-.44-1.1-.08-.09-.17-.17-.25-.26-.24-.31-.61-.35-.95-.43-3.41-.73-6.86-.77-10.31-.39-1.29,.14-2.61,.15-3.86,.61-.56,.06-1.11,.13-1.67,.19-1.8-.63-2.77,.35-2.57,2.03,.07,.55,.15,1.11,.14,1.67-.04,9.15-.11,18.29-.14,27.44-.02,6.83,0,13.66,0,20.5,0,1.48-.29,1.79-1.76,1.67-1.07-.08-2.14-.24-3.22-.15-2.5,.22-5.01,.45-7.51,.68-1.77-.04-3.54-.08-5.31-.12-.84-.65-1.83-.74-2.83-.74-11.95,.02-23.9,0-35.85,.11-5.5,.04-11.01,.44-16.51,.14-1.55-.09-3.2,.08-4.59-.92-.02-.5-.23-.96-.22-1.49,.17-17.54-.26-35.07,.23-52.61,.15-5.42,0-10.85,.04-16.28,0-.75-.22-1.12-.98-1.13-.62-.42-1.32-.43-2.03-.41-5.87,.18-11.73,.24-17.6,.17-1.04-.01-1.41,.38-1.21,1.35,.28,1.42,.3,2.85,.25,4.29-.13,3.77-.89,7.53-.29,11.33,.2,1.26-.42,1.71-1.91,1.82-.85-.31-1.74-.22-2.6-.22-15.37-.01-30.74,0-46.11-.02-3.27,0-6.54,.19-9.81-.03-.1-.18-.16-.43-.46-.27l.03,.02c-.25-.57-.71-1.13-.72-1.71-.02-1.15-.3-2.27-.27-3.4,.13-3.81-.27-7.6-.26-11.41,0-.85-.33-1.41-1.21-1.56-.91-.29-1.84-.35-2.79-.33-4.19,.07-8.38,.13-12.58,.18-3.04,.04-6.07,.06-9.11,.08-.32-.01-.64-.03-.95-.04-2.62-.09-5.24,.07-7.87-.14-1.67-.13-3.4-.3-5.07,.16-.32-.09-.64-.19-.96-.28-.17-1.86,.37-3.71,.22-5.56-.14-1.78-.55-3.5-.28-5.35,.29-1.95,.06-3.98,.07-5.97,0-.66-.27-1.04-.96-1.07-.44-.62-1.06-.78-1.78-.77-1.51,.02-3.03,0-4.54,.04-1.23,.03-2.46,.09-3.58,.69-1.57,.03-3.15,.06-4.72,.09-.52-.02-1.03-.06-1.55-.06-2.74,.03-3.25,.56-3.27,3.3-.03,3.94-.15,7.87-.53,11.79-.19,1.93,.03,2.38,1.73,3.15,.97,.42,1.95,.28,2.98,.28,5.08-.01,10.16-.3,15.23,.15,.68,1.69,.58,3.5,.68,5.26,.24,4.33-.39,8.66,.1,12.99-.3,1.8-.52,3.62-.52,5.45,0,3.94,0,7.87,.01,11.81-.46,.44-.15,.98-.19,1.47,.25,.97,.2,1.96,.17,2.95-.04,1.47-.12,2.94-.16,4.4-.1,3.22-.01,6.44-.33,9.65-2.79-.08-5.59-.14-8.38-.26-2.59-.11-5.19-.1-7.78,.05-2.46,.14-3.18,.91-3.16,3.36,.01,1.52,.08,3.03,.13,4.55,.09,3.08-.06,6.15-.5,9.19-.08,.53,.13,1.38-.85,1.43-1.15-.11-2.3-.3-3.45-.31-4.47-.04-8.95,0-13.42-.03-1.24-.01-1.86,.57-2.02,1.72-.07,.47-.09,.95-.09,1.43,.05,4.87,.1,9.74,.16,14.61,0,.31,.07,.63,.11,.94-.02,.52-.05,1.03-.06,1.55-.1,5.33,.12,10.66-.26,15.98-5.56,0-11.11,0-16.67-.01-1.96,0-2.72-.65-2.73-2.6-.04-5.95-.16-11.91,.05-17.86,.09-2.58,.15-5.16,.16-7.74,.03-19.26,.14-38.53-.05-57.79-.07-6.65-.07-13.31-.17-19.97-.03-2.42,.48-2.97,2.87-2.9,4.07,.12,8.11-.4,12.18-.26,1.03,.04,2.04,.49,3.12,.03,.83-.35,1.27-.82,1.26-1.73-.01-3.84,.06-7.67-.05-11.51-.03-.97-.19-1.96-.19-2.94,0-1.95,.58-2.66,2.5-2.52,5.34,.41,10.68,.12,16.02,.21,1.75,.03,2.35-.58,2.35-2.29,0-2.28,.14-4.57-.04-6.83-.21-2.67-.03-5.42-1.18-7.94,.29-.33,.63-.19,.92-.19,6.16,0,12.31,0,18.47,0,1.5,0,1.97,.47,1.97,1.97,0,3.32,0,6.63,0,9.95,0,1.12-.46,2.2-.03,3.36,.39,1.04,1.03,1.69,2.1,1.73,4.26,.17,8.52-.16,12.77-.31,3.14-.11,6.29-.21,9.42-.11,3.56,.11,7.12,.36,10.68,.48,1.29,.04,2.6,.14,3.9,.21,1.09,.06,1.88,.9,1.67,2.74-.24,2-.4,4-.44,6-.05,2.32,.04,4.64-.03,6.95-.07,2.38,.67,3.01,3.08,2.97,4.06-.06,8.12-.25,12.18-.23,8.38,.04,16.76-.15,25.13-.31,6.22-.12,12.44,0,18.66-.18,.76-.02,1.46,.35,2.28,.06,1.17-.42,1.76-.96,1.78-2.22,.09-4.34,.27-8.68,.21-13.01-.04-3.08,.52-3.29,3.91-2.89,1.94,.23,3.9,.16,5.84,0,.41-.03,.85-.14,1.28-.14,2.76,0,5.52,0,8.28,0,1.37,0,1.88-.48,1.83-1.83-.14-3.76-.3-7.52-.49-11.28-.03-.66-.23-1.3-.24-1.98-.02-1.2,.28-1.78,1.91-1.93,.2-.02,.4,0,.6,0,17.87,0,35.74,0,53.61,0,2.2,0,2.94,.69,2.9,2.84-.05,2.94,.43,5.87,.25,8.82-.05,.78-.11,1.57-.19,2.34-.26,2.75,.83,3.73,3.71,3.45,.74-.07,1.48-.18,2.23-.18,1.94-.02,3.88,.04,5.79-.39,.69-.16,1.31,.2,1.98,.26,1.02,.1,2.02-.11,3.03-.08-.22,1-1.01,.99-1.77,.99-3.66,0-7.31,0-10.97,.01-1.11,0-2.22-.13-3.33,.1-.46-.2-.95-.11-1.42-.11-8.98,0-17.96,0-26.95,0-3.51,0-7.03,.03-10.54,.04-.12-.02-.23-.07-.35-.07-5.78,.01-11.56,.03-17.34,.05-.24,0-.47,.07-.71,.09-.86,.04-1.19,.57-1.19,1.34,0,4.7,.03,9.4,.05,14.1-.18,1.55,0,1.89,1.16,1.88,6.37-.02,12.74,0,19.1-.28,.4,.02,.79,.06,1.19,.06,7.53,0,15.05,0,22.58,0,.46,.49,1.04,.22,1.55,.2,1.75-.07,3.51,.28,5.25-.19,3.85,.1,7.71,.13,11.56-.01,1.55,.58,3.14,.17,4.72,.22,2.55,0,5.1,.03,7.64-.03,1.81-.04,2.73-.69,2.82-2.02,.07-1.04,.11-2.1-.05-3.16-.16-1.09-.02-2.19,.03-3.29,.09-1.88,.22-3.76,0-5.66-.17-1.47-1.05-2.76-.9-4.27,6,0,11.99-.05,17.99,0,1.97,.02,2.64,.94,2.7,2.73,.35,10.45,.11,20.9,.23,31.36,.03,2.33,.58,3.43,3.35,3.32,10.61-.45,21.23-.19,31.85-.25,1.93-.01,2.61,.74,2.69,2.66,.2,4.92,.54,9.83,.48,14.76-.01,1.08,.91,1.93,1.99,2.01,.28,.02,.56,0,.84,0,10.35,0,20.71,.07,31.06-.05,2.94-.03,3.37,1.83,2.88,3.88-.21,.89,.19,1.62,.17,2.44-.06,2.78-.02,5.56-.23,8.34-.14,1.84,.76,2.66,2.61,2.66,4.96,0,9.92,.06,14.87-.03,1.82-.03,2.84,.64,2.88,2.92,0,.16,0,.32,0,.48,0,8.47,0,16.94,0,25.42,0,1.34-.39,2.67-.23,4.02,.08,.7,.12,1.41,.3,2.08,.25,.89,.98,1.09,1.85,1.09,4.12-.02,8.24-.01,12.35,0,1.64,0,2.28,.64,2.28,2.27,0,10.51,.02,21.02-.02,31.53,0,2.01,1.08,2.93,2.91,2.92,17.23-.06,34.46-.04,51.69-.04,2.43,0,3.43,.83,3.22,3.18-.4,4.53-.18,9.07-.23,13.61-.02,2.11,.52,2.63,2.65,2.63,4.76,0,9.51,0,14.27,0,2.53,0,3.31,.79,3.48,3.32,.07,1.05-.27,2.03-.27,3.06,.02,9.43,.01,18.86,.01,28.29,0,2.43,.95,3.16,3.36,2.76,.92-.16,1.9-.23,2.82-.23,3.03,.02,6.03-.45,9.06-.3,.5,.02,.99-.02,1.51-.18,1.32-.4,2.44,.63,2.44,2.17,.02,3.56,.2,7.13-.04,10.67-.34,4.98-.08,9.96-.18,14.93-.06,2.76-.01,5.51-.01,8.27,0,1.92-.51,2.5-2.48,2.24-3.22-.41-6.45-.24-9.66-.16-2.06,.06-4.12,.19-6.18,.17-.84,0-.62,.53-.62,.96,0,4.68,0,9.35,0,14.03,0,1.65-.63,2.29-2.26,2.29-3.56,0-7.12-.01-10.67-.02-.07-.24-.26-.27-.47-.26-2.33,.02-4.66,.04-6.99,.06-1.76,0-3.52,0-5.28-.01-4.03-.05-8.06-.13-12.1-.15-1.53,0-2.18,.68-2.25,2.2-.03,.64,0,1.28-.02,1.92-.07,3.75-.16,7.5-.22,11.25-.03,1.91,.6,2.47,2.48,2.8,1.05,.19,2.02-.07,3.03-.06,4.71,.02,9.43,0,14.14-.02,8.19,.01,16.39,.03,24.58,.04,3.88,0,7.76,.09,11.63-.02,3.63-.11,3.78,1.81,3.51,4.52-.26,2.69-.26,5.38,0,8.07,.1,1.02,.16,2.08,.02,3.09-.19,1.31-1.27,1.98-2.97,2.08-.24,.01-.48,0-.72,0-33.98,0-67.96,.22-101.93-.06-32.48-.27-64.96-.02-97.44-.17-1.08,0-2.15,.08-3.23,0-1.46-.11-2.33-.9-2.32-2.37,0-1.46,.21-2.96,.12-4.37-.13-2.22-.02-4.44-.14-6.66-.03-.56-.05-1.12,0-1.68,.17-1.71-.6-2.39-2.46-2.15-1.11,.15-2.2,.17-3.31,.18-3.4,.02-6.8,0-10.19,.02-.92,0-1.79-.46-2.76-.04-.73,.32-1.22,.66-1.2,1.5,.11,4.38-.47,8.75-.21,13.13,.12,1.95-.95,2.42-2.51,2.66-.27,.04-.56,0-.84,0-104.05,0-208.1,0-312.15-.01-1.29,0-2.56-.2-3.83-.45-1.66-.33-2.01-1.89-1.85-3.18,.3-2.45,.26-4.87,.02-7.32-.12-1.21-.47-2.42-.29-3.65,.34-2.34,1.13-2.9,3.47-3.11,1.5-.13,3.01,.19,4.5,.2,16.27,.04,32.54,.03,48.81,.03,1.84,0,2.23-.38,2.23-2.19,0-4.48,0-8.95,0-13.43,0-.46,.15-.97-.27-1.35-.45-1-1.2-1.42-2.3-1.28-.43,.06-.88,0-1.31,0-4.22-.1-8.44-.51-12.63,.33-1.11,.33-2.24,.44-3.39,.44-.43-.07-.86-.18-1.29-.2-4.61-.28-9.22-.63-13.84-.57-2.81,.04-5.67-.37-8.38,.79ZM275.34,48.76c-3.75,.2-7.49,.25-11.22,.62-1.37,.14-1.66,.57-1.64,1.98,.05,3.99,.1,7.98,.19,11.96,.06,2.47,.18,4.94,.32,7.41,.09,1.69,.63,2.21,2.21,2.41,5.85,.76,11.7,.4,17.54-.06,1.71-.13,2.22-.72,2.31-2.41,.03-.48,.01-.96,.02-1.44,.13-6.02-.27-12.05,.11-18.07,.11-1.76-.52-2.38-2.31-2.4-2.51-.03-5.02,0-7.53,0Zm-176.26,11.03h.03c0-3.19-.04-6.39,.02-9.58,.02-1.08-.49-1.45-1.41-1.46-1.16,0-2.31,.08-3.47,.1-4.55,.09-9.1,.15-13.65,.25-1.93,.04-2.59,.73-2.56,2.64,.01,.67,.15,1.35,.14,2.02-.06,5.5,.23,11.01-.12,16.51-.16,2.44,.46,3.08,2.9,3.09,4.55,.02,9.11,.04,13.66,.08,3.03,.03,4.43-1.28,4.45-4.31,.03-3.11,0-6.23,0-9.34Z"/><path class="cls-7" d="M242.77,269.52c.08,.89,.32,1.76,.29,2.68-.06,2.13-.98,3.1-3.05,3.09-.59,0-1.19-.04-1.78-.06-.25-.29-.6-.17-.9-.17-6.35-.06-12.7-.14-19.04-.17-7.27-.04-14.54-.03-21.81-.04-2,0-3.99-.03-5.99-.05-1.25-.44-2.56-.4-3.86-.51-3.93-.34-7.85-.45-11.69,.73-2.68,.47-5.37,.76-8.09,.76-1.99,0-3.97-.02-5.96,.01-.64,0-1.39-.08-1.58,.83l-.02,.09s-.09,.02-.09,.02c-.51-.16-.61,.12-.58,.53,0,0,.02-.03,.02-.03-.66,.8-.69,1.68-.32,2.61,.02,.4,.03,.81,.05,1.21,.09,1.19-.26,2.41,.19,3.58,.22,1.68,.34,3.36,.29,5.05,.16,.94-.34,1.83-.27,2.76l-.02,.09s-.09,.02-.09,.02c-1.13,.05-2.15,.55-3.33,.52-6.37-.16-12.75-.09-19.12-.21-12.05-.22-24.11-.06-36.17-.08-.42,0-1.09,.38-1.26-.45,.35-.3-.3-.27-.17-.49,.95,.18,1.27-.89,2.18-1.02,1.25-.18,2.45,.04,3.67,.05,9.19,.03,18.37,.02,27.56,.03,.49,0,.94-.06,1.38-.29,1.07-.55,1.11-.75,.12-1.39-.73-.48-1.52-.87-2.27-1.32-.65-.39-.82-.97-.8-1.72,.02-.74,.55-.78,1.01-.96,.79-.32,1.47-.78,1.91-1.55,.47-.34,.51-.85,.46-1.35-.14-1.5-.31-3-.47-4.5,1.02-.69,2.09-1.22,3.29-1.57,2.75-.8,5.6-.6,8.39-.89,3.22-.34,6.24-.97,8.37-3.77,.34,.75,.63,1.45,.97,2.11,.45,.86,1.08,1.29,2.15,1,.51-.14,.9-.46,1.4-.57,.24-.08,.54-.12,.37-.5h-.01c.73,.09,.44-.48,.48-.8,.13-.97-.52-1.83-.45-2.77,.2-2.78-.76-5.48-.53-8.26,.04-.47,.12-1.21-.7-1.35h.01c.15-.52-.1-.73-.61-.72-.86-.65-1.82-1-2.92-.96-.45,.01-.75-.19-.78-.67,.77-.23,1.52-.5,2.16-1.01,.5-.22,.55-.7,.73-1.14,.42-1.06-.08-2.11,0-3.15,.28-3.62,.29-7.24,.21-10.86-.05-2.15-.57-2.46-1.89-2.55-2.78-.3-5.57-.1-8.35-.22-3.39,0-6.77,0-10.16,0-.85,0-1.7,0-2.55,0-1.29,.04-2.59-.25-3.87,.17-2.73,0-5.46,0-8.19,0-.27-.29-.61-.3-.96-.19h0c-1.09-1.53-.97-3.29-.95-5.04,0-.87,.46-1.72,.23-2.59-.34-1.26-.24-2.53-.21-3.8,.04-1.63-.06-3.26-.29-4.87-.08-.53,.08-1.44-.94-1.46h0c.13-.55-.3-.44-.59-.5-1.01-.31-2.02-.57-3.09-.47-4.14,.38-8.29,.22-12.44,.22-.94,0-1.91-.03-2.82-.35h.02c0-13.33-.02-26.66-.01-39.99,0-8.18-.02-16.37,.05-24.55,.02-2.47,.16-4.94,.06-7.41-.07-1.71-.65-3.05-2.52-3.45-.79-.52-1.7-.29-2.51-.21-4.43,.45-8.87,.11-13.31,.17,.94-.95,2.19-1.04,3.39-1.14,1.66-.14,3.3,.33,4.98,.23,1.88-.11,3.77-.19,5.66-.05,1.11,.08,2.29,.31,3.39-.21,.24,1.41,1.34,1.43,2.38,1.42,5.11-.02,10.22-.05,15.33-.15,7.03-.14,14.07-.03,21.1-.04,40.73-.02,81.46-.03,122.18-.05,2.78,0,3.56,.72,3.36,3.5-.12,1.64-.09,3.24,0,4.87,.14,2.75,.06,5.5-.16,8.25-.15,1.8,.7,2.59,2.49,2.56,3.71-.06,7.42-.04,11.13-.15,7.34-.21,14.69-.09,22.04-.31,2.06-.06,2.93,.88,2.94,2.89,0,4,.01,7.99,0,11.99,0,3,.83,3.82,3.85,3.81,5.52,0,11.03,.01,16.55,.02-.16,6.23,.26,12.45,.23,18.68h0c-5.54,.14-11.09-.27-16.63,.23-1.89,.17-2.64,1.13-2.24,2.97,.45,2.07,.66,4.16,.65,6.27-.02,3.23,0,6.47-.01,9.7-5.5,.04-11,.07-16.5,.11-.27-.1-.53-.12-.75,.11-1.38,.49-1.61,.88-1.26,2.31,.6,2.44,.86,4.92,.81,7.44-.06,2.98-.14,5.95-.21,8.93-.67,.03-1.34,.05-2,.08-5.77,.23-11.53,.44-17.3,.72-1.7,.08-2.57,1.12-2.57,2.98-.02,4.74,0,9.48,.01,14.22-.09,.09-.19,.19-.28,.28-.77-.82-1.73-1.09-2.82-.96-3.47,.42-6.95,.22-10.42,.21-1.59,0-3.14,.33-4.73,.29-1.1-.03-1.7,.78-2.16,1.67-.07,.08-.21,.17-.21,.25,0,3.53,0,7.06,.01,10.59,0,.05,.1,.11,.16,.16Zm-23.24-86.3c-.73-.38-1.49-.5-2.31-.48-6.82,.15-13.65-.1-20.47,.18-6.06,.25-12.15,.05-18.22,.04,0-5.11,0-10.22,0-15.33,0-2.03-.6-2.63-2.65-2.63-11.47,0-22.93,0-34.4,0-.56,0-1.11,.03-1.65,.22-.62,.22-.89,.6-.89,1.24,0,2.31-.02,4.61-.2,6.92-.26,3.31,.02,6.6,1.19,9.76-4.5,.19-8.99,.4-13.49,.56-1.64,.06-3.29-.1-4.91,.05-2.6,.24-4.11,.09-3.9,3.99,.11,2.03,.25,4.06,.2,6.09-.04,1.63-.2,3.26-.21,4.89,0,1.58,.71,2.53,1.89,2.73,.17,.33,.48,.23,.74,.23,4.06,0,8.13-.02,12.19-.03,1.16,.01,2.32-.07,3.47,.05,2.33,.24,2.82,.26,2.78,2.79-.04,3.03,0,6.06,0,9.09,0,1.87-.38,3.72-.26,5.6,.05,.88,.19,1.68,1.22,1.93,.34,.43,.81,.22,1.21,.22,3.65,.02,7.31,0,10.96,.02,1.78,.01,3.57-.12,5.35,.09,1.24,.47,1.3,1.52,1.15,2.56-.29,1.99-.21,3.98-.17,5.96,.05,2.12-.31,4.21-.27,6.32,.02,1.3,.74,2.01,1.9,2.36,1.41,.42,2.75-.23,4.12-.06,4.71,.01,9.41,.02,14.12,.03,1.79,.74,1.94,.96,1.94,3.01,0,1.88,0,3.75-.04,5.63-.05,2.27-.18,4.54-.19,6.81,0,1.07,.41,1.94,1.66,2.06,.17,.33,.48,.23,.74,.23,12.22,0,24.44-.02,36.66-.03,.28,0,.56,.03,.84,.03,1.83,0,2.24-.37,2.68-2.17,.23-.94-.14-1.81-.13-2.73,.04-3.04,.03-6.07,0-9.11-.02-2.28,.18-2.58,2.42-3.29,1.71,.01,3.42,.05,5.12,.02,.6-.01,1.26,.25,1.81-.22l1.22-.04c1.55,.01,3.1,.06,4.65,.01,.68-.02,1.41,.28,2.05-.22,1.54-.04,2.13-.63,2.17-2.17,0-.4,.01-.8,.02-1.2,.03-.02,.08-.05,.08-.06,0-.06-.04-.12-.06-.17,0-.64,0-1.29,0-1.93,.42-1.44,.15-2.91,.17-4.36,.01-1.09,.26-2.21-.17-3.29-.22-2.8,0-3.27,1.89-4.12,5.96,.01,11.93,.02,17.89,.03,.31,0,.65,.06,.88-.24,.79-.07,1.14-.58,1.37-1.27,.28-.82,.23-1.65,.24-2.49,.06-3.71-.14-7.42,.18-11.13,.28-3.25-.58-4.04-3.86-4.04-1.79,0-3.58,.12-5.38,.19-4.43,.15-8.85,.07-13.26-.46,0-3.2-.06-6.4,.02-9.59,.06-2.26,.33-4.52,.44-6.78,.05-1.01-.34-1.63-1.51-1.91-1.12-.26-2.13,.09-3.19,.09-5.12-.03-10.23,0-15.35,0-.58-.91-1.5-.29-2.24-.49h-.25Z"/><path class="cls-5" d="M15.63,275.81c2.71-1.15,5.57-.75,8.38-.79,4.62-.06,9.23,.29,13.84,.57,.43,.03,.86,.13,1.29,.2,.14,2.54,1.1,4.98,.88,7.56,0,.03,.04,.07,.06,.1,.02,2.63,.04,5.25,.05,7.88-.32,.48-.8,.85-.97,1.43-3.06,.13-6.13-.13-9.19,.14-2.98,.27-5.99,.3-8.94,.05-2.25-.19-4.4-1.25-5.78-3.19-.88-1.23-.45-2.74-.22-4.14,.17-1.01,.33-2.04,.62-3.02,.32-1.06,.11-1.94-.58-2.75-.1-.12-.16-.28-.23-.42-.9-1.69-.73-2.52,.78-3.64Z"/><path class="cls-13" d="M287.88,35.28c-7.53,0-15.05,0-22.58,0-.4,0-.79-.04-1.19-.06,0-.17,0-.33,0-.5,.1-.06,.21-.12,.31-.18,12.25-.09,24.5,.22,36.75-.21,.91-.03,1.14-.3,1.13-1.17-.04-4.99-.02-9.98-.02-14.97,1.1-.24,2.22-.1,3.33-.1,3.66-.02,7.31,0,10.97-.01,.76,0,1.56,0,1.77-.99,.71-.39,1.42-.44,2.13,0-.15,1.51,.73,2.81,.9,4.27,.22,1.9,.08,3.79,0,5.66-.05,1.1-.18,2.2-.03,3.29,.15,1.06,.12,2.12,.05,3.16-.09,1.34-1.01,1.99-2.82,2.02-2.55,.05-5.1,.02-7.64,.03-1.55-.59-3.14-.18-4.72-.23-3.85,.14-7.71,.11-11.56,.01-2.26,0-4.53-.01-6.79-.02Z"/><path class="cls-10" d="M97.83,143.64c-1.1,.52-2.28,.29-3.39,.21-1.9-.14-3.78-.06-5.66,.05-1.67,.1-3.31-.38-4.98-.23-1.21,.1-2.46,.19-3.39,1.14-.8,.36-1.59,1.14-2.41,.05,.38-5.32,.15-10.66,.26-15.98,.01-.52,.04-1.03,.06-1.55,1.6,.32,3.23,.25,4.85,.25,3.98,0,7.95,0,11.93,0,.75,0,1.67-.22,2.22,.13,.72,.46-.11,1.43,.15,2.17-1.16,3.14-.46,6.37-.48,9.57,0,.89,.56,.36,.91,.35,.41,1.29,.34,2.57-.04,3.84Z"/><path class="cls-5" d="M510.74,275.07c2.33-.02,4.66-.04,6.99-.06,.2,0,.39,.03,.47,.26,.47,2.02,.62,4.04,.32,6.11-.24,1.68-.36,3.37-.96,4.98-.46,1.25-1.14,2.2-2.61,2.44-1.72,.28-2.6,1.59-3.13,3.1-.24,.7-.59,.97-1.28,.9-.02-.49-.04-.98-.06-1.47,.02-2.15,.05-4.3,.07-6.45,.29-2.23,.15-4.46,.07-6.69,.01-.8,.03-1.61,.04-2.41,.03-.24,.05-.48,.08-.71Z"/><path class="cls-7" d="M510.48,291.34c.02,.49,.04,.98,.06,1.47-.02,.06-.03,.12-.02,.19-4.71,.01-9.43,.04-14.14,.02-1.01,0-1.98,.25-3.03,.06-1.88-.33-2.51-.89-2.48-2.8,.07-3.75,.15-7.5,.22-11.25,.01-.64-.01-1.28,.02-1.92,.07-1.52,.72-2.2,2.25-2.2,4.03,.02,8.07,.09,12.1,.15-.83,.25-1.67,.46-2.48,.75-2.49,.92-4.93,1.47-7.48,.06-1.31-.72-2.64,.21-2.74,1.74-.03,.51,0,1.02,.1,1.54,.19,1.01,.52,2.02,.32,3.07-.38,2.04-.5,4.1-.43,6.18,.09,2.33,1.28,3.7,3.53,3.87,1.09,.08,2.21-.16,3.32-.28,3.47-.37,6.91-1.02,10.41-1.12,.15,.16,.31,.31,.46,.47Z"/><path class="cls-7" d="M39.17,292.77c.17-.58,.65-.95,.97-1.43,.08-.07,.16-.13,.24-.2,4.67,.95,9.4,1.09,14.14,.91,1.53-.06,2.53-1.07,2.89-2.57,.85-3.53,.93-7.06,.09-10.61-.55-2.32-1.51-3.09-3.91-3.1-3.08,0-6.15,0-9.23,0-.65,0-1.27-.07-1.83-.42,4.19-.84,8.42-.42,12.63-.33,.44,.01,.88,.06,1.31,0,1.1-.14,1.85,.28,2.3,1.28,.01,4.7,.05,9.4,.03,14.1,0,1.54-.79,2.37-2.18,2.38-5.82,.01-11.64-.01-17.46-.02Z"/><path class="cls-11" d="M243.25,107.91c1.39,1,3.05,.84,4.59,.92,5.5,.3,11-.1,16.51-.14,11.95-.1,23.9-.08,35.85-.11,1,0,2,.08,2.83,.74-.01,5.31-.02,10.62-.03,15.93,0,2.31,.75,3.04,3.11,3.05,2.87,.01,5.73-.27,8.6-.25,7.47,.05,14.93,0,22.4-.03,1.25,.14,2.54,.6,3.62-.49,6.37,.02,12.75,.03,19.12,.05,.01,3.58,.01,7.17,.04,10.75,.03,3.94,1.84,6.09,5.47,6.55,.48,.29,.43,.76,.5,1.24,.19,1.36,.06,2.86,1.21,3.88,.9,.8,.44,1.05-.39,1.23-.27,.06-.55,.06-.83,.12-2,.41-2.41,1.17-2.13,3.2,.47,3.3-.45,6.15-3.16,8.24-.59,.46-.75,.85-.48,1.48-.06,1.91-.14,3.82-.18,5.73-.08,4.23-.13,8.46-.2,12.69-2.85,.09-5.71,.31-8.56,.23-1.77-.05-3.55-.22-5.33-.17-1.02,.03-2.05,.13-2.97,.75h2.38c-1.48,.36-2.89,.22-4.23-.53-.12-.25-.24-.49-.36-.74,.67-2.99,.55-6.06,.64-9.09,.07-2.32-.18-4.68-.14-7.02,.02-.88-.21-1.19-1.12-1.16-2.19,.07-4.37-.2-6.55-.39-3.22-.28-6.45-.49-9.67-.25-2.19,.16-2.6-.12-2.6-2.33,0-4.71-.02-9.41,.02-14.12,0-.88-.22-1.23-1.14-1.15-1,.1-1.99,0-2.92-.43-.45-.79-1.16-1.08-2.02-.97-.99,.12-1.97,.01-2.96,0-6.15-.01-12.3,0-18.45,0-.63,0-1.27,.2-1.89,.13-1.99-.23-3.96-.35-5.9,.34-.73-1.01-1.01-2.18-.93-3.37,.25-3.5,.24-7,.21-10.51-.02-2.71-1.09-3.88-3.33-4.29-.94-.17-1.9-.27-2.85-.27-5.91-.03-11.81-.03-17.72-.03-3.47,0-6.94,.05-10.42,.03-1.75,0-2.33-.65-2.35-2.39,0-1,.05-2-.05-2.98-.12-1.12-.06-2.27-.48-3.35-.04-.51-.37-.68-.82-.66-1.12,.07-2.22-.21-3.32-.22-5.9-.03-11.79,0-17.69-.05-.94,0-1.35,.25-1.18,1.2-1.52,0-3.04,.01-4.56,.02-.38-.43-.88-.49-1.41-.49-7.68,0-15.37,0-23.05,0-.66,0-1.27,.08-1.67,.7-8.06,.23-16.13,.11-24.19,.19-12.86,.12-25.71,.24-38.57-.09-3.7-.09-7.42-.21-11.13,.15-1.94,.19-2.41-.32-2.41-2.13,.52-1.17,.13-2.39,.2-3.58,.06-.19,.13-.37,.18-.56,.68-2.62-.21-3.79-2.86-3.81-5.18-.03-10.36,.14-15.53-.21,0-5.04,0-10.07,0-15.11,0-1.82,.58-2.4,2.44-2.4,5,0,9.99,0,14.99,.01,.91,0,1.55-.27,1.78-1.21,.83,.44,1.75,.38,2.56,.14,2.76-.83,5.48-.33,8.22,0,2.25,.27,4.51,.33,6.7-.4,1.44-.47,2.1-1.51,2.19-3.04,.05-.93-.21-1.81-.29-2.72-.07-1.43,.29-2.89-.2-4.3-.01-.57-.02-1.13-.04-1.7,.01-1.22,.07-2.45,.01-3.67-.04-.83,.28-1.7-.21-2.5-5.28,0-10.55,0-15.83,0-1.38,0-2.75,0-4.13,.01-.07,0-.14,0-.2-.05,0-3.94-.02-7.87-.01-11.81,0-1.83,.22-3.65,.52-5.45,.32,0,.63-.01,.95-.02,.07-.09,.19-.18,.19-.27,0-3.44,0-6.89,0-10.5-.36,.55-.14,1.01-.27,1.42-.35-.42-.19-.92-.17-1.38,.04-.94,.33-1.91,.14-2.8-.16-.74-.1-1.33,.25-1.91,.66-1.08,.73-2.14,.05-3.23,1.68-.46,3.4-.29,5.07-.16,2.63,.21,5.25,.05,7.87,.14,.32,.01,.64,.03,.95,.04-.34,.31-.76,.18-1.15,.18-2,.01-3.99,0-5.99,.01-.33,0-.83-.17-.93,.29-.1,.51,.37,.7,.77,.92,.88,.48,1.72-.04,2.57-.04,6.59,.04,13.18,.02,19.77,.01,.61,0,1.2,.05,1.76,.28,1.41,.59,2.77,.74,4.24,.07,1.03-.47,1.87-.04,1.97,.84,.11,.9,.29,1.79,.28,2.72-.04,3.43-.03,6.87-.01,10.3,0,2.41,1.22,3.66,3.63,3.78,.44,.02,.88,0,1.32,0,12.66,0,25.32,0,37.98,0-.02,.56-.03,1.12-.05,1.68-.02,.02-.07,.05-.06,.07,.02,.05,.05,.1,.08,.15,.01,.72,.03,1.44,.04,2.17,0,.09,0,.17,0,.26,0,.55,0,1.1,.01,1.64,0,.73,0,1.46,0,2.2,.07,1.82,.34,3.64,.23,5.47-.03,.55-.06,1.15,.11,1.65,.28,.86-.02,1.06-.82,1.05-2.16-.02-4.31,0-6.47,0-6.03-.01-12.06-.02-18.08-.03-.24,0-.48,.01-.67,.2-4.81,.01-9.63,.06-14.44,.02-1.14-.01-1.63,.3-1.43,1.45-.27,.41-.28,.81,.02,1.22,0,1.91,0,3.82,0,5.73-.03,.03-.08,.06-.07,.08,.02,.06,.06,.12,.09,.18-.05,1.78,.08,3.56-.18,5.36-.27,1.89,.58,3.41,2.97,3.28,4.25-.23,8.5-.51,12.76-.54,1.17,0,2.38-.23,3.57-.18,1.15,.05,2.03,.49,2.32,1.79,.32,1.43,.02,2.83-.05,4.24-.16,3.58-.18,7.16-.26,10.74,.08,.08,.16,.16,.24,.23,6.69,.07,13.39,.14,20.08,.19,.42,0,.88,.14,1.27-.17,.71,.03,.97-.33,.96-1.02-.01-4.76,0-9.52,0-14.28,5.43-.09,10.85-.18,16.28-.27,2.44-.04,3.13-.75,3.12-3.15-.01-4.71,0-9.42,0-14.13,.21-.02,.41-.05,.52-.26,.88,.11,1.21-.27,1.21-1.16,0-.85-.25-1.66-.25-2.49-.01-4.63,.01-9.27,.03-13.9,.47-.06,.95-.15,1.42-.16,5.98-.18,11.96-.34,17.95-.51-.11,.72-.03,1.45-.03,2.18,.05,7.25,.04,14.51,.05,21.76,0,.43,.06,.88-.28,1.23-.95,.03-1.17,.61-1.17,1.44,.01,4.97,.02,9.93,0,14.9,0,1,.4,1.49,1.42,1.42,.01,2.79,0,5.57,.04,8.36,.01,.83-.01,1.71,.92,2.18Zm-104.08-41.87c0-3.33,.02-6.67-.02-10,0-.38-.09-.9-.64-1.23,.88,3.78,.16,7.5,.66,11.23Zm-1.32-11.7c.05,.05,.09,.11,.14,.15,.09,.07,.17,.05,.16-.07,0-.06-.06-.15-.11-.16-.06-.01-.13,.05-.2,.08Z"/><path class="cls-5" d="M100.07,109.12c5.17,.35,10.35,.18,15.53,.21,2.65,.02,3.54,1.19,2.86,3.81-.05,.19-.12,.38-.18,.56-.46,1.17-.1,2.39-.2,3.58,0,1.81,.46,2.31,2.41,2.13,3.71-.35,7.42-.24,11.13-.15,12.86,.32,25.72,.21,38.57,.09,8.06-.08,16.13,.04,24.19-.19,8.71,.04,17.42,.18,26.13-.21,1.52,0,3.04-.01,4.56-.02,.51,.03,1.03,.08,1.54,.07,4.65-.08,9.3-.17,13.95-.25,2.5-.04,5.01-.07,7.51-.1,.42,1.08,.36,2.23,.48,3.35,.1,.99,.04,1.99,.05,2.98,.01,1.74,.6,2.38,2.35,2.39,3.47,.02,6.94-.03,10.42-.03,5.91,0,11.81,0,17.72,.03,.95,0,1.91,.1,2.85,.27,2.24,.41,3.31,1.58,3.33,4.29,.03,3.5,.04,7.01-.21,10.51-.09,1.19,.2,2.36,.93,3.37,.26,.38,.65,.23,.99,.23,6.14,.09,12.29,.2,18.43,.26,3.93,.04,7.87,0,11.8,0,.93,.42,1.93,.52,2.92,.43,.91-.09,1.15,.26,1.14,1.15-.04,4.71-.02,9.41-.02,14.12,0,2.21,.41,2.5,2.6,2.33,3.22-.24,6.45-.03,9.67,.25,2.18,.19,4.36,.46,6.55,.39,.91-.03,1.14,.28,1.12,1.16-.04,2.34,.2,4.7,.14,7.02-.09,3.02,.03,6.09-.64,9.09-3.04,0-6.07,0-9.11,0-3.51,0-7.03,.02-10.54,.03-5.52,0-11.03-.03-16.55-.02-3.02,0-3.85-.82-3.85-3.81,.01-4,0-7.99,0-11.99,0-2.02-.87-2.95-2.94-2.89-7.35,.22-14.7,.1-22.04,.31-3.71,.1-7.42,.09-11.13,.15-1.79,.03-2.64-.77-2.49-2.56,.23-2.75,.31-5.5,.16-8.25-.08-1.63-.11-3.24,0-4.87,.2-2.78-.57-3.5-3.36-3.5-40.73,.01-81.46,.03-122.18,.05-7.03,0-14.07-.1-21.1,.04-5.11,.1-10.22,.13-15.33,.15-1.05,0-2.15-.02-2.38-1.42,.38-1.28,.46-2.56,.04-3.84,.34-.46,.24-.99,.23-1.49-.08-2.29-.17-4.58-.31-6.86-.03-.52,.06-1.11-.34-1.57-.26-.73,.58-1.71-.15-2.17-.55-.35-1.46-.12-2.22-.13-3.98,0-7.95,0-11.93,0-1.62,0-3.24,.07-4.85-.25-.04-.31-.1-.63-.11-.94-.06-4.87-.12-9.74-.16-14.61,0-.48,.02-.96,.09-1.43,.16-1.15,.78-1.73,2.02-1.72,4.47,.04,8.95,0,13.42,.03,1.15,0,2.3,.2,3.45,.31,.99,.5,2.01,.62,3.05,.16Z"/><path class="cls-12" d="M340.93,73.6c.31,.01,.62,.02,.93,.03,.33,.52,.88,.78,1.4,1.03,1.04,.49,1.93,.1,2.45-1.02,4.47-.06,8.94-.12,13.42-.18-1.04,.36-2.12,.07-3.17,.17-.3,.03-.71-.13-.82,.28-.13,.51,.38,.56,.66,.67,1.53,.56,2.68-.28,3.82-1.12,3.63,.27,7.26,.12,10.89,.09,2.07-.02,4.15-.1,6.22-.13,.69,0,1.32,.27,1.87,.71,.28,.67,.33,1.41,.2,2.08-.42,2.08-.14,4.18-.19,6.26-.49,1.01-.96,2.02-.6,3.19,.35,1.14,.58,2.3,.59,3.51,.01,1.45,.82,2.22,2.24,2.46,.84,.14,1.64,.03,2.46,.01,3.71-.07,7.42-.05,11.14-.03,1.16,0,1.87,.57,2.23,1.76,.3,.96-.12,1.81-.11,2.71,.07,3.5-.06,7.01,.21,10.51,.16,2.09,.82,2.83,2.96,2.73,3.26,.23,6.49-.22,9.74-.33,2.52-.09,5.05-.22,7.48,.7,.12,.53,.53,.96,.5,1.57-.18,3.26,.41,6.5,.22,9.76-.08,1.46-.27,2.91-.24,4.38,.02,.93,.25,1.62,1.21,1.9,1.22,.29,2.45,.12,3.68,.11,4.27-.01,8.55,.09,12.82,.15,.27,0,.57-.07,.75,.24-.41,.52-.14,1.13-.2,1.7,0,1.42,0,2.84,0,4.26,.05,1.39-.06,2.78-.27,4.15-.32,2.03-.42,4.12-1.44,5.97-.83,1.51-1.75,1.96-3.41,1.76-3.64-.44-7.3-.34-10.96-.32-.94,0-1.69,.41-1.9,1.45-.08,.14-.2,.26-.22,.41-.47,2.88-.7,5.74-.31,8.68,.34,2.57,.38,5.18,.51,7.77,.03,.67,.08,1.22,.96,1.09,5.1,.21,10.19,.25,15.29,.23,.51,0,1.04-.1,1.54,.11-.43,1.78-.72,3.61-.66,5.41,.14,4.43,1.17,8.77,1.63,13.18,.05,.46,.27,.54,.62,.51,1.64-.15,3.24,.37,4.87,.26,.13,.14,.25,.32,.4,.42,1.06,.7,2.2,.32,3.34,.31,6.54-.06,13.09-.03,19.63-.02,.25,0,.56-.1,.77,.46-1.69-.02-3.28,.19-4.88,.23-3.15,.09-6.3,.02-9.46,.03-2.01,0-2.43,.71-1.47,2.46,1.04,1.87,.69,3.56-1.03,4.79-1.02,.72-1.34,1.58-.9,2.78,.83,2.27,2.36,3.79,4.63,4.66,.81,.31,1.84,.2,2.38,1.11-.83,.01-1.66,.03-2.49,.03-.58,0-.63,.36-.61,.8,0,5.57-.01,11.14-.02,16.71-.69-.41-.72-1.09-.71-1.78,0-2.43-.04-4.87,.02-7.3,.06-2.51-.34-4.99-.51-7.48-.06-.83-.41-1.26-1.38-1.2-1.47,.09-2.95,.02-4.43,.02-2.31,0-4.54-.51-6.54-1.59-1.18-.64-1.89-.32-2.71,.39-.26-.4-.68-.18-1.02-.28-.03-.03-.05-.07-.09-.08-4.18-1.19-8.41-.41-12.61-.31-.83,.02-.05,.43,.01,.66-1.75,.51-3.51,1.32-5.26,0,.05-2.97,.34-5.94,.23-8.92-.03-.87-.42-1.71-.19-2.59,.35-1.33,.27-2.7,.13-4.03-.1-.91,0-2.17-1.38-2.45-.34-.99-1.21-.9-1.97-.9-3.71-.02-7.41-.01-11.12,0-.32,0-.63,.05-.95,.08-2.38,.22-3.51-.52-3.49-2.78,.03-4.78,0-9.56,0-14.35,0-5.62,0-11.24,.02-16.85,0-.78-.34-.91-1.01-.93-.94-.02-1.91,.21-2.83-.15,.97-.01,1.95-.07,2.92-.03,.72,.03,1.02-.23,.91-.94,0-5.03,.02-10.05,0-15.08,0-1.94-1.02-3.03-2.97-2.9-3.22,.21-6.44,.2-9.67,.21-2.35,0-4.71,.02-7.06,.03,0,0,.02-.01,.02-.01,0-.25,0-.49,0-.74,1.1-2.46,1.14-5.12,1.11-7.69-.03-2.77-.23-5.55-.37-8.33-.1-1.85-.37-2.21-2.27-2.2-5.5,.04-11-.23-16.48,.48-.25-2.5,.03-5.03-.48-7.51-.36-1.73-.1-3.41,.3-5.08,.71-3,.01-4.02-3.06-4.41-.12-.01-.24-.04-.35-.06-1.48-.5-3.04-.53-4.56-.65-3.66-.28-7.33,.22-11,.2-.59,0-.79,.26-.71,.81-.1,.13-.19,.26-.29,.39-.34,.01-.58,.18-.71,.5-.07,.08-.2,.17-.2,.25-.01,2.94-.01,5.88,0,8.82,0,.08,.13,.17,.2,.25,.02,.44,.04,.86,.14,1.3,.31,1.35-.52,2.47-1.92,2.53-1.55,.07-3.1,.17-4.65,.21-2.76,.07-5.5,.06-8.12,1.09-.78,.31-1.2-.01-1.33-.83-.21-1.21-.37-2.43-.87-3.58-.95-2.18-1.4-4.38-1.05-6.84,.41-2.9,.77-5.81,1.16-8.72,.31-2.37,.56-4.76,.51-7.12-.09-3.85-.34-7.71-.42-11.57-.07-3.35,.33-6.69,.26-10.04-.02-1.16,0-2.32,0-3.48,.56-.06,1.11-.13,1.67-.19,.36,.38,.82,.23,1.24,.23,4.39,.02,8.77,.02,13.16,.02-.08,.9,.02,1.78,.26,2.65,0,1.26,0,2.52,0,3.78-.14,.49-.33,.95-.32,1.49,.04,1.84-.1,3.68,.06,5.51,.1,1.12,.06,2.29,.51,3.36-.16,.77,.14,1.16,.94,1.14Z"/><path class="cls-6" d="M435.94,200.24c.82-.71,1.53-1.03,2.71-.39,2,1.08,4.23,1.59,6.54,1.59,1.48,0,2.96,.07,4.43-.02,.96-.06,1.32,.37,1.38,1.2,.17,2.49,.57,4.97,.51,7.48-.06,2.43-.01,4.87-.02,7.3,0,.7,.03,1.37,.71,1.78-.35,1.24-.04,1.89,1.12,2.09,1.05,.17,2.11,.28,3.17,.3,3.45,.06,6.89,.06,10.34,.09,.08,.05,.17,.1,.25,.15,1.26,.13,1.61,1.02,1.66,2.09,.05,.92,.03,1.84,0,2.76-.1,3.02,.16,6.05-.2,9.08-.28,2.4,.85,3.53,3.25,3.32,1.19-.11,2.38-.13,3.56-.25,4.33-.47,8.67-.59,13.02-.32,.84,.05,1.33-.46,1.48-1.24,.08-.42-.01-.87-.03-1.31,0-3.33,.02-6.66,.02-10,0-.26,.12-.57-.21-.74,0-.48,0-.96,0-1.44,0-2.25,.67-2.94,2.91-2.89,1.79,.04,3.58,.18,5.38,.21,4.27,.08,8.54,.03,12.79-.43,.32,1.17,1.31,1.15,2.21,1.17,2.79,.03,5.58-.02,8.37,.03,1.4,.03,2.79-.32,4.15-.22,2.41,.19,3.35,.16,3.28,3.29-.07,3.11-.08,6.22,.01,9.33,.05,1.61-.24,2.99-1.46,4.1-4.71,0-9.42,0-14.13,.02-1.53,0-2.39,.76-2.44,2.17-.18,4.64,.3,9.3-.5,13.95-.2,1.16-.49,1.15-1.26,1.15-1.88,0-3.75-.01-5.63,0-.4,0-.94-.16-1,.53-.4-.01-.8-.02-1.2-.03-3.11,0-6.21-.02-9.32-.02-.26,0-.57-.11-.75,.21-2,.02-4,.03-6.01,.05-2.55,0-5.11,.01-7.66-.03-3.39-.06-3.65,1.69-3.32,4.07,.27,1.95,.26,3.9,.12,5.82-.17,2.34,.04,4.63,.43,6.91,.2,1.18-.31,1.9-1.53,1.91-1.64,.01-3.27-.01-4.91,.01-.37,0-.8-.19-1.11,.2-3.68,.02-7.36,.03-11.04,.05-.23,0-.47,0-.7,0-6.32-.6-12.67,.09-18.99-.49-.61-1.2,0-2.39,0-3.59,0-5.68,.03-11.37,.04-17.05,.07-.18,.19-.36,.19-.54,0-3.28-.02-6.56-.04-9.84,0-.75,0-1.5,0-2.25,.05-.28,.11-.56-.15-.78-.27-1.31-1.21-1.67-2.38-1.64-1.35,.04-2.69,.18-4.04,.19-3.38,.03-6.77,0-10.15,.01-1.75,0-2.12,.39-2.13,2.19-.02,2.07-.05,4.14-.07,6.21-.35,.64-.16,1.3-.1,1.96-.04,2.78-.08,5.56-.12,8.33-2.39-.07-4.77-.16-7.16-.2-4.06-.07-8.12,.06-12.17-.23,0,0-.1-.05-.1-.05,.06-4.22,.12-8.45,.16-12.67,0-.95-.16-1.9-.13-2.84,.06-1.49,.59-2.21,1.78-2.21,1.36,0,2.69-.18,4.02-.32,1.47-.15,2.94-.06,4.39-.23,1.86-.22,3.7-.35,5.55,.01,1.47,.29,2.82-.79,2.95-2.29,.32-3.68,.08-7.37,.15-11.05,0-.2-.04-.39-.06-.59-.43-4.73,.42-5.14,4.12-4.97,.12,0,.24,.02,.36,.04,2.07,.33,4.14,.31,6.22,.01,1.31-.01,2.65-.19,3.93-.01,3.93,.54,4.45-1.29,4.46-3.82,.02-5.45,.03-10.9,.04-16.36Z"/><path class="cls-13" d="M246.57,293.12c-.4,0-.8-.03-1.19-.02-1.05,.03-1.48-.6-1.37-1.51,.3-2.53,.24-5.09,.56-7.59,.28-2.18-.2-4.29,.07-6.44,.26-2.15,.69-2.74,2.9-2.73,2.19,.01,4.39,.28,6.57,.13,2.86-.2,5.64-.13,8.36,.8,1.2,0,2.4-.01,3.59,.02,4.02,.11,8.05-.12,12.08,.16,1.66,.12,3.35,.19,5.01-.09,1.62-.27,1.83-.6,1.87-2.2,.05-1.75,0-3.5,.13-5.25,.26-3.57,.34-7.16-.88-10.63,.03-.22,.06-.45,.09-.67,2.3-.5,4.62-.79,6.99-.77,4.51,.02,9.03,0,13.54,0s9.19,0,13.78,0c2.51,0,3.59-1.21,3.23-3.71-.13-.92-.18-1.82-.18-2.74,0-3.59,0-7.19,0-10.78,.05-.23,.11-.46,.16-.69,2.11-.15,3.08-1.29,2.37-2.83-.49-1.05-1.41-1.56-2.53-1.77,.01-.56,.03-1.12,.04-1.68,.91-.46,.89-1.34,.91-2.15,.04-1.47,0-2.94,.02-4.42,.03-1.69,.87-3.11,2.08-3.43,1.03-.27,2.12-.51,3.18-.28,1.43,.31,2.85,.18,4.28,.19,1.13,.01,2.2-.28,3.1-1.02,.88-.48,1.82-.63,2.83-.64,.77,0,1.55,.37,2.32,0,.57,.59,1.25,.75,2.06,.68,5.1-.41,10.21-.15,15.32-.22,1.36-.02,2.02,.72,2.03,2.11,.02,1.4,0,2.79-.02,4.19-.02,2.83,.07,5.67-.09,8.5-.12,2.28,.12,2.69,2.4,2.7,4.75,0,9.51,.02,14.26,.03,1.47,.14,1.64,.87,1.51,2.3-.19,2.09-.5,4.29,.62,6.29,0,.08,0,.16,.01,.25,0,.56,.01,1.11,.02,1.67-1.09,.03-1.39,.77-1.45,1.68-.08,1.21,.24,2.43,0,3.64-.59,.86-1.44,1.34-2.42,1.62-.72-.4-1.5-.42-2.29-.45-3.42-.12-6.86,.36-10.24-.32-1.02-.21-1.32,.18-1.37,1.06-.48,.08-.96,.15-1.44,.23-5.07,0-10.14-.01-15.21-.01-2.16,0-2.87,.64-2.99,2.8-.06,1.11-.13,2.25,.02,3.35,.43,3.28,.27,6.5-.54,9.7-.36-.03-.59,.23-.83,.42-1.48,1.16-3.14,1.53-5.01,1.52-7.93-.06-15.87-.02-23.8-.02-1.01,0-1.99,.07-2.7,.94-3.85,.08-5.3,1.56-5.29,5.42,0,1.74-.02,3.48,.2,5.23,.32,2.48-.6,4.85-.95,7.27-1.04,.03-2.07,.09-3.11,.09-11.54,0-23.07,0-34.61,0-5.39,0-10.78,.04-16.16,.07-.61-.1-1.21-.1-1.82,0Zm3.12-17.32s0,.08,0,.13h4.93s0-.08,0-.13h-4.93Z"/><path class="cls-9" d="M98.65,220.25s-.02,0-.02,0c-.29,.56-.26,1.16-.26,1.75,.02,4.75,.05,9.5,.06,14.25,0,2.5-.51,3.03-2.98,3.03-4.87,0-9.74-.01-14.61,0-2.01,0-2.66,.59-2.85,2.57-.18,1.86-.38,3.73-.4,5.6-.09,5.94-.01,11.89-.17,17.83-.08,3.28-.15,6.53,.59,9.75,.05,.05,.04,.1,0,.15-.19-.05-.38-.14-.57-.14-3.19,0-6.38,0-9.58,0-.23,0-.49-.06-.63,.21-.64,.02-1.28,.03-1.93,.05-1.28,0-2.57,0-3.85,0-1.58-.33-1.98-.75-1.94-2.32,.11-4.18-.13-8.36,.08-12.53,.13-2.54-.95-3.7-3.42-3.89-.18-.32-.49-.21-.75-.21-4.95,0-9.9,.01-14.84,.02-1.42-.24-2.12-.79-2.09-2.15,.11-4.7-.39-9.42,.43-14.1,.06-.35,.18-.69,.28-1.04,1.99,.05,3.95-.37,5.92-.45,4.07-.18,8.13-.36,12.21-.26,.35,0,.69-.01,1.05-.15,1.02-.4,.52-1.14,.49-1.8-.1-2.59-.21-5.18-.24-7.77-.03-3.99,.1-7.98,.14-11.97,.1-10.98,.04-21.97,.04-32.95,4.39-.03,8.78-.04,13.16-.08,1.08,0,2.15-.06,3.22-.15,1.09-.09,2.05,.12,2.82,.95-.08,3.04-.41,6.09-.45,9.12-.13,8.49-.04,16.98-.03,25.46,0,.43-.09,.9,.46,1.11,1.71,.03,3.42,.07,5.13,.08,5.18,.02,10.35,.03,15.53,.04Z"/><path class="cls-4" d="M436.37,274.82c6.32,.57,12.67-.11,18.99,.49-.82,2.58-.59,5.25-.43,7.86,.19,3.09,1.09,6.19-.54,9.16,0,0,0,0,0,0-.69-.1-1.29,.21-1.92,.43-2.56,.5-5.15,.22-7.73,.27-2.79,.05-5.58-.02-8.37-.04,0-.55,0-1.1,0-1.91-.9,.87-1.79,1.23-2.82,1.25-6.1,.09-12.21-.02-18.32,.17-4.48,.13-8.98-.4-13.46-.57-7.29-.28-14.59-.05-21.88,.33-5.05,.27-10.13,.26-15.19-.18-1.62-.14-2.54-.73-2.64-1.78-.09-.91-.2-1.89,.04-2.74,.69-2.52,.28-4.95-.17-7.43-.31-1.66-.97-3.31-.39-5.04,0-.1,.02-.21,.03-.31,3.92,0,7.84,.34,11.76,.1,.08,.1,.14,.08,.2-.02,1.86-.17,3.74-.21,5.56-.76,.15,0,.29,0,.44,0,.78-.52,1.03-1.31,.97-2.17-.16-2.7-.14-5.39,0-8.09,.11-2.32,.93-3.64,2.81-4.02,.89-.18,1.79-.34,2.72-.35,1.63-.01,3.26-.16,4.89-.21,.74-.03,1.04-.5,1.27-1.08,.25-.62-.43-.53-.63-.81,.72,0,1.44,.01,2.17,.02,.09,1.39,.5,1.88,1.58,1.86,1.08-.02,1.58-.58,1.53-1.65,.4-.01,.79-.02,1.19-.03,0,0,.1,.05,.1,.05,.19,1.46,.38,2.92,.39,4.39,.03,3.63,0,7.25-.21,10.88-.12,2.03,.88,2.96,2.9,2.92,1.91-.03,3.82-.21,5.73-.24,2.39-.04,4.79,.02,7.19,0,2.46,0,3.1-.67,3.12-3.12,.05-4.41-.55-8.83,.28-13.22,.26,.44,.16,.93,.16,1.4,0,4.63,.02,9.25,0,13.88,0,.74,.09,1.04,1,.9,1.49-.23,3.01-.3,4.53-.32,3.99-.05,7.98-.03,11.97-.05,.42,0,.89,.17,1.24-.22Z"/><path class="cls-5" d="M466.84,221.66c-3.45-.03-6.89-.03-10.34-.09-1.06-.02-2.13-.13-3.17-.3-1.16-.19-1.47-.84-1.12-2.09,0-5.57,.01-11.14,.02-16.71,.12-.02,.24-.04,.36-.04,11.87-.01,23.73-.03,35.6-.03,1.04,0,1.71-.29,1.74-1.45,.04-1.36,.11-2.71,.17-4.06,.19-3.98,.55-7.97-.08-11.94l.35-1.21c5.8-.03,11.61-.06,17.41-.09,.81,0,1.59,.07,2.26,.56,.3,.53,.48,1.06,.48,1.69,0,11.28-.1,22.57,.23,33.85,0,.3,0,.59,0,.89-4.25,.46-8.52,.51-12.79,.43-1.79-.03-3.58-.17-5.38-.21-2.25-.05-2.91,.64-2.91,2.89,0,.48,0,.96,0,1.44,0,3.29-.01,6.57,0,9.86,0,.3-.11,.64,.2,.88,.02,.44,.11,.89,.03,1.31-.15,.78-.63,1.29-1.48,1.24-4.35-.27-8.69-.15-13.02,.32-1.18,.13-2.37,.15-3.56,.25-2.4,.22-3.54-.91-3.25-3.32,.36-3.03,.1-6.05,.2-9.08,.03-.92,.05-1.84,0-2.76-.05-1.07-.4-1.96-1.66-2.09-.08-.05-.17-.1-.25-.15Z"/><path class="cls-5" d="M201.06,105.78c-.39,.32-.84,.18-1.27,.17-6.69-.06-13.39-.13-20.08-.19-.08-.08-.16-.16-.24-.23,.08-3.58,.1-7.16,.26-10.74,.06-1.42,.36-2.81,.05-4.24-.29-1.3-1.17-1.74-2.32-1.79-1.19-.05-2.39,.17-3.57,.18-4.26,.03-8.51,.31-12.76,.54-2.39,.13-3.24-1.39-2.97-3.28,.26-1.8,.13-3.57,.18-5.36,0-.09-.01-.17-.02-.26,0-1.91,0-3.82,0-5.73,0-.41-.01-.81-.02-1.22-.2-1.16,.29-1.47,1.43-1.45,4.81,.05,9.63,0,14.44-.02,6.03,0,12.05,.02,18.08,.02,.22,0,.45-.12,.67-.18,2.16,0,4.31-.02,6.47,0,.8,0,1.1-.19,.82-1.05-.17-.51-.14-1.1-.11-1.65,.11-1.83-.17-3.65-.23-5.47,.35-.73,.32-1.46,0-2.2,0-.55,0-1.1-.01-1.64,.03-.03,.08-.06,.07-.08-.02-.06-.05-.12-.08-.18-.01-.72-.03-1.44-.04-2.17,.02-.08,.01-.15-.02-.22,.02-.56,.03-1.12,.05-1.68,1.67-.07,3.33-.28,5.01-.26,3.56,.04,7.11,.06,10.67-.04,1.33-.04,2.69,0,4-.4,1.49-.1,2.11-.55,1.91-1.82-.61-3.81,.15-7.56,.29-11.33,.05-1.44,.03-2.87-.25-4.29-.19-.97,.18-1.36,1.21-1.35,5.87,.07,11.73,0,17.6-.17,.71-.02,1.41-.01,2.03,.41,.19,1.01,.42,2.05,.21,3.06-.34,1.66-.18,3.32-.2,4.98-.04,3.34-.02,6.67-.03,10.01-5.98,.17-11.96,.33-17.95,.51-.47,.01-.95,.1-1.42,.16-.89-.07-1.03,.58-1.03,1.21,0,5.45,.02,10.89,.04,16.34-.11,.21-.32,.24-.52,.26-.33-.33-.79-.1-1.16-.25-.1-.07-.18-.18-.29-.19-4.82-.61-9.66-.73-14.49-.21-.83,.09-1.76-.11-2.53,.41-.64,.07-1.38-.08-1.71,.72-.31-.2-.28-.73-.72-.84-.07,.14-.13,.21-.13,.28-.02,4.15-.03,8.3-.04,12.45,0,.85,.37,1.45,1.17,1.76,.1,1.11,.2,2.22,.3,3.33-.22,.15-.24,.38-.29,.62-.43,1.99-.42,4-.51,6.02-.14,2.93,.57,5.84,.04,8.77Z"/><path class="cls-5" d="M58.81,183.73c0,10.98,.05,21.97-.04,32.95-.03,3.99-.17,7.98-.14,11.97,.02,2.59,.14,5.18,.24,7.77,.03,.66,.52,1.4-.49,1.8-.36,.14-.7,.16-1.05,.15-4.07-.1-8.14,.08-12.21,.26-1.98,.09-3.93,.51-5.92,.45-.37-.32-.57-.71-.53-1.21,.54-3.12,.3-6.28,.41-9.42,.21-6.14,.08-12.29,.08-18.44,0-3.27,.19-6.56-.09-9.82-.26-3.13,.16-6.2,.19-9.3,.02-1.95-.02-3.85-.49-5.74,.27-.98,1.06-1.42,1.93-1.42,6.04,0,12.08-.22,18.11,0Z"/><path class="cls-5" d="M98.45,291.83c-.14,.23,.51,.2,.17,.49-.32,.54-.86,.43-1.37,.48-3.65,.39-7.18-.93-10.8-.69-2.03,.13-4.06,.32-6.05-.12-.82-.18-1.29-.02-1.71,.6-.67-1.06-.73-2.25-.72-3.44,.03-4.26,.08-8.53,.12-12.79,0-.39-.05-.79-.07-1.18,0,0-.01,.01-.01,.01,.05-.05,.05-.1,0-.15,.07,.04,.14,.12,.21,.12,5.87-.02,11.73-.09,17.6,.11,1.95,.07,2.57-.64,2.59-2.59,.03-3.47,.05-6.94,.08-10.41,.34-.95,.17-1.95,.12-2.9-.06-1.15,.19-1.82,1.49-1.67,.96,0,1.92,.01,2.89,.02,.39,0,.77,0,1.16,0,3.93,0,7.86,0,11.79,0,.39,0,.77,0,1.16,0,.17,0,.35,0,.52-.01,.06,.04,.12,.06,.18,.08,.14,1.94,.15,3.89,.2,5.82,.09,3.69-.09,7.38-.12,11.07,0,.81-.28,1.17-1.13,1.11-.83-.06-1.67-.03-2.5-.03-1.19,.11-2.41-.24-3.58,.2-.49,.01-.97,.02-1.46,.04-1.67,.11-3.36-.25-5.02,.2-1.31,.09-2.61,.16-3.92,.28-.79,.07-1.36,.4-1.66,1.26-.33,.95-.15,1.89-.17,2.83,.03,.57-.18,1.16,.17,1.7,0,1.89,0,3.77,0,5.66-.05,.09-.1,.19-.14,.28,0,1.2,0,2.4,0,3.6Z"/><path class="cls-12" d="M302.29,18.19c0,4.99-.02,9.98,.02,14.97,0,.87-.22,1.14-1.13,1.17-12.25,.44-24.5,.12-36.75,.21-.42-2.35-.59-4.73-.78-7.11-.25-3.11-.15-6.22-.26-9.32,3.51-.01,7.03-.04,10.54-.04,8.98,0,17.96,0,26.95,0,.47,0,.96-.09,1.42,.11Z"/><path class="cls-2" d="M275.34,48.76c2.51,0,5.02-.02,7.53,0,1.79,.02,2.42,.64,2.31,2.4-.38,6.02,.01,12.05-.11,18.07-.01,.48,0,.96-.02,1.44-.09,1.69-.59,2.28-2.31,2.41-5.84,.46-11.69,.82-17.54,.06-1.58-.2-2.12-.72-2.21-2.41-.14-2.47-.26-4.94-.32-7.41-.1-3.99-.14-7.98-.19-11.96-.02-1.42,.27-1.85,1.64-1.98,3.73-.37,7.48-.42,11.22-.62Z"/><path class="cls-2" d="M99.08,59.8c0,3.11,.02,6.23,0,9.34-.03,3.03-1.42,4.33-4.45,4.31-4.55-.04-9.11-.06-13.66-.08-2.44-.01-3.06-.65-2.9-3.09,.36-5.5,.07-11.01,.12-16.51,0-.67-.13-1.35-.14-2.02-.03-1.9,.64-2.6,2.56-2.64,4.55-.09,9.1-.16,13.65-.25,1.16-.02,2.31-.11,3.47-.1,.92,0,1.43,.38,1.41,1.46-.06,3.19-.02,6.39-.02,9.58h-.03Z"/><path class="cls-5" d="M284.27,257.77c1.22,3.46,1.14,7.05,.88,10.63-.13,1.76-.08,3.5-.13,5.25-.05,1.6-.26,1.92-1.87,2.2-1.66,.28-3.35,.21-5.01,.09-4.03-.29-8.05-.06-12.08-.16-1.2-.03-2.39-.02-3.59-.02,.26-5.36,.79-10.71,.5-16.09-.04-.78-.31-1.57-.03-2.36,.09-.09,.19-.19,.28-.28,2.93,.9,5.99,.9,8.89,.36,2.69-.51,5.26-.52,7.89-.03,.1,.58,.56,.45,.94,.45,1.11,0,2.23-.02,3.34-.03Z"/><path class="cls-5" d="M118.08,72.18c.06,.04,.13,.05,.2,.05,1.38,.3,2.75,.34,4.13-.01,5.28,0,10.55,0,15.83,0,0,.82-.06,1.65,0,2.47,.08,1.23-.28,2.49,.2,3.7,.01,.57,.02,1.13,.04,1.7,.11,1.43-.27,2.88,.2,4.3,.07,.91,.34,1.78,.29,2.72-.09,1.53-.75,2.57-2.19,3.04-2.19,.72-4.45,.66-6.7,.4-2.74-.33-5.47-.83-8.22,0-.81,.24-1.73,.3-2.56-.14-.09-.2-.27-.25-.47-.26-.03-.16-.06-.31-.09-.47,0-1.66-.02-3.33-.03-4.99,.15-3.14,.2-6.27-.2-9.39-.07-.55,.11-1.3-.61-1.65,.05-.49-.26-1.03,.19-1.47Z"/><path class="cls-3" d="M502.35,256.16c.06-.68,.6-.53,1-.53,1.88-.01,3.75,0,5.63,0,.77,0,1.07,0,1.26-1.15,.79-4.65,.32-9.3,.5-13.95,.05-1.41,.91-2.17,2.44-2.17,4.71-.01,9.42-.01,14.13-.02,1.1-.05,1.85,.64,2.64,1.23-.21,2.46,.22,4.9,.24,7.36,.02,2.14-.16,4.27,.18,6.41,.18,1.16,.37,2.55-1.15,3.2-3.43,0-6.87,.11-10.3-.02-5.22-.21-10.45-.12-15.67-.17-.31,0-.65,.06-.91-.19Z"/><path class="cls-3" d="M361.56,274.76c0,.1-.02,.21-.03,.31-.62,.07-1.28-.23-1.88,.18-6.25-.08-12.51-.17-18.76-.25-.23-.92-.25-1.87-.25-2.81,.82-3.2,.97-6.42,.54-9.7-.14-1.1-.08-2.24-.02-3.35,.13-2.16,.83-2.8,2.99-2.8,5.07,0,10.14,0,15.22,.01-.08,4.34-.24,8.69-.2,13.03,.02,2.05,.31,4.15,2.38,5.37Z"/><path class="cls-3" d="M302.27,292.95c.35-2.42,1.27-4.78,.95-7.27-.23-1.75-.2-3.49-.2-5.23-.01-3.86,1.44-5.34,5.29-5.42,6.98,.08,13.96,.16,20.95,.25,.45,0,.97-.2,1.35,.24-1.07,.66-2.27,.59-3.42,.42-1.19-.18-2.36-.16-3.55-.15-.65-.03-1.36-.13-1.43,.83l-.02,.09s-.09,.02-.09,.02c-.59,.11-.81,.32-.84,.97-.09,2.05,.32,4.08,.36,6.11,.04,2.14,.71,4.28,.14,6.44-.1,.4-.66,.73-.26,1.24l-.02,.09s-.09,.02-.09,.02c-.36-.34-.46,0-.59,.23-.78,.67-1.74,.65-2.67,.7-2.14,.12-4.3,.06-6.42,.3-3.14,.36-6.28,.17-9.42,.12Z"/><path class="cls-5" d="M263.39,18.11c.11,3.11,0,6.22,.26,9.32,.19,2.38,.35,4.76,.78,7.11-.1,.06-.21,.12-.31,.18-1.15-.37-2.39-.44-3.51-.34-2.75,.24-5.49,.06-8.23,.17-2.52,.1-5-.23-7.39-1.01-.43-.14-.76-.06-1.13,.07-.02-4.7-.04-9.4-.05-14.1,0-.77,.33-1.3,1.19-1.34,.24-.01,.47-.08,.71-.09,5.78-.02,11.56-.04,17.34-.05,.12,0,.23,.04,.35,.07Z"/><path class="cls-3" d="M337.12,128.03c-7.47,.02-14.93,.08-22.4,.03-2.87-.02-5.73,.26-8.6,.25-2.36-.01-3.11-.75-3.11-3.05,0-5.31,.02-10.62,.03-15.93,1.77,.04,3.54,.08,5.31,.12,.91,.64,1.92,.85,3.03,.9,1.88,.08,3.72-.27,5.59-.27,1.87,0,3.14,.95,3.27,2.75,.14,1.97,.12,3.96-.06,5.95-.26,2.81-.34,5.62,.8,8.31,.19,.37,.52,.47,.9,.47,2.55-.02,5.11-.02,7.66-.1,2.53-.08,5.09-.04,7.59,.57Z"/><path class="cls-10" d="M42.53,275.35c.56,.35,1.18,.43,1.83,.42,3.08-.01,6.15,0,9.23,0,2.41,0,3.36,.77,3.91,3.1,.85,3.55,.76,7.08-.09,10.61-.36,1.5-1.36,2.52-2.89,2.57-4.74,.17-9.47,.04-14.14-.92,.25-3.6,.61-7.2-.3-10.78,0,1.03,0,2.06,0,3.1-.02-.03-.07-.07-.06-.1,.23-2.58-.74-5.02-.88-7.56,1.15,0,2.28-.12,3.39-.44Z"/><path class="cls-12" d="M103.21,18.07c1.57-.03,3.15-.06,4.72-.09,.2,.01,.41,0,.59,.04,1.68,.43,3.29,.77,5.1,.29,1.79-.48,2.66,.4,2.74,2.27,.04,.86,0,1.73-.12,2.61-.24,1.7-.36,3.45,1.29,4.65,.74,1.7,.51,3.49,.48,5.27-3.03,1.6-6.3,1.89-9.63,1.67-2.27-.15-4.53-.3-6.8-.22-1.16,.04-1.54-.47-1.53-1.58,.04-3.39,.01-6.79,.01-10.18q0-2.51,2.42-3.24c.23-.07,.5-.11,.66-.26,.39-.36,.76-.78,.06-1.23Z"/><path class="cls-12" d="M510.02,290.87c-3.5,.1-6.94,.75-10.41,1.12-1.1,.12-2.22,.36-3.32,.28-2.26-.16-3.45-1.54-3.53-3.87-.08-2.07,.05-4.13,.43-6.18,.19-1.05-.13-2.06-.32-3.07-.1-.52-.13-1.03-.1-1.54,.1-1.53,1.43-2.47,2.74-1.74,2.55,1.41,4.99,.86,7.48-.06,.81-.3,1.65-.51,2.48-.75,1.76,0,3.52,0,5.28,.01-.03,.24-.05,.48-.08,.71-.9-.04-.65,.63-.65,1.09,0,4.66,0,9.33,0,13.99Z"/><path class="cls-6" d="M320.97,127.09c-1.13-2.69-1.06-5.5-.8-8.31,.19-1.99,.2-3.98,.06-5.95-.13-1.81-1.4-2.74-3.27-2.75-1.87,0-3.71,.35-5.59,.27-1.11-.05-2.12-.26-3.03-.9,2.5-.23,5.01-.45,7.51-.68,1.08-.1,2.15,.06,3.22,.15,1.47,.12,1.76-.2,1.76-1.67,0-6.83-.02-13.66,0-20.5,.03-9.15,.1-18.29,.14-27.44,0-.56-.08-1.11-.14-1.67-.2-1.68,.77-2.66,2.57-2.03,0,1.16-.03,2.32,0,3.48,.07,3.35-.33,6.68-.26,10.04,.08,3.86,.33,7.71,.42,11.57,.05,2.35-.19,4.75-.51,7.12-.38,2.91-.75,5.82-1.16,8.72-.35,2.46,.11,4.65,1.05,6.84,.5,1.15,.67,2.37,.87,3.58,.14,.82,.55,1.13,1.33,.83,2.62-1.03,5.36-1.02,8.12-1.09,1.54-.04,3.1-.14,4.65-.21,1.4-.06,2.23-1.18,1.92-2.53-.1-.44-.12-.86-.14-1.3,0-3.11,0-6.22,0-9.33,.13-.32,.37-.48,.71-.5,.09,4.39,.18,8.78,.26,13.17,.04,2.2-.5,2.67-2.71,2.85-1.68,.13-3.33-.26-4.99-.16-3.39,.2-6.79,.17-10.18,.22-1.58,.02-1.81,.24-1.82,1.79,0,5.47-.01,10.94-.02,16.42Z"/><path class="cls-7" d="M219.54,54.95c-1.3,.4-2.67,.36-4,.4-3.55,.1-7.11,.08-10.67,.04-1.68-.02-3.34,.19-5.01,.26-12.66,0-25.32,0-37.98,0-.44,0-.88,.02-1.32,0-2.41-.12-3.63-1.37-3.63-3.78-.01-3.43-.03-6.87,.01-10.3,.01-.93-.17-1.82-.28-2.72-.11-.88-.94-1.31-1.97-.84-1.47,.67-2.83,.52-4.24-.07-.56-.23-1.15-.28-1.76-.28-6.59,.01-13.18,.03-19.77-.01-.86,0-1.7,.52-2.57,.04-.4-.22-.87-.41-.77-.92,.09-.46,.59-.29,.93-.29,2-.01,3.99,0,5.99-.01,.39,0,.81,.13,1.15-.18,3.04-.03,6.07-.04,9.11-.08,4.19-.05,8.38-.11,12.58-.18,.95-.02,1.88,.04,2.79,.33,.63,1.47,.53,3.03,.48,4.57-.14,3.7,.28,7.39,.26,11.08,0,1.35,.6,2.13,1.72,2.43,0,0-.03-.02-.03-.02,.03,.31,.25,.28,.46,.27,3.27,.22,6.54,.03,9.81,.03,15.37,.03,30.74,0,46.11,.02,.87,0,1.76-.08,2.6,.22Z"/><path class="cls-7" d="M359.66,275.25c.59-.4,1.25-.11,1.88-.18-.58,1.73,.09,3.38,.39,5.04,.46,2.47,.86,4.91,.17,7.43-.23,.86-.13,1.83-.04,2.74,.11,1.06,1.02,1.64,2.64,1.78,5.06,.44,10.14,.45,15.19,.18,7.3-.39,14.6-.61,21.88-.33,4.48,.17,8.98,.7,13.46,.57,6.11-.18,12.21-.07,18.32-.17,1.03-.02,1.92-.38,2.82-1.25,0,.81,0,1.36,0,1.91-2.76,.02-5.51,.05-8.27,.05-7.64,.01-15.27,.01-22.91,.02-2.74,0-5.48-.03-8.22,0-.61,0-1.26-.2-1.85,.16-4.95,0-9.9-.15-14.84,.01-5.42,.18-10.84-.05-16.26,.04-.75,.01-1.51-.12-2.25-.28-.8-.17-1.31-.67-1.48-1.52-.15-.75-.19-1.5-.2-2.26-.08-4.38-.18-8.77-.28-13.15,0-.27-.11-.54-.16-.81Z"/><path class="cls-7" d="M490.37,183.73c-.12,.4-.24,.8-.35,1.21-.12,0-.23,0-.35,0-.78-.41-1.64-.52-2.5-.52-15.09,0-30.17,0-45.26,0-1.63,.11-3.23-.41-4.87-.26-.34,.03-.57-.05-.62-.51-.46-4.4-1.48-8.74-1.63-13.18-.06-1.8,.23-3.63,.66-5.41,1.17,.19,1.87,.89,1.94,1.96,.02,.24,0,.48,0,.72-.08,4.78-.13,9.56-.26,14.34-.03,1.01,.28,1.24,1.26,1.24,15.42-.06,30.84-.09,46.27-.1,1.91,0,3.82,.17,5.71,.51Z"/><path class="cls-7" d="M103.21,18.07c.7,.44,.33,.86-.06,1.23-.16,.15-.43,.19-.66,.26q-2.42,.74-2.42,3.24c0,3.39,.03,6.79-.01,10.18-.01,1.11,.37,1.62,1.53,1.58,2.27-.08,4.54,.06,6.8,.22,3.33,.23,6.6-.07,9.63-1.67,.01,.75,.06,1.5,.03,2.25-.02,.56,.25,.68,.72,.61,.32,.09,.64,.19,.96,.28,.68,1.09,.61,2.15-.05,3.23-.35,.58-.41,1.16-.25,1.91,.19,.88-.1,1.86-.14,2.8-.02,.46-.18,.95,.17,1.38,.02,3.11,.05,6.23,.07,9.34-.32,0-.63,.01-.95,.02-.49-4.33,.14-8.67-.1-12.99-.1-1.76,0-3.56-.68-5.26-.03-.68-.56-.43-.89-.43-5.77,0-11.55,0-17.32,0-1.7-.77-1.92-1.22-1.73-3.15,.38-3.92,.5-7.85,.53-11.79,.02-2.74,.53-3.27,3.27-3.3,.52,0,1.03,.04,1.55,.06Z"/><path class="cls-7" d="M399.73,109.34c-2.13,.1-2.79-.64-2.96-2.73-.28-3.5-.14-7.01-.21-10.51-.02-.9,.41-1.75,.11-2.71-.37-1.18-1.07-1.75-2.23-1.76-3.71-.02-7.43-.05-11.14,.03-.82,.02-1.62,.13-2.46-.01-1.42-.24-2.23-1.01-2.24-2.46,0-1.21-.24-2.37-.59-3.51-.36-1.17,.1-2.18,.6-3.19,.41,.44,.17,.97,.21,1.46,.13,1.51,.2,3.03,.69,4.5,.16,.47,.23,.92,.88,.79l.09,.02s.02,.09,.02,.09c-.2,.32-.01,.47,.25,.59,.52,.31,1.08,.47,1.68,.54,3.5,.44,7,.29,10.48-.14,2.07-.26,3.95,.22,5.69,1.28,.61,.37,.91,1.02,1.17,1.7,.7,1.81,.21,3.63,.11,5.44-.02,.41-.13,.85-.13,1.28,0,3.11,0,6.21,0,9.32Z"/><path class="cls-7" d="M118.81,90.15c.2,.01,.38,.06,.47,.26-.22,.95-.86,1.22-1.78,1.21-5-.02-9.99-.02-14.99-.01-1.86,0-2.44,.58-2.44,2.4,0,5.04,0,10.07,0,15.11-1.04,.46-2.06,.34-3.05-.16,.99-.05,.78-.9,.86-1.43,.44-3.05,.6-6.12,.5-9.19-.05-1.52-.12-3.03-.13-4.55-.02-2.45,.7-3.22,3.16-3.36,2.59-.15,5.18-.16,7.78-.05,2.79,.12,5.59,.17,8.38,.26,.41-.17,.82-.33,1.24-.5Z"/><path class="cls-7" d="M529.95,239.57c-.8-.59-1.55-1.28-2.64-1.23,1.21-1.11,1.5-2.49,1.46-4.1-.09-3.11-.08-6.22-.01-9.33,.07-3.13-.86-3.11-3.28-3.29-1.37-.11-2.76,.24-4.15,.22-2.79-.05-5.58,0-8.37-.03-.9-.01-1.89,0-2.21-1.17,0-.3,0-.59,0-.89,.21-.27,.45-.26,.72-.1,2.77,.96,5.63,.92,8.51,.83,2.75-.09,5.51-.07,8.26-.05,.7,0,1.46,.01,1.95,.69,.22,.6,.22,1.23,.24,1.86,.04,1.19-.29,2.34-.27,3.54,.06,3.94,.03,7.88,.01,11.83,0,.41,.21,.88-.21,1.22Z"/><path class="cls-1" d="M242.31,54.45c0-3.34-.01-6.67,.03-10.01,.02-1.66-.14-3.32,.2-4.98,.21-1-.02-2.05-.21-3.06,.75,0,.98,.38,.98,1.13-.03,5.43,.11,10.86-.04,16.28-.49,17.54-.06,35.08-.23,52.61,0,.52,.21,.98,.22,1.49-.93-.46-.91-1.35-.92-2.18-.04-2.79-.03-5.57-.04-8.36-.56-1.09,.04-2.17,.04-3.26-.02-4.38,0-8.76,0-13.14,0-.47,.06-.96-.28-1.36,.35-.35,.28-.8,.28-1.23,0-7.25,0-14.51-.05-21.76,0-.73-.09-1.45,.03-2.18Z"/><path class="cls-1" d="M78.69,292.6c.42-.62,.89-.78,1.71-.6,1.99,.44,4.01,.26,6.05,.12,3.62-.24,7.16,1.08,10.8,.69,.51-.05,1.04,.06,1.37-.48,.17,.83,.83,.45,1.26,.45,12.06,.02,24.12-.14,36.17,.08,6.38,.12,12.75,.04,19.12,.21,1.17,.03,2.2-.46,3.33-.52-.54,.6-1.26,.73-2.02,.73-25.37,0-50.74,0-76.1,0-.65,0-1.32,.05-1.68-.68Z"/><path class="cls-7" d="M435.68,129.53c.06-.57-.21-1.17,.2-1.7,.09,.08,.18,.16,.27,.25,.47,1.14,.74,2.31,.72,3.56-.03,2.27-.44,4.52-.25,6.79,.13,1.52-.18,3.01-.27,4.51-.11,1.69-1.52,2.85-3.2,3.13-2.52,.43-5.07,.19-7.6,.38-2.61,.19-5.24,.33-7.87,.34,.21-1.04,.96-1.44,1.9-1.45,3.66-.02,7.32-.13,10.96,.32,1.66,.2,2.58-.25,3.41-1.76,1.02-1.85,1.13-3.94,1.44-5.97,.21-1.37,.32-2.75,.27-4.15,.36-1.42,.37-2.84,0-4.26Z"/><path class="cls-7" d="M330.6,275.52c-.39-.43-.9-.23-1.35-.24-6.98-.09-13.96-.17-20.95-.25,.71-.86,1.69-.94,2.7-.94,7.93,0,15.87-.03,23.8,.02,1.87,.01,3.53-.36,5.01-1.52,.24-.19,.47-.45,.83-.42,0,.94,.03,1.89,.25,2.81-1.19,.02-2.39,0-3.58,.07-2.24,.13-4.49,.09-6.71,.46Z"/><path class="cls-7" d="M38.76,185.15c.47,1.89,.51,3.79,.49,5.74-.03,3.1-.45,6.18-.19,9.3,.27,3.25,.09,6.54,.09,9.82,0,6.15,.13,12.3-.08,18.44-.11,3.14,.13,6.3-.41,9.42-.67-2.34-.45-4.73-.34-7.11,.02-.44,.07-.88,.07-1.31,.02-13.37,.04-26.75,.08-40.12,0-1.39,.19-2.78,.29-4.18Z"/><path class="cls-1" d="M511.46,219.65c-.27-.16-.51-.17-.72,.1-.32-11.28-.23-22.56-.23-33.85,0-.63-.18-1.17-.48-1.69,1.29,.35,1.43,1.36,1.43,2.45,0,9.76,0,19.52,0,29.28,0,1.24,0,2.47,0,3.71Z"/><path class="cls-1" d="M417.69,146.79c2.63-.01,5.26-.15,7.87-.34,2.53-.18,5.08,.05,7.6-.38,1.68-.29,3.09-1.44,3.2-3.13,.09-1.5,.4-2.99,.27-4.51-.19-2.27,.22-4.52,.25-6.79,.02-1.25-.25-2.42-.72-3.56,1.1,.51,1.11,1.66,1.14,2.52,.13,4.02-.12,8.04-.27,12.05-.11,3.09-1.21,3.74-4.16,3.83-3.38,.11-6.75,.37-10.14,.34-1.16,0-2.36,.19-3.54,.18-1.17-.01-.91,1.04-.99,1.56-.54,3.74-.38,7.48,.18,11.21,.04,.23,0,.48,.01,.72,.01,1.42-.1,2.84,.23,4.24-.88,.13-.92-.41-.96-1.09-.13-2.59-.17-5.2-.51-7.77-.39-2.93-.16-5.8,.31-8.68,.02-.14,.15-.27,.22-.41Z"/><path class="cls-2" d="M243.85,33.62c.37-.14,.7-.22,1.13-.07,2.4,.79,4.87,1.11,7.39,1.01,2.74-.11,5.48,.07,8.23-.17,1.12-.1,2.37-.03,3.51,.34,0,.17,0,.33,0,.5-6.36,.28-12.73,.26-19.1,.28-1.16,0-1.34-.33-1.16-1.88Z"/><path class="cls-1" d="M529.95,239.57c.42-.34,.21-.82,.21-1.22,.02-3.94,.05-7.88-.01-11.83-.02-1.2,.31-2.35,.27-3.54-.02-.63-.02-1.26-.24-1.86,.69,.08,.71,.6,.71,1.1,0,3.91,.21,7.83-.05,11.71-.27,3.94-.23,7.87-.11,11.78,.08,2.41,.1,4.83,.16,7.24,.02,.63,.4,1.21,.25,1.85-.3,1.26-.21,1.76-1.91,1.73,1.52-.66,1.33-2.04,1.15-3.2-.34-2.14-.16-4.28-.18-6.41-.03-2.46-.45-4.9-.24-7.36Z"/><path class="cls-7" d="M117.55,27.84c-1.66-1.21-1.54-2.95-1.29-4.65,.13-.88,.16-1.74,.12-2.61-.08-1.87-.95-2.74-2.74-2.27-1.81,.48-3.42,.14-5.1-.29-.19-.05-.4-.03-.59-.04,1.12-.6,2.36-.65,3.58-.69,1.51-.04,3.03-.02,4.54-.04,.72-.01,1.34,.15,1.78,.77-.02,1.28-.03,2.56-.05,3.84-1.01,1.24-.76,2.64-.48,4.03,.53,.59,.78,1.22,.24,1.94Z"/><path class="cls-1" d="M78,220.13c-.55-.21-.46-.68-.46-1.11,0-8.49-.1-16.98,.03-25.46,.05-3.04,.38-6.08,.45-9.12,.95,1.32,.35,2.79,.37,4.2,0,.27-.12,.6-.14,.92-.37,7.48-.21,14.96-.24,22.44,0,2.71,0,5.42-.01,8.14Z"/><path class="cls-1" d="M117.78,21.86c.02-1.28,.03-2.56,.05-3.84,.69,.03,.96,.42,.96,1.07,0,1.99,.22,4.02-.07,5.97-.27,1.85,.13,3.57,.28,5.35,.15,1.85-.39,3.7-.22,5.56-.47,.07-.74-.05-.72-.61,.03-.75-.02-1.5-.03-2.25,.03-1.77,.26-3.56-.48-5.27,.54-.72,.29-1.35-.24-1.94,.48-.48,.75-1.09,.74-1.75-.01-.76-.17-1.52-.26-2.28Z"/><path class="cls-1" d="M160.57,54.42c-1.12-.3-1.72-1.08-1.72-2.43,.01-3.7-.4-7.38-.26-11.08,.06-1.54,.16-3.1-.48-4.57,.88,.15,1.21,.71,1.21,1.56,0,3.8,.38,7.6,.26,11.41-.04,1.13,.24,2.26,.27,3.4,.01,.57,.47,1.14,.72,1.71Z"/><path class="cls-1" d="M418.63,127.33c-.96-.28-1.2-.98-1.21-1.9-.03-1.47,.16-2.92,.24-4.38,.19-3.26-.4-6.5-.22-9.76,.03-.6-.37-1.03-.5-1.57,1.15,.5,1.41,1.53,1.43,2.6,.05,3.56,.1,7.11-.02,10.67-.05,1.48-.42,2.94,.28,4.35Z"/><path class="cls-5" d="M339.98,72.46c-.45-1.08-.41-2.25-.51-3.36-.16-1.82-.02-3.67-.06-5.51-.01-.54,.19-1,.32-1.49,.33-1.26,.33-2.52,0-3.78-.23-.87-.34-1.75-.26-2.65,.24-.01,.48-.03,.71-.04,.08,.09,.17,.17,.25,.26,0,5.69,0,11.38,0,17.26-.25-.36-.36-.52-.46-.68Z"/><path class="cls-10" d="M118.81,90.15c-.41,.17-.82,.33-1.24,.5,.31-3.21,.23-6.43,.33-9.65,.05-1.47,.12-2.94,.16-4.4,.03-.99,.07-1.98-.17-2.95,.72,.35,.54,1.1,.61,1.65,.4,3.12,.35,6.26,.2,9.39-.24,1.66-.29,3.33,.03,4.99,.03,.16,.06,.31,.09,.47Z"/><path class="cls-1" d="M467.1,275.26c.31-.4,.74-.2,1.11-.2,1.64-.02,3.27,0,4.91-.01,1.22,0,1.73-.73,1.53-1.91-.39-2.28-.6-4.56-.43-6.91,.14-1.92,.15-3.87-.12-5.82-.33-2.37-.07-4.13,3.32-4.07,2.55,.05,5.11,.02,7.66,.03-.29,.44-.73,.21-1.09,.21-2.04,.02-4.08,.07-6.11,0-3.35-.12-3.59,2.04-3.27,4.27,.23,1.65,.21,3.3,0,4.96-.18,1.38-.18,2.78,.01,4.16,.18,1.31,.31,2.62,.59,3.92,.2,.94-.44,1.42-1.4,1.41-2.24-.01-4.47-.02-6.71-.03Z"/><path class="cls-7" d="M340.2,55.62c-.24,.01-.48,.03-.71,.04-4.39,0-8.77,0-13.16-.02-.42,0-.89,.15-1.24-.23,1.24-.46,2.57-.47,3.86-.61,3.45-.38,6.9-.34,10.31,.39,.34,.07,.71,.11,.95,.43Z"/><path class="cls-1" d="M380.38,89.23c-.65,.13-.73-.31-.88-.79-.49-1.46-.56-2.98-.69-4.5-.04-.49,.2-1.03-.21-1.46,.06-2.09-.22-4.18,.19-6.26,.14-.68,.08-1.41-.2-2.08,.91,.51,1.28,1.83,.91,3.4-.34,1.48-.27,2.93-.02,4.42,.23,1.39,0,2.81,.24,4.23,.17,1.03,.34,2.05,.65,3.04Z"/><path class="cls-1" d="M339.98,72.46c.11,.16,.22,.32,.46,.68,0-5.89,0-11.58,0-17.26,.85,.07,.44,.73,.44,1.1,.03,5.3,.02,10.6,.02,15.91,0,.24,0,.48,.01,.72-.81,.03-1.1-.37-.94-1.14Z"/><path class="cls-1" d="M454.39,292.33c1.63-2.97,.73-6.07,.54-9.16-.16-2.61-.39-5.28,.43-7.86,.23,0,.47,0,.7,0-.71,2.03-.96,4.05-.8,6.25,.21,2.82,.8,5.64,.53,8.48-.09,.91-.19,1.99-1.39,2.29Z"/><path class="cls-1" d="M321.48,291.49c-.4-.51,.16-.84,.26-1.24,.57-2.17-.09-4.3-.14-6.44-.04-2.03-.45-4.06-.36-6.11,.03-.65,.25-.86,.84-.97-1.11,1.77-.38,3.64-.26,5.46,.18,2.71,.47,5.41,.35,8.13-.02,.47-.35,.85-.7,1.18Z"/><path class="cls-1" d="M99.6,36.24c5.77,0,11.55-.01,17.32,0,.33,0,.86-.24,.89,.43-5.07-.45-10.16-.16-15.23-.15-1.03,0-2.01,.13-2.98-.28Z"/><path class="cls-7" d="M359.61,73.46c-1.14,.84-2.28,1.68-3.82,1.12-.29-.11-.8-.16-.66-.67,.11-.41,.52-.26,.82-.28,1.05-.1,2.13,.19,3.17-.17,.16,0,.33,0,.49,0Z"/><path class="cls-1" d="M40.57,256.37c4.95,0,9.9-.02,14.84-.02,.26,0,.57-.11,.75,.21-4.99,.01-9.99,.02-14.98,.03-.22,0-.49,.09-.61-.22Z"/><path class="cls-7" d="M345.71,73.64c-.52,1.11-1.41,1.5-2.45,1.02-.52-.25-1.07-.51-1.4-1.03,1.28-.13,2.57-.12,3.85,.01Z"/><path class="cls-1" d="M242.77,269.52c-.06-.05-.16-.11-.16-.16-.01-3.53-.02-7.06-.01-10.59,0-.08,.14-.17,.21-.25-.01,3.67-.02,7.33-.04,11Z"/><path class="cls-1" d="M78,275.19s.01-.01,.01-.01c-3.59,.24-7.19,.08-10.79,.08,.14-.28,.4-.21,.63-.21,3.19,0,6.38,0,9.58,0,.19,0,.38,.09,.57,.14Z"/><path class="cls-1" d="M395.13,293.21c.59-.36,1.23-.16,1.85-.16,2.74-.02,5.48,0,8.22,0-.05,.18-.19,.22-.36,.22-3.23-.02-6.47-.04-9.7-.06Z"/><path class="cls-1" d="M491.09,256.32c.18-.32,.49-.21,.75-.21,3.11,0,6.21,.01,9.32,.02-.11,.32-.39,.22-.61,.22-3.15,0-6.31-.02-9.46-.03Z"/><path class="cls-1" d="M287.88,35.28c2.26,0,4.53,.01,6.79,.02-1.73,.47-3.5,.12-5.25,.19-.5,.02-1.09,.28-1.55-.2Z"/><path class="cls-9" d="M306.23,35.29c1.57,.05,3.17-.36,4.72,.23-1.57-.06-3.17,.35-4.72-.23Z"/><path class="cls-1" d="M61.45,275.31c1.28,0,2.57,0,3.85,0-1.28,.37-2.57,.37-3.85,0Z"/><path class="cls-1" d="M158.57,284.63c-.45-1.17-.1-2.39-.19-3.58,.49,1.17,.12,2.39,.19,3.58Z"/><path class="cls-2" d="M158.33,279.83c-.37-.93-.34-1.81,.32-2.61-.11,.87-.21,1.74-.32,2.61Z"/><path class="cls-1" d="M158.6,292.44c-.08-.94,.43-1.82,.27-2.76,.41,.97,.4,1.9-.27,2.76Z"/><path class="cls-1" d="M452.47,292.76c.62-.22,1.22-.53,1.92-.43-.58,.43-1.22,.54-1.92,.43Z"/><path class="cls-1" d="M322.2,276.62c.08-.97,.78-.86,1.43-.83-.41,.39-1.1,.31-1.43,.83Z"/><path class="cls-3" d="M246.57,293.12c.61-.1,1.21-.1,1.82,0-.61,.24-1.21,.24-1.82,0Z"/><path class="cls-2" d="M158.63,277.26c-.03-.42,.07-.7,.58-.53-.23,.14-.03,.74-.58,.53Z"/><path class="cls-1" d="M161,54.67c-.21,0-.44,.04-.46-.27,.3-.16,.36,.09,.46,.27Z"/><path class="cls-1" d="M320.78,291.83c.14-.23,.23-.57,.59-.23-.16,.17-.34,.3-.59,.23Z"/><path class="cls-1" d="M380.73,89.92c-.26-.12-.45-.27-.25-.59,.19,.15,.3,.34,.25,.59Z"/><path class="cls-5" d="M243.55,221.31c-1.88,.84-2.1,1.32-1.89,4.12,0,2.55,0,5.1,0,7.65,0,.64,0,1.29,0,1.93,0,.08-.01,.16-.02,.24,0,.4-.01,.8-.02,1.2-.03,1.54-.62,2.13-2.17,2.17-1.15,0-2.3-.06-3.44,0-1.08,.06-2.2-.27-3.25,.2-.41,.01-.81,.03-1.22,.04-1.31,0-2.61-.05-3.92,0-1.01,.04-2.04-.25-3.02,.2-2.24,.71-2.44,1-2.42,3.29,.03,3.04,.04,6.07,0,9.11-.01,.92,.36,1.79,.13,2.73-.44,1.8-.85,2.17-2.68,2.17-.28,0-.56-.02-.84-.03-.28-.34-.67-.2-1.01-.2-12.13,0-24.26,0-36.39,0-1.25-.12-1.67-.99-1.66-2.06,.02-2.27,.15-4.54,.19-6.81,.04-1.88,.03-3.75,.04-5.63,0-2.05-.14-2.27-1.94-3.01-.22-.33-.56-.24-.86-.24-4.16,0-8.33,0-12.49,0-.27,0-.56-.06-.76,.21-1.37-.17-2.71,.48-4.12,.06-1.15-.34-1.87-1.06-1.9-2.36-.04-2.11,.32-4.2,.27-6.32-.05-1.99-.12-3.98,.17-5.96,.15-1.04,.08-2.09-1.15-2.56-.27-.54-.77-.32-1.17-.33-5.45-.01-10.9,0-16.36,0-1.03-.24-1.17-1.05-1.22-1.93-.11-1.88,.27-3.73,.26-5.6,0-3.03-.05-6.06,0-9.09,.04-2.53-.46-2.55-2.78-2.79-1.15-.12-2.31-.04-3.47-.05-.28-.33-.66-.2-1-.2-3.98,0-7.95,0-11.93,0-1.18-.2-1.9-1.15-1.89-2.73,0-1.63,.17-3.26,.21-4.89,.05-2.03-.09-4.06-.2-6.09-.22-3.9,1.3-3.75,3.9-3.99,1.62-.15,3.27,.01,4.91-.05,4.5-.16,9-.37,13.49-.56,.55,.47,1.24,.55,1.9,.55,12.23,.02,24.46,.02,36.69,.03,9.5,0,18.99-.01,28.49-.03,3.79,0,7.58-.05,11.37-.08,.5-.03,1.11,.39,1.41-.38,.74,.2,1.65-.42,2.24,.49-.24,1.16,.14,2.29,.14,3.44-.02,4.22,0,8.45,.02,12.67,0,1.77,.61,2.4,2.36,2.37,5.69-.08,11.39-.19,17.08-.3,4.41,.53,8.84,.61,13.26,.46,1.79-.06,3.58-.19,5.38-.19,3.29,0,4.14,.79,3.86,4.04-.32,3.71-.12,7.42-.18,11.13-.01,.83,.04,1.67-.24,2.49-.24,.69-.58,1.2-1.37,1.27-5.84,0-11.69,0-17.53,.01-.41,0-.88-.17-1.24,.2Z"/><path class="cls-15" d="M98.48,262.28c-.03,3.47-.05,6.94-.08,10.41-.02,1.94-.64,2.65-2.59,2.59-5.87-.21-11.73-.14-17.6-.11-.07,0-.14-.08-.21-.12-.74-3.22-.67-6.47-.59-9.75,.15-5.94,.08-11.89,.17-17.83,.03-1.87,.22-3.74,.4-5.6,.19-1.98,.84-2.57,2.85-2.57,4.87-.02,9.74,0,14.61,0,2.47,0,2.99-.53,2.98-3.03-.02-4.75-.04-9.5-.06-14.25,0-.6-.03-1.2,.26-1.75,.91,.32,1.88,.35,2.82,.35,4.15,0,8.3,.16,12.44-.22,1.07-.1,2.08,.16,3.09,.47,.2,.17,.4,.34,.59,.5,0,0,0,0,0,0,.27,.84,.75,1.64,.72,2.53-.07,2.78,.39,5.53,.27,8.31-.08,1.71-.02,3.43-.01,5.14,0,.84,.25,1.54,1.18,1.76,0,0,0,0,0,0,.25,.42,.63,.16,.96,.19,2.73,0,5.46,0,8.19,0,1.29-.04,2.59,.25,3.87-.17,.85,0,1.7,0,2.55,0,.11,.22,.31,.2,.51,.2,3.05,0,6.1,0,9.15,0,.19,0,.4,.02,.51-.2,2.78,.12,5.57-.08,8.35,.22,1.09,.58,1.48,1.47,1.46,2.72-.06,3.81-.04,7.63,0,11.44,.01,1.22-.05,2.41-.49,3.55-.63,.52-1.38,.79-2.16,1.01-.47-.42-1.04-.31-1.59-.31-10.14,0-20.28,0-30.43,0q-2.73,0-2.73-2.75c0-4.23-.01-8.46-.04-12.69-.01-1.99-.51-2.54-2.46-2.81-.43-.06-.87-.12-1.31-.1-3.3,.13-6.61,.28-9.91,.42-.96-.02-1.9-.04-2.86-.18-1.68-.23-2.64,.55-2.96,2.21-.28,1.48,.09,2.94,.09,4.41,0,5.34,.04,10.68,.07,16.02Z"/><path class="cls-14" d="M104.14,239.81c3.3-.14,6.61-.29,9.91-.42,.43-.02,.87,.04,1.31,.1,1.95,.28,2.45,.83,2.46,2.81,.03,4.23,.03,8.46,.04,12.69q0,2.75,2.73,2.75c10.14,0,20.28,0,30.43,0,.55,0,1.12-.11,1.59,.31,.04,.48,.33,.69,.78,.67,1.09-.04,2.05,.31,2.92,.96,.2,.25,.41,.49,.61,.74h-.01c.77,2.19,.36,4.51,.69,6.77,.23,1.6-.09,3.28,.54,4.84,.23,.56,.12,1.05-.03,1.57,0,0,.01-.01,.01-.01-.12,.17-.25,.33-.37,.5-.5,.11-.89,.43-1.4,.57-1.07,.3-1.7-.13-2.15-1-.35-.67-.63-1.37-.97-2.11-2.13,2.8-5.15,3.43-8.37,3.77-2.8,.29-5.64,.09-8.39,.89-1.2,.35-2.27,.88-3.29,1.57-.39,.4-.32,.93-.22,1.36,.35,1.49,.59,2.98,.23,4.5-.44,.76-1.11,1.22-1.91,1.55-.46,.19-.99,.22-1.01,.96-.02,.75,.15,1.34,.8,1.72,.75,.45,1.54,.84,2.27,1.32,.99,.64,.95,.84-.12,1.39-.44,.23-.89,.29-1.38,.29-9.19,0-18.37,0-27.56-.03-1.22,0-2.41-.23-3.67-.05-.91,.13-1.23,1.2-2.18,1.02,0-1.2,0-2.4,0-3.6,.05-.09,.1-.19,.14-.28,0-1.89,0-3.77,0-5.66-.02-.57,.22-1.17-.17-1.7,.02-.94-.16-1.87,.17-2.83,.3-.86,.86-1.19,1.66-1.26,1.3-.12,2.61-.19,3.92-.28,1.67-.08,3.36,.31,5.02-.2,.49-.01,.97-.02,1.46-.04,1.19-.08,2.41,.31,3.58-.2,.83,0,1.67-.03,2.5,.03,.85,.06,1.12-.3,1.13-1.11,.04-3.69,.21-7.39,.12-11.07-.05-1.94-.05-3.89-.2-5.82-.02-.11-.07-.17-.18-.08-.17,0-.35,0-.52,.01-.39-.26-.78-.26-1.16,0-3.93,0-7.86,0-11.78,0-.38-.27-.77-.27-1.16,0-.96,0-1.92-.01-2.89-.02-.14-3.62,.19-7.25-.23-10.87-.12-1.02-.1-2.09,.09-3.09,.43-2.28,2.19-3.26,4.19-3.93Z"/><path class="cls-15" d="M321.88,238.41c-.05,.23-.11,.46-.16,.69-11.69,0-23.39-.01-35.08-.02-.52,0-1.04-.03-1.55-.05,.07-2.98,.15-5.95,.21-8.93,.05-2.51-.21-4.99-.81-7.44-.35-1.43-.11-1.83,1.26-2.31,.26,.05,.52,.07,.75-.11,5.5-.04,11-.07,16.5-.11,.1,.06,.2,.17,.3,.17,5.27,.02,10.54,.1,15.8,0,2.08-.04,3.11-1.62,2.69-3.64-.6-2.9-.88-5.82-.79-8.78,.07-2.31,.15-4.62,.23-6.93,0,0,0,0,0,0,.48-.08,.95-.16,1.43-.25,5.02,.05,10.01-.59,15.04-.51,.72,.01,1.52-.15,1.96-.91,.1-1.18,.38-2.34,.29-3.54-.2-2.8-.44-5.6,0-8.4,.03-.18-.21-.8,.41-.34,.26,6.37,.58,12.73,.76,19.1,.14,4.77,.46,9.56-.67,14.28-.77,.37-1.55,0-2.32,0-1,0-1.94,.16-2.83,.64-.54-.01-1.09-.03-1.63-.04-1.74-.24-3.49-.09-5.24-.08-1.55-.09-3.09-.19-4.64-.25-1.5-.06-2.07,.46-2.08,1.93-.01,3.18,.01,6.36,.02,9.54-.01,.56-.03,1.12-.04,1.68-1.07,1.57-.28,3.08,.16,4.6Z"/><path class="cls-12" d="M178.51,183.71c-12.23,0-24.46,0-36.69-.03-.67,0-1.35-.07-1.9-.55-1.16-3.16-1.45-6.45-1.19-9.76,.18-2.31,.2-4.61,.2-6.92,0-.65,.28-1.03,.89-1.24,.54-.19,1.09-.22,1.65-.22,11.47,0,22.93,0,34.4,0,2.05,0,2.65,.6,2.65,2.63,0,5.11,0,10.22,0,15.33,0,.25,0,.5-.01,.75Z"/><path class="cls-5" d="M285.08,239.03c.52,.02,1.04,.05,1.55,.05,11.69,0,23.39,.01,35.08,.02,0,3.59,0,7.19,0,10.78,0,.92,.04,1.82,.18,2.74,.36,2.5-.71,3.71-3.23,3.71-4.59,0-9.19,0-13.78,0s-9.03,.02-13.54,0c-2.36-.01-4.69,.27-6.99,.77-.02-.32-.05-.63-.05-.95,0-4.74-.01-9.48,0-14.21,0-.89-.05-1.71-1.17-1.89-.02-.31-.04-.62-.06-.94,.67-.03,1.34-.05,2-.08Z"/><path class="cls-12" d="M241.61,201.89c-5.69,.1-11.38,.21-17.08,.3-1.75,.03-2.35-.6-2.36-2.37-.02-4.22-.04-8.45-.02-12.67,0-1.15-.37-2.29-.14-3.44,5.12,0,10.24-.03,15.35,0,1.06,0,2.07-.35,3.19-.09,1.17,.28,1.56,.9,1.51,1.91-.11,2.26-.38,4.52-.44,6.78-.08,3.2-.02,6.39-.02,9.59Z"/><path class="cls-3" d="M321.24,200.96c-.08,2.31-.16,4.62-.23,6.93-.09,2.96,.19,5.88,.79,8.78,.42,2.02-.62,3.6-2.69,3.64-5.27,.09-10.54,.01-15.8,0-.1,0-.2-.11-.3-.17,0-3.23,0-6.47,.01-9.7,.01-2.12-.2-4.2-.65-6.27-.4-1.84,.36-2.8,2.24-2.97,5.54-.5,11.09-.08,16.63-.23Z"/><path class="cls-15" d="M283.07,239.11c.02,.31,.04,.62,.06,.94-.07,.95-.2,1.91-.2,2.86-.02,3.75-.28,7.49-.17,11.24,.07,2.5-.48,3.04-2.77,3.21-2.63-.49-5.19-.48-7.89,.03-2.9,.55-5.96,.55-8.89-.36,0-4.74-.04-9.48-.01-14.22,0-1.86,.88-2.9,2.57-2.98,5.76-.28,11.53-.48,17.3-.72Z"/><path class="cls-3" d="M340.37,187.01c-.61-.46-.38,.16-.41,.34-.45,2.8-.2,5.6,0,8.4,.08,1.2-.19,2.36-.29,3.54-4.71,0-9.42-.05-14.13,.02-1.09,.01-2.39-.03-2.86,1.4-.48,.08-.95,.16-1.43,.25,.03-6.23-.39-12.45-.23-18.68,3.51-.01,7.03-.02,10.54-.03,3.04,0,6.07,0,9.11,0,.12,.25,.24,.49,.36,.74-.67,1.27-1.01,2.6-.66,4.04Z"/><path class="cls-13" d="M178.51,183.71c0-.25,0-.5,.01-.75,6.07,0,12.16,.21,18.22-.04,6.83-.28,13.65-.03,20.47-.18,.82-.02,1.59,.11,2.31,.48-.29,.43-.84,.06-1.16,.38-3.79,.03-7.58,.08-11.37,.08-9.5,.02-18.99,.02-28.49,.03Z"/><path class="cls-13" d="M190.49,274.79c-2.22,.32-4.46,.12-6.69,.19-2.95,.09-5.9,.02-8.86,.03,3.84-1.18,7.76-1.06,11.69-.73,1.3,.11,2.61,.07,3.86,.51Z"/><path class="cls-1" d="M181.39,256.12c12.13,0,24.26,0,36.39,0,.34,0,.73-.13,1.01,.2-12.22,0-24.44,.02-36.66,.03-.26,0-.57,.1-.74-.23Z"/><path class="cls-1" d="M154.77,257.05c.44-1.15,.5-2.33,.49-3.55-.03-3.81-.05-7.63,0-11.44,.02-1.24-.37-2.14-1.46-2.72,1.32,.09,1.84,.41,1.89,2.56,.09,3.62,.08,7.25-.21,10.86-.08,1.04,.42,2.09,0,3.15-.17,.44-.22,.92-.73,1.14Z"/><path class="cls-1" d="M119.73,239.1c-.94-.22-1.18-.92-1.18-1.76,0-1.71-.06-3.43,.01-5.14,.13-2.78-.34-5.54-.27-8.31,.02-.89-.45-1.7-.72-2.53,1.02,.02,.86,.93,.94,1.46,.23,1.61,.34,3.23,.29,4.87-.03,1.26-.13,2.54,.21,3.8,.23,.87-.22,1.72-.23,2.59-.02,1.75-.14,3.51,.95,5.04Z"/><path class="cls-1" d="M158.11,273.61c.16-.52,.26-1,.03-1.57-.63-1.55-.31-3.24-.54-4.84-.33-2.26,.07-4.58-.69-6.78,.82,.14,.74,.88,.7,1.35-.23,2.78,.73,5.48,.53,8.26-.07,.94,.58,1.8,.45,2.77-.04,.32,.25,.89-.48,.82Z"/><path class="cls-1" d="M243.55,221.31c.36-.38,.83-.2,1.24-.2,5.84-.01,11.69,0,17.53-.01-.23,.3-.57,.24-.88,.24-5.96,0-11.93-.02-17.89-.03Z"/><path class="cls-1" d="M139.65,221.11c5.45,0,10.9-.01,16.36,0,.4,0,.9-.21,1.17,.33-1.78-.21-3.56-.08-5.35-.09-3.65-.02-7.31,0-10.96-.02-.4,0-.88,.21-1.21-.22Z"/><path class="cls-1" d="M163.91,238.57c.2-.27,.49-.21,.76-.21,4.16,0,8.33,0,12.49,0,.3,0,.65-.1,.86,.24-4.71-.01-9.41-.02-14.12-.03Z"/><path class="cls-1" d="M119.5,201.45c3.98,0,7.95,0,11.93,0,.34,0,.72-.13,1,.2-4.06,0-8.13,.02-12.19,.03-.26,0-.57,.1-.74-.23Z"/><path class="cls-1" d="M145.45,239.12c-.11,.22-.31,.2-.51,.2-3.05,0-6.1,0-9.15,0-.19,0-.4,.02-.51-.2,3.39,0,6.77,0,10.16,0Z"/><path class="cls-8" d="M241.66,233.08c0-2.55,0-5.1,0-7.65,.42,1.08,.18,2.2,.17,3.29-.02,1.45,.25,2.93-.17,4.36Z"/><path class="cls-1" d="M224.6,239.05c.98-.44,2.01-.16,3.02-.2,1.3-.05,2.61,0,3.92,0-.55,.47-1.21,.21-1.81,.22-1.71,.03-3.42,0-5.12-.02Z"/><path class="cls-1" d="M133.19,283.65c.36-1.52,.12-3.01-.23-4.5-.1-.43-.18-.96,.22-1.36,.16,1.5,.33,3,.47,4.5,.05,.51,.01,1.01-.46,1.35Z"/><path class="cls-1" d="M232.75,238.81c1.06-.47,2.17-.14,3.25-.2,1.14-.06,2.29,0,3.44,0-.64,.49-1.37,.2-2.05,.22-1.55,.04-3.1,0-4.65-.01Z"/><path class="cls-1" d="M132.74,239.12c-1.27,.42-2.58,.13-3.87,.17,1.27-.42,2.58-.13,3.87-.17Z"/><path class="cls-9" d="M218.37,183.59c.33-.31,.87,.05,1.16-.38,.08,0,.16,0,.25,0-.29,.77-.91,.35-1.41,.38Z"/><path class="cls-1" d="M120.69,239.29c-.33-.03-.71,.23-.96-.19,.35-.11,.69-.1,.96,.19Z"/><path class="cls-1" d="M156.93,260.44c-.2-.25-.41-.49-.61-.74,.51,0,.76,.2,.61,.74Z"/><path class="cls-3" d="M286.5,220.24c-.23,.19-.49,.16-.75,.11,.22-.23,.48-.21,.75-.11Z"/><path class="cls-1" d="M117.57,221.36c-.2-.17-.4-.34-.59-.5,.29,.06,.73-.05,.59,.5Z"/><path class="cls-1" d="M157.75,274.1c.12-.17,.25-.33,.37-.5,.16,.38-.13,.42-.37,.5Z"/><path class="cls-8" d="M241.63,235.25c0-.08,.01-.16,.02-.24,.02,.06,.05,.11,.06,.17,0,.02-.05,.04-.08,.06Z"/><path class="cls-3" d="M40.08,283.45v-3.1c.91,3.58,.55,7.18,.3,10.78-.08,.07-.16,.13-.24,.2-.02-2.63-.04-5.25-.05-7.88Z"/><path class="cls-3" d="M97.45,129.88c.41,.46,.31,1.05,.34,1.57,.14,2.28,.22,4.57,.31,6.86,.02,.5,.11,1.03-.23,1.49-.35,0-.91,.53-.91-.35,.02-3.2-.68-6.43,.48-9.57Z"/><path class="cls-3" d="M510.02,290.87c0-4.66-.01-9.33,0-13.99,0-.46-.25-1.13,.65-1.09-.01,.8-.03,1.61-.04,2.41-.26,2.23-.12,4.46-.07,6.69-.02,2.15-.05,4.3-.07,6.45-.15-.16-.31-.31-.46-.47Z"/><path class="cls-12" d="M510.55,284.89c-.05-2.23-.19-4.46,.07-6.69,.08,2.23,.22,4.46-.07,6.69Z"/><path class="cls-5" d="M340.37,187.01c-.35-1.44,0-2.76,.66-4.04,1.34,.75,2.75,.89,4.23,.53,.84,0,1.67-.02,2.51-.03,4.06-.02,8.11-.04,12.17-.06,4.27,.09,8.54,.16,12.81,.3,1.63,.05,3.27-.19,4.88,.18,.81,1.23,.43,2.57,.38,3.87-.17,3.87-.49,7.75,.65,11.55,.07,.14,.13,.28,.2,.42,.01,6.88,.02,13.77,.04,20.65-.11,5.67-.22,11.34-.32,17.02-.15,.13-.2,.27-.09,.45-.05,.16-.1,.33-.15,.49-.63,.02-1.25,.04-1.88,.06-4.75-.01-9.51-.02-14.26-.03-2.28,0-2.52-.42-2.4-2.7,.15-2.83,.07-5.67,.09-8.5,0-1.4,.04-2.8,.02-4.19-.02-1.39-.68-2.13-2.03-2.11-5.11,.07-10.22-.19-15.32,.22-.81,.07-1.49-.1-2.06-.68,1.12-4.72,.8-9.51,.67-14.28-.18-6.37-.5-12.73-.76-19.1Z"/><path class="cls-15" d="M378.84,199.74c-.07-.14-.13-.28-.2-.42,.05-.47,.13-.94,.14-1.41,.04-3.67,.06-7.34,.09-11.01,0-.88-.07-1.74-.49-2.55-.17-.32-.26-.71-.76-.46-1.61-.37-3.25-.13-4.88-.18-4.27-.13-8.54-.2-12.81-.3-.06-.24-.13-.48-.19-.71,.06-4.23,.12-8.46,.2-12.69,.04-1.91,.12-3.82,.18-5.73,6.11-.01,12.22,0,18.32-.05,.83,0,1.1,.22,1.08,1.07-.1,4.86,.19,9.73-.18,14.6-.14,1.81,.36,2.29,2.15,2.37,5.42,.26,10.83,.52,16.25,.78,.48,.24,.46,.68,.46,1.13,0,5.49,.02,10.99,.03,16.48-1.38-.43-2.81-.57-4.23-.61-5.05-.14-10.1-.21-15.16-.3Z"/><path class="cls-15" d="M320.97,127.09c0-5.47,.01-10.94,.02-16.42,0-1.54,.24-1.76,1.82-1.79,3.39-.05,6.79-.02,10.18-.22,1.66-.1,3.3,.3,4.99,.16,2.2-.18,2.75-.65,2.71-2.85-.08-4.39-.17-8.78-.26-13.17,.1-.13,.19-.26,.29-.39,5.42-.14,10.85-.04,16.26-.36,.12,.02,.23,.04,.35,.06,3.08,.38,3.77,1.4,3.06,4.41-.39,1.67-.65,3.35-.3,5.08,.51,2.48,.23,5.01,.48,7.51-.07,.09-.15,.18-.22,.26-.15,0-.3,.01-.44,.02-5.78-.01-11.56-.01-17.34-.05-1.07,0-1.39,.54-1.41,1.48-.06,2.35-.2,4.69-.19,7.04,.02,3.23-.38,6.44-.22,9.67-1.08,1.09-2.37,.63-3.62,.49-2.5-.62-5.05-.65-7.59-.57-2.56,.08-5.11,.07-7.66,.1-.38,0-.71-.09-.9-.47Z"/><path class="cls-7" d="M397.74,183.04c-5.42-.26-10.83-.52-16.25-.78-1.79-.09-2.29-.57-2.15-2.37,.37-4.86,.08-9.73,.18-14.6,.02-.85-.25-1.07-1.08-1.07-6.11,.04-12.22,.04-18.32,.05-.26-.63-.11-1.03,.48-1.48,2.71-2.08,3.63-4.94,3.16-8.24-.29-2.03,.12-2.79,2.13-3.2,.27-.06,.55-.06,.83-.12,.83-.18,1.29-.42,.39-1.23-1.15-1.03-1.02-2.53-1.21-3.88-.07-.48-.02-.95-.5-1.24,4.39-.1,8.78-.2,13.17-.3,.04,.75,.31,1.36,1.01,1.72-.04,.95-.07,1.9-.11,2.84-.13-.01-.3-.57-.4,0-.46,2.62-.66,5.26-.45,7.9,.13,1.54,.21,3.14,.92,4.58,.08,.5,.24,1.01,.22,1.51-.03,.76,.35,1.07,1.02,1.17,1,.4,2.07,.46,3.12,.55,3.11,.26,6.23,.32,9.28-.56,1.68-.02,3.37-.04,5.05-.06,0,4.78,.03,9.56,0,14.35-.01,2.27,1.12,3.01,3.49,2.78,.32-.03,.63-.08,.95-.08,3.71,0,7.41-.02,11.12,0,.76,0,1.63-.09,1.97,.9-6.01,.15-12.05-.3-18.02,.83Z"/><path class="cls-15" d="M201.83,90.38c-.1-1.11-.2-2.22-.3-3.33,.4-1.16,.15-2.36,.19-3.54,.09-3.38-.09-6.75-.46-10.11,.33-.81,1.07-.66,1.71-.72,5.77,0,11.54,0,17.31,0,.37,.15,.83-.08,1.16,.25,0,4.71-.01,9.42,0,14.13,0,2.4-.68,3.11-3.12,3.15-5.43,.09-10.85,.18-16.28,.27-.06-.05-.13-.09-.2-.09Z"/><path class="cls-5" d="M340.74,127.54c-.16-3.23,.24-6.44,.22-9.67-.02-2.35,.13-4.69,.19-7.04,.02-.94,.34-1.49,1.41-1.48,5.78,.04,11.56,.04,17.34,.05,.37,1.58,.02,3.15,.01,4.73-.03,4.49-.04,8.97-.06,13.46h.01c-6.37-.03-12.75-.04-19.12-.06Z"/><path class="cls-5" d="M378.55,144.59c-4.39,.1-8.78,.2-13.17,.3-3.63-.46-5.44-2.62-5.47-6.55-.03-3.58-.03-7.17-.04-10.75h-.01c6.24,.01,12.47,.02,18.71,.02,0,0-.02,.01-.02,.01,0,5.66,0,11.31,.01,16.97Z"/><path class="cls-3" d="M317.18,146.31c-3.93,0-7.87,.03-11.8,0-6.14-.06-12.29-.16-18.43-.26-.34,0-.73,.15-.99-.23,1.93-.68,3.91-.56,5.9-.34,.62,.07,1.26-.13,1.89-.13,6.15-.01,12.3-.01,18.45,0,.99,0,1.97,.11,2.96,0,.86-.1,1.57,.18,2.02,.97Z"/><path class="cls-7" d="M242.04,79.62c.35,.4,.28,.89,.28,1.36,0,4.38,0,8.76,0,13.14,0,1.09-.59,2.16-.04,3.26-1.02,.07-1.42-.42-1.42-1.42,.02-4.97,.01-9.93,0-14.9,0-.83,.22-1.41,1.17-1.44Z"/><path class="cls-3" d="M248.06,118.65c-2.5,.03-5.01,.06-7.51,.1-4.65,.08-9.3,.17-13.95,.25-.51,0-1.03-.05-1.54-.07-.17-.96,.24-1.21,1.18-1.2,5.9,.04,11.79,.01,17.69,.05,1.11,0,2.2,.29,3.32,.22,.45-.03,.78,.14,.82,.66Z"/><path class="cls-3" d="M220.5,118.95c-8.71,.39-17.42,.25-26.13,.21,.4-.62,1.01-.7,1.67-.7,7.68,0,15.37,0,23.05,0,.53,0,1.03,.06,1.41,.49Z"/><path class="cls-3" d="M221.95,72.67c-.02-5.45-.04-10.89-.04-16.34,0-.63,.13-1.27,1.03-1.21-.01,4.63-.04,9.27-.03,13.9,0,.83,.24,1.64,.25,2.49,0,.89-.33,1.27-1.21,1.16Z"/><path class="cls-2" d="M201.83,90.38c.08,0,.15,.04,.2,.09,0,4.76-.01,9.52,0,14.28,0,.7-.25,1.05-.96,1.02,.53-2.92-.18-5.84-.04-8.77,.1-2.02,.08-4.03,.51-6.02,.05-.24,.07-.47,.29-.62Z"/><path class="cls-3" d="M359.73,182.69c.06,.24,.13,.48,.19,.71-4.06,.02-8.11,.04-12.17,.07-.84,0-1.67,.02-2.51,.03-.79,0-1.58,0-2.38,0,.92-.62,1.95-.73,2.97-.75,1.78-.05,3.56,.12,5.33,.17,2.85,.09,5.7-.14,8.56-.23Z"/><path class="cls-8" d="M192.94,71.99c-.22,.06-.45,.18-.67,.18-6.03,0-12.05,0-18.08-.02,.19-.19,.42-.2,.67-.2,6.03,.01,12.06,.02,18.08,.03Z"/><path class="cls-1" d="M139.17,66.04c-.5-3.73,.22-7.46-.66-11.23,.54,.33,.63,.85,.64,1.23,.04,3.33,.02,6.67,.02,10Z"/><path class="cls-1" d="M119.53,54.91c-.02-3.11-.05-6.23-.07-9.34,.13-.41-.09-.87,.27-1.42,0,3.61,0,7.06,0,10.5,0,.09-.12,.18-.19,.27Z"/><path class="cls-1" d="M138.43,78.4c-.47-1.21-.12-2.47-.2-3.7-.05-.82,0-1.65,0-2.47,.49,.8,.17,1.67,.21,2.5,.06,1.22,0,2.45-.01,3.67Z"/><path class="cls-1" d="M138.67,84.4c-.48-1.41-.09-2.87-.2-4.3,.5,1.41,.13,2.86,.2,4.3Z"/><path class="cls-8" d="M122.41,72.22c-1.38,.35-2.75,.31-4.13,.01,1.38,0,2.75,0,4.13-.01Z"/><path class="cls-1" d="M118.07,117.28c.11-1.19-.26-2.41,.2-3.58-.08,1.19,.31,2.41-.2,3.58Z"/><path class="cls-8" d="M199.89,61.62c.32,.73,.34,1.47,0,2.2,0-.73,0-1.46,0-2.2Z"/><path class="cls-8" d="M158.31,73.63c0,.41,.01,.81,.02,1.22-.3-.4-.28-.81-.02-1.22Z"/><path class="cls-1" d="M137.85,54.34c.07-.03,.14-.09,.2-.08,.05,0,.11,.1,.11,.16,0,.12-.07,.14-.16,.07-.05-.04-.09-.1-.14-.15Z"/><path class="cls-8" d="M179.48,105.53c.08,.08,.16,.16,.24,.23-.08-.08-.16-.16-.24-.23Z"/><path class="cls-8" d="M158.33,80.58c0,.09,.01,.17,.02,.26-.03-.06-.07-.12-.09-.18,0-.02,.05-.05,.07-.08Z"/><path class="cls-7" d="M199.81,57.34c.03,.07,.04,.15,.02,.22-.03-.05-.06-.1-.08-.15,0-.01,.04-.05,.06-.07Z"/><path class="cls-8" d="M199.87,59.72c.03,.06,.06,.12,.08,.18,0,.02-.05,.05-.07,.08,0-.09,0-.17,0-.26Z"/><path class="cls-15" d="M361.56,274.76c-2.07-1.22-2.36-3.32-2.38-5.37-.04-4.34,.12-8.69,.2-13.03,.48-.08,.96-.15,1.44-.23,1.91,.03,3.82,.05,5.73,.08,.09,.03,.18,.06,.27,.1,2.03,0,4.06,.25,6.07-.13,.64,.05,1.23-.18,1.84-.33,.98-.28,1.83-.75,2.42-1.62,1.42-1.52,1.53-3.39,1.44-5.32,0-.56-.01-1.11-.02-1.67,.03-.02,.08-.04,.08-.07,0-.06-.01-.13-.02-.2,.02-.32,.04-.64,.06-.96,.23-1.19,.11-2.38,.07-3.57,.04-1.03,.07-2.06,.11-3.09,.72,0,1.43,0,2.15-.01,3.89-.11,7.82,.28,11.66-.5,5.09-1.04,6.55-5.2,5.8-9.84,.27-.39,.24-.82,.23-1.26-.02-4.87-.04-9.74-.07-14.61,0-.47-.07-.95-.1-1.42,.05-.07,.04-.14-.04-.19,0-1.94,.05-3.89-.02-5.83-.02-.61,.48-1.18,.18-1.73-.53-.97-.39-1.99-.41-3,6.23-.49,12.46-.82,18.71-.77,1.75,1.33,3.5,.51,5.26,0,4.23,.04,8.47,.12,12.69-.26,.34,.1,.77-.12,1.02,.28-.01,5.45-.02,10.9-.04,16.36-.01,2.53-.53,4.36-4.46,3.82-1.29-.18-2.62,0-3.93,.01-2.07,0-4.14,0-6.22-.01-.12-.01-.24-.03-.36-.04-3.7-.18-4.55,.23-4.12,4.97,.02,.2,.06,.4,.06,.59-.07,3.68,.17,7.37-.15,11.05-.13,1.51-1.48,2.58-2.95,2.29-1.85-.36-3.69-.23-5.55-.01-1.45,.17-2.92,.08-4.39,.23-1.33,.14-2.67,.32-4.02,.32-1.19,0-1.72,.72-1.78,2.21-.04,.94,.14,1.9,.13,2.84-.04,4.22-.1,8.45-.16,12.67-.4,.01-.79,.02-1.19,.03-1-.62-2.03-.63-3.1-.22-.72,0-1.44-.01-2.17-.02-3.47-.03-6.94-.05-10.41-.07-.4,0-.79,.04-1.12,.31-.22,.06-.43,.13-.28,.43l.02-.02c-.83,.5-.63,1.38-.66,2.09-.08,1.7,.26,3.38,.24,5.09-.04,2.98-.47,5.94-.24,8.92-1.81,.55-3.69,.59-5.56,.76-.07-.02-.14-.02-.2,.02-3.92,.24-7.84-.1-11.76-.1Z"/><path class="cls-10" d="M441.9,184.42c15.09,0,30.17,0,45.26,0,.86,0,1.72,.11,2.5,.52-.01,.16,.01,.33-.04,.48-1.12,3.22-.75,6.56-.63,9.84,.05,1.4-.02,2.77-.11,4.14-.07,1.11-.59,1.93-1.89,2.09-.79,.1-1.57,.19-2.37,.2-8.18,.12-16.36-.4-24.54-.24-.84,.02-1.68,.02-2.52,0-.76-.02-1.51,.03-2.25,.21-.53-.91-1.57-.8-2.38-1.11-2.26-.87-3.79-2.39-4.63-4.66-.44-1.2-.12-2.06,.9-2.78,1.72-1.22,2.07-2.92,1.03-4.79-.97-1.74-.54-2.46,1.47-2.46,3.15,0,6.31,.06,9.46-.03,1.59-.04,3.19-.25,4.88-.23-.21-.56-.53-.46-.77-.46-6.54,0-13.09-.03-19.63,.02-1.14,0-2.28,.38-3.34-.31-.16-.1-.27-.28-.4-.42Z"/><path class="cls-10" d="M378.55,144.59c0-5.66,0-11.31-.01-16.97,2.35-.01,4.71-.02,7.06-.03,3.22-.01,6.44,0,9.67-.21,1.95-.13,2.97,.96,2.97,2.9,0,5.03,0,10.05,0,15.08-3.02,.07-6.04-.05-9.07,.14-1.83,.11-3.72-.15-5.59-.15-.92,0-1.78,.21-2.75,.62,1.02,.22,1.91-.08,2.75,.21-1.32,.32-2.68-.17-4,.15-.7-.36-.97-.97-1.01-1.72Z"/><path class="cls-3" d="M416.97,200.21c-6.25-.06-12.48,.27-18.71,.77-.01-.11-.02-.21-.03-.32-.01-5.49-.03-10.99-.03-16.48,0-.45,.02-.88-.46-1.13,5.97-1.13,12.01-.68,18.02-.83,1.38,.29,1.28,1.55,1.38,2.45,.15,1.32,.22,2.69-.13,4.03-.23,.88,.16,1.72,.19,2.59,.11,2.98-.18,5.94-.23,8.92Z"/><path class="cls-10" d="M360.34,109.39c.07-.09,.15-.18,.22-.26,5.48-.71,10.98-.44,16.48-.48,1.9-.01,2.17,.35,2.27,2.2,.14,2.78,.35,5.56,.37,8.33,.02,2.57-.01,5.24-1.11,7.69-4.79,0-9.58,0-14.36-.01-2.42,0-3.38-.96-3.39-3.29,0-3.51,0-7.02,0-10.53,0-1.24-.24-2.44-.48-3.65Z"/><path class="cls-5" d="M379.57,146.3c1.32-.32,2.68,.16,4-.15,3.61,.06,7.22,.11,10.83,.17,.93,.36,1.89,.12,2.83,.15,.67,.02,1.01,.14,1.01,.93-.03,5.62-.02,11.24-.02,16.85-1.68,.02-3.37,.04-5.05,.06-4.13,0-8.27,0-12.4,0-.67-.1-1.04-.41-1.02-1.17,.02-.5-.14-1-.22-1.51-.01-3.68-.02-7.36-.04-11.04,.02-.08,.01-.15-.02-.22,0-.41-.01-.82-.02-1.22,.04-.95,.07-1.9,.11-2.84Z"/><path class="cls-3" d="M455.32,201.65c.74-.18,1.49-.23,2.25-.21,.84,.02,1.68,.02,2.52,0,8.18-.16,16.36,.35,24.54,.24,.8-.01,1.58-.1,2.37-.2,1.3-.16,1.82-.98,1.89-2.09,.08-1.37,.16-2.74,.11-4.14-.13-3.28-.49-6.62,.63-9.84,.05-.15,.03-.32,.04-.48,.12,0,.23,0,.35,0,.63,3.98,.27,7.96,.08,11.94-.06,1.35-.14,2.71-.17,4.06-.03,1.16-.71,1.45-1.74,1.45-11.87,0-23.73,.02-35.6,.03-.12,0-.24,.03-.36,.04-.02-.44,.03-.8,.61-.8,.83,0,1.66-.02,2.49-.03Z"/><path class="cls-3" d="M360.34,109.39c.24,1.2,.48,2.41,.48,3.65,0,3.51-.01,7.02,0,10.53,0,2.33,.97,3.28,3.39,3.29,4.79,.02,9.57,0,14.36,.01,0,.25,0,.49,0,.74-6.24,0-12.47,0-18.71-.01,.02-4.49,.03-8.97,.06-13.46,0-1.58,.36-3.15-.01-4.73,.15,0,.3-.01,.44-.02Z"/><path class="cls-3" d="M394.4,146.32c-3.61-.06-7.22-.11-10.83-.17-.85-.29-1.73,.02-2.76-.21,.98-.4,1.84-.62,2.75-.62,1.87,0,3.76,.26,5.59,.15,3.03-.18,6.05-.06,9.07-.14,.11,.71-.18,.97-.91,.95-.97-.04-1.95,.02-2.92,.03Z"/><path class="cls-6" d="M356.96,92.07c-5.42,.32-10.84,.22-16.26,.36-.08-.55,.11-.81,.71-.81,3.67,.02,7.33-.48,11-.2,1.52,.12,3.08,.15,4.56,.65Z"/><path class="cls-7" d="M434.92,199.95c-4.22,.38-8.46,.3-12.69,.26-.06-.23-.84-.64-.01-.66,4.21-.1,8.44-.88,12.61,.31,.03,0,.06,.05,.09,.08Z"/><path class="cls-1" d="M339.7,93.31c0,3.11,0,6.22,0,9.33-.07-.08-.2-.17-.2-.25-.01-2.94-.01-5.88,0-8.82,0-.08,.13-.17,.2-.25Z"/><path class="cls-1" d="M435.68,129.53c.37,1.42,.36,2.84,0,4.26,0-1.42,0-2.84,0-4.26Z"/><path class="cls-1" d="M339.74,58.31c.33,1.26,.33,2.52,0,3.78,0-1.26,0-2.52,0-3.78Z"/><path class="cls-15" d="M436.37,274.82c-.36,.39-.83,.22-1.24,.22-3.99,.02-7.98,0-11.97,.05-1.51,.02-3.04,.09-4.53,.32-.91,.14-1-.16-1-.9,.02-4.63,.01-9.25,0-13.88,0-.47,.11-.96-.16-1.4-.02-.4-.04-.8-.07-1.2,.04-2.78,.08-5.56,.12-8.33,.28-.64,.12-1.3,.11-1.96,.02-2.07,.05-4.14,.07-6.21,.01-1.8,.38-2.19,2.13-2.19,3.38,0,6.77,.02,10.15-.01,1.35-.01,2.69-.15,4.04-.19,1.17-.03,2.11,.33,2.38,1.64-.05,.28-.04,.55,.15,.78,0,.75,0,1.5,0,2.25-.06,.27-.18,.53-.18,.8,0,3.19,.02,6.38,.03,9.57-.01,5.68-.03,11.37-.04,17.05,0,1.2-.62,2.39,0,3.59Z"/><path class="cls-5" d="M417.42,258.02c.02,.4,.04,.8,.07,1.2-.84,4.39-.23,8.81-.28,13.22-.03,2.44-.66,3.11-3.12,3.12-2.4,0-4.79-.05-7.19,0-1.91,.03-3.82,.21-5.73,.24-2.01,.03-3.01-.89-2.9-2.92,.21-3.63,.24-7.25,.21-10.88-.01-1.47-.2-2.93-.39-4.39,4.05,.29,8.11,.16,12.17,.23,2.39,.04,4.77,.13,7.16,.2Z"/><path class="cls-1" d="M489.84,235.93c-.31-.24-.2-.58-.2-.88,0-3.29,0-6.57,0-9.86,.33,.17,.21,.49,.21,.74,0,3.33-.01,6.66-.02,10Z"/><path class="cls-4" d="M436.42,254.18c-.01-3.19-.03-6.38-.03-9.57,0-.27,.12-.53,.18-.8,.01,3.28,.03,6.56,.04,9.84,0,.18-.12,.36-.19,.54Z"/><path class="cls-4" d="M421.28,220.42c2.07,0,4.14,0,6.22,.01-2.07,.3-4.14,.32-6.22-.01Z"/><path class="cls-3" d="M417.64,247.73c.02,.66,.18,1.32-.11,1.96-.06-.66-.25-1.32,.11-1.96Z"/><path class="cls-4" d="M436.57,241.56c-.18-.24-.2-.5-.15-.78,.25,.22,.2,.5,.15,.78Z"/><path class="cls-8" d="M466.84,221.66c.08,.05,.17,.1,.25,.15-.08-.05-.17-.1-.25-.15Z"/><path class="cls-2" d="M279.99,257.35c2.29-.16,2.84-.7,2.77-3.21-.1-3.75,.16-7.49,.17-11.24,0-.95,.13-1.91,.2-2.86,1.11,.18,1.17,1,1.17,1.89,0,4.74,0,9.48,0,14.21,0,.32,.03,.63,.05,.95-.03,.22-.06,.45-.09,.67-1.11,.01-2.23,.03-3.34,.03-.38,0-.84,.13-.94-.45Z"/><path class="cls-7" d="M321.75,232.13c-.01-3.18-.04-6.36-.02-9.54,0-1.47,.57-1.99,2.08-1.93,1.55,.06,3.09,.16,4.64,.25,1.74,.37,3.49,.22,5.24,.08,.54,.01,1.09,.03,1.63,.04-.9,.74-1.97,1.03-3.1,1.02-1.42-.01-2.85,.12-4.28-.19-1.06-.23-2.14,0-3.18,.28-1.21,.32-2.05,1.74-2.08,3.43-.03,1.47,.03,2.95-.02,4.42-.02,.81,0,1.69-.91,2.15Z"/><path class="cls-7" d="M321.88,238.41c-.44-1.52-1.23-3.03-.16-4.6,1.11,.2,2.04,.72,2.53,1.77,.71,1.55-.26,2.68-2.37,2.83Z"/><path class="cls-7" d="M374.73,255.84c-.61,.15-1.2,.38-1.84,.33-2.03-.01-4.06-.03-6.08-.04l-.26,.07c-1.91-.03-3.82-.05-5.73-.08,.05-.88,.35-1.26,1.37-1.06,3.39,.68,6.83,.2,10.24,.32,.8,.03,1.58,.05,2.29,.45Z"/><path class="cls-7" d="M378.69,246.01c-.02,.32-.04,.64-.06,.96,0,0-.08,.02-.08,.02-1.12-2-.8-4.21-.62-6.29,.13-1.43-.04-2.15-1.51-2.3,.63-.02,1.25-.04,1.88-.06,.41,.22,.1,.83,.56,1.02-.04,1.03-.07,2.06-.11,3.09-.34,1.18-.23,2.38-.07,3.57Z"/><path class="cls-7" d="M378.59,248.9c.08,1.93-.03,3.8-1.44,5.32,.23-1.21-.08-2.43,0-3.64,.06-.91,.36-1.64,1.45-1.68Z"/><path class="cls-1" d="M249.69,275.8h4.93s0,.08,0,.13h-4.93s0-.08,0-.13Z"/><path class="cls-4" d="M378.56,246.99s.08-.02,.08-.02c0,.07,.02,.13,.02,.2,0,.02-.05,.04-.08,.07,0-.08,0-.16-.01-.25Z"/><path class="cls-7" d="M380,257.58c.33-.27,.73-.31,1.12-.31,3.47,.02,6.94,.05,10.41,.07,.2,.28,.88,.19,.63,.81-.23,.58-.54,1.05-1.27,1.08-1.63,.06-3.26,.2-4.89,.21-.93,0-1.83,.17-2.72,.35-1.88,.37-2.7,1.69-2.81,4.02-.13,2.7-.16,5.39,0,8.09,.05,.86-.19,1.65-.97,2.17,0-4.58,.02-9.16,.02-13.75,0-.79-.01-1.58,.22-2.34,0,0-.02,.02-.02,.02,.3,0,.28-.22,.28-.43Z"/><path class="cls-1" d="M379.74,257.99c-.23,.77-.22,1.55-.22,2.34,0,4.58-.01,9.16-.02,13.75-.15,0-.29,0-.44,0-.22-2.98,.21-5.94,.24-8.92,.02-1.71-.31-3.39-.24-5.09,.03-.71-.16-1.59,.66-2.09Z"/><path class="cls-7" d="M393.7,257.36c1.07-.41,2.11-.4,3.1,.22,.05,1.07-.45,1.63-1.53,1.65-1.08,.02-1.49-.47-1.58-1.86Z"/><path class="cls-3" d="M373.32,274.86c.06-.04,.13-.04,.2-.02-.06,.1-.12,.12-.2,.02Z"/><path class="cls-2" d="M201.25,73.4c.38,3.36,.56,6.73,.46,10.11-.03,1.18,.22,2.38-.19,3.54-.8-.31-1.17-.91-1.17-1.76,.02-4.15,.03-8.3,.04-12.45,0-.07,.06-.14,.13-.28,.44,.11,.41,.64,.72,.84Z"/><path class="cls-2" d="M220.27,72.68c-5.77,0-11.54,0-17.31,0,.78-.52,1.7-.32,2.53-.41,4.83-.52,9.67-.4,14.49,.21,.1,.01,.19,.13,.29,.19Z"/><path class="cls-7" d="M104.14,239.81c-2,.67-3.76,1.65-4.19,3.93-.19,1-.21,2.08-.09,3.09,.42,3.62,.09,7.25,.23,10.87-1.29-.15-1.55,.52-1.49,1.67,.05,.96,.21,1.95-.12,2.9-.03-5.34-.08-10.68-.07-16.02,0-1.47-.37-2.93-.09-4.41,.31-1.66,1.28-2.44,2.96-2.21,.96,.13,1.9,.15,2.86,.18Z"/><path class="cls-1" d="M109.19,276.01c-1.65,.51-3.35,.13-5.02,.2,1.66-.45,3.35-.09,5.02-.2Z"/><path class="cls-1" d="M114.23,275.77c-1.17,.52-2.39,.13-3.58,.2,1.17-.45,2.39-.09,3.58-.2Z"/><path class="cls-7" d="M98.43,280.58c.39,.53,.15,1.13,.17,1.7-.34-.54-.13-1.13-.17-1.7Z"/><path class="cls-7" d="M102.98,257.73c.39-.26,.78-.26,1.16,0-.39,0-.77,0-1.16,0Z"/><path class="cls-7" d="M115.92,257.74c.39-.27,.77-.27,1.16,0-.39,0-.78,0-1.16,0Z"/><path class="cls-7" d="M98.6,287.95c-.05,.09-.1,.19-.14,.28,.05-.09,.1-.19,.14-.28Z"/><path class="cls-7" d="M117.61,257.72c.11-.09,.16-.03,.18,.08-.06-.02-.13-.05-.18-.08Z"/><path class="cls-7" d="M118.72,89.68c-.32-1.66-.27-3.33-.03-4.99,0,1.66,.02,3.33,.03,4.99Z"/><path class="cls-12" d="M117.78,21.86c.09,.76,.25,1.52,.26,2.28,.01,.66-.26,1.26-.74,1.75-.28-1.4-.54-2.79,.48-4.03Z"/><path class="cls-4" d="M322.67,200.71c.47-1.43,1.77-1.39,2.86-1.4,4.71-.06,9.42-.02,14.13-.02-.44,.76-1.24,.92-1.96,.91-5.02-.07-10.02,.56-15.04,.51Z"/><path class="cls-13" d="M333.69,220.98c-1.75,.14-3.5,.3-5.24-.08,1.75-.02,3.49-.16,5.24,.08Z"/><path class="cls-12" d="M398.23,200.65c.01,.11,.02,.21,.03,.32,.02,1.01-.12,2.03,.41,3,.3,.55-.2,1.12-.18,1.73,.07,1.94,.02,3.88,.02,5.83-.02,.07,0,.13,.04,.19,.04,.47,.1,.95,.1,1.42,.03,4.87,.04,9.74,.07,14.61,0,.44,.03,.88-.23,1.26-.96,1.34-.14,2.99-.76,4.74-.35-1.33-.18-2.36-.2-3.36-.04-2.11,.02-4.21-.24-6.31-.29-2.32-1.98-3.66-4.89-3.68-4.51-.02-9.02,0-13.53,0-.01-6.88-.02-13.77-.04-20.65,5.05,.09,10.11,.16,15.16,.3,1.42,.04,2.86,.18,4.23,.61Z"/><path class="cls-10" d="M378.87,220.38c4.51,0,9.02-.02,13.53,0,2.91,.01,4.6,1.36,4.89,3.68,.26,2.1,.2,4.21,.24,6.31,.02,1.01-.15,2.03,.2,3.36,.61-1.74-.2-3.39,.76-4.74,.75,4.64-.71,8.8-5.8,9.84-3.85,.79-7.77,.4-11.66,.5-.72,.02-1.43,0-2.15,.01-.46-.19-.15-.81-.56-1.02,.05-.16,.1-.33,.15-.49,.03-.15,.06-.3,.09-.45,.11-5.67,.22-11.34,.32-17.02Z"/><path class="cls-2" d="M377.61,183.89c.5-.25,.59,.14,.76,.46,.42,.8,.5,1.66,.49,2.55-.03,3.67-.05,7.34-.09,11.01,0,.47-.09,.94-.14,1.41-1.13-3.8-.82-7.68-.65-11.55,.06-1.31,.43-2.65-.38-3.87Z"/><path class="cls-7" d="M378.55,237.4c-.03,.15-.06,.3-.09,.45-.11-.18-.06-.32,.09-.45Z"/><path class="cls-13" d="M379.5,150.59c.01,3.68,.02,7.36,.04,11.04-.71-1.44-.8-3.04-.92-4.58-.22-2.64-.01-5.29,.45-7.9,.1-.58,.27-.02,.4,0,0,.41,.01,.82,.02,1.22-.02,.02-.07,.05-.06,.07,.02,.05,.05,.1,.08,.15Z"/><path class="cls-3" d="M380.77,164.31c4.13,0,8.27,0,12.4,0-3.05,.88-6.17,.81-9.28,.56-1.04-.09-2.12-.15-3.12-.55Z"/><path class="cls-4" d="M366.81,256.13c2.03,.01,4.05,.03,6.08,.04-2.02,.38-4.05,.13-6.07,.13,0-.06,0-.11,0-.17Z"/><path class="cls-4" d="M378.69,246.01c-.16-1.19-.27-2.38,.07-3.57,.04,1.19,.16,2.38-.07,3.57Z"/><path class="cls-1" d="M380,257.58c0,.2,.02,.42-.28,.43-.15-.3,.06-.37,.28-.43Z"/><path class="cls-3" d="M398.55,211.71c-.04-.06-.06-.12-.04-.19,.08,.05,.09,.12,.04,.19Z"/><path class="cls-3" d="M366.81,256.13c0,.06,0,.11,0,.17-.09-.03-.18-.06-.27-.1,.09-.02,.18-.05,.26-.07Z"/><path class="cls-7" d="M379.5,150.59c-.03-.05-.06-.1-.08-.15,0-.01,.04-.05,.06-.07,.03,.07,.04,.14,.02,.22Z"/></g></g></svg>