<?xml version="1.0" encoding="UTF-8"?><svg id="Layer_2" xmlns="http://www.w3.org/2000/svg" viewBox="0 0 250 141.21"><defs><style>.cls-1{fill:#fdfdfd;}.cls-2{fill:#fdfdf9;}.cls-3{fill:#848333;}.cls-4{fill:#90ab4b;}.cls-5{fill:#cefdb9;}.cls-6{fill:#a8b65c;}.cls-7{fill:#b2b761;}.cls-8{fill:#aac67d;}.cls-9{fill:#a7b65b;}.cls-10{fill:#93b451;}.cls-11{fill:#94b954;}.cls-12{fill:#95c059;}.cls-13{fill:#94b451;}.cls-14{fill:#94bc56;}.cls-15{fill:#292723;}</style></defs><g id="Layer_2-2"><g id="Layer_1-2"><g><path class="cls-15" d="M7.08,125.3c-1.26-.17-2.52-.13-3.78-.12-.71,0-1.42,.12-2.11,.28-.72,.17-.86,.07-.86-.68v-21.24c0-.83-.15-1.65-.11-2.48,.03-.61,.22-.83,.84-.83H7.92c.16,0,.33,.01,.49,0,.48-.05,.79-.36,.74-.83-.23-2.06,.02-4.12-.11-6.18-.18-2.66-.03-5.32-.1-7.98,0-.45-.18-.88-.03-1.37,.14-.44,.41-.57,.79-.64,.04,0,.07,0,.11,0,2.33,.02,4.66-.21,7-.1,.74,.04,1.03-.23,.93-1.05-.14-1.21-.02-2.42-.09-3.62-.05-.95-.14-1.9-.11-2.86,.02-.65,.31-.92,.94-.98,1.43-.13,2.86-.02,4.28-.12,2.92-.2,5.83-.07,8.74-.07,.82,0,1.65,.05,2.48,.1,.39,.02,.74-.08,1.11-.14,.37-.05,.52-.35,.55-.74,.13-2.29,.11-4.59,.1-6.89,0-.45,.11-.55,.59-.65,1.95-.41,3.92-.07,5.87-.19,.5-.03,.99-.19,1.5-.11,.85,.18,1.11,.79,1.14,1.57,.05,1.12-.01,2.24-.03,3.37-.03,3.72-.02,7.44-.02,11.15,0,6.05,0,12.11,0,18.17-2.35,0-4.7,0-7.05-.02-.78,0-1.55-.02-2.33-.04,0-1.23,0-2.46,0-3.7,.01-3.4-.06-6.8,.11-10.19,0-.14,.06-.29,.06-.42,0-.64,.26-1.31-.17-1.91-.35-.38-.79-.47-1.28-.43-.49,.04-.98,.06-1.46,.07-1.99,.02-3.99,.03-5.98,.04-2.74-.1-5.49,0-8.23,0-.4,0-.75,.2-.88,.65-.05,.63-.13,1.26-.13,1.9-.02,6.07-.03,12.15-.04,18.22,0,.2-.02,.4-.03,.6-.05,1.08-.15,2.17,.15,3.23-.02,.23,.07,.4,.24,.55-.04,.16-.1,.31-.13,.47-.37,2.13-.15,4.27-.2,6.4-.01,.62,.3,.87,.95,.98,.05,.14,.18,.1,.28,.1,2.27,0,4.54,0,6.8-.01,1.13,.09,1.61,.61,1.55,1.77-.1,1.9,.01,3.8-.04,5.69-.02,.72,.17,.9,.88,1.05,.58,.17,1.17,.17,1.75,0,.29,0,.58-.01,.88-.02,1.64,0,3.27,.07,4.9-.04,.01,.18,.04,.36,.03,.54-.02,1.94-.04,3.87-.05,5.81,0,.54,.02,1.08,.33,1.56,.16,.33,.47,.31,.76,.31h34.57c.35,0,.67-.06,.92-.33h.04s0-.05,0-.05c.3-.4,.31-.81,.12-1.25,.02-.77-.03-1.53-.13-2.29-.03-.54,.14-1.09-.09-1.63,0-.18-.01-.37-.02-.55,.05-.4,.1-.79,.15-1.19h0c.25,.1,.16-.17,.26-.23h.04s0-.05,0-.05c.15-.05,.28-.13,.44-.17,.53-.15,1.05-.03,1.58,0,1.04,.03,2.09,0,3.13-.11,.37-.04,.77,.02,1.11-.12,.57-.23,.62,.02,.62,.5,0,2.07,.01,4.13,.02,6.2,0,.97,.2,1.2,1.15,1.36,.69,.12,1.36-.07,2.03-.07,8.01-.08,16.02,.14,24.03-.11,.76-.02,1.34-.71,1.17-1.45-.22-.95-.15-1.94-.15-2.88,0-1,.05-2.02,.04-3.02,0-.53,.08-.81,.67-.74,.27,0,.54,.03,.81,.03,.94,0,1.36-.44,1.39-1.4,.01-.42-.1-.81-.13-1.22,0-1.67,0-3.33,.02-5,.21-.4,.48-.77,.98-.76,.72,.02,1.43-.14,2.15-.13,1.58,0,3.16,.1,4.73-.1,.49-.06,.93,.06,1.28,.44-.13,.36,0,.72,.01,1.07,.13,2.44-.11,4.87-.23,7.31-1.24-.42-2.5-.45-3.8-.36-.99,.07-1.99-.05-2.98-.06-1,0-1.2,.26-1.32,1.24-.12,.98,.1,1.94-.03,2.93-.15,1.14-.12,2.3-.25,3.45-.05,.42,.14,.7,.62,.69,.18,0,.36,0,.54,0,.28,.11,.55,.11,.83,0,2.45,0,4.9-.03,7.34-.03,5.24,0,10.48,0,15.72,0,.47,0,.94-.03,1.41-.04,1.43,.02,2.85,.1,4.28-.05,.96-.11,1.94-.09,2.92-.14,.42-.02,.86-.01,1.21-.32,.11,.03,.2-.03,.27-.1h.04s0-.05,0-.05c.16-.15,.31-.32,.32-.54,.05-1.24-.08-2.46-.16-3.69-.05-.83-.39-1.68,.12-2.48h.04s0-.05,0-.05c.15-.24,.46-.2,.65-.38,.54,0,1.07,0,1.61,.07,.52,.08,1.07,.11,1.55-.19,1.01-.17,2.03-.15,3.05-.21,.54-.03,1.09-.02,1.63-.03,2.84,.04,5.68,.08,8.52,.11,.03,.12,.07,.25,.07,.37,.05,1.99,.09,3.98,.13,5.97,0,.35,.02,.69,.09,1.03,.08,.39,.31,.62,.67,.69,.34,.07,.68,.13,1.02,.13,2.46-.04,4.92,.06,7.39-.02,2.24-.07,4.49,0,6.74,0,1.47,0,2.94,.02,4.41,.03,.08,0,.14-.02,.16-.1,3.47,0,6.94,0,10.41,0,1.25,0,2.5-.01,3.76-.02,1.27,0,2.53,.04,3.8,.02,1.17-.02,2.35,.1,3.51-.12,.32,.05,.61,0,.87-.2h0c.55-.14,.6-.63,.63-1.04,.12-1.29-.15-2.57-.24-3.85-.07-.99,.04-1.92,.36-2.84,1.67,0,3.34-.01,5.01-.02,1.02,0,2.03,0,3.05,.01,.44,0,.72-.21,.64-.64-.12-.59-.18-1.19-.27-1.78-.09-.63-.09-1.26,0-1.89,.1-.75,.11-1.5,0-2.25-.15-1.01-.03-1.99,1.49-1.94,.93,.03,1.85,.01,2.78,0,.16,0,.36,.1,.5-.1l2.73-.02c1.43,0,2.87,0,4.3,.01,.1,0,.22,.05,.28-.1,.18,0,.36,0,.55,.01,.12,.11,.27,.09,.41,.09,2.37,.02,4.75-.02,7.12,.08,1.56,.06,3.12,.01,4.68,.01,.77,.01,.73-.22,.87-.79,.07-.3-.1-.55-.11-.84-.03-1.09-.04-2.19-.07-3.29-.05-1.78-.07-3.57,.05-5.35,.12-1.77,.03-3.55,.02-5.32,0-.23,0-.46-.32-.5-.22-.31-.56-.31-.89-.31-1.25,0-2.5-.01-3.75,.02-1.31,.04-2.61,.06-3.87-.38v-14.98c0-.5-.06-.95-.65-1.11-.31-.23-.66-.26-1.03-.25-2.63,.02-5.27,.03-7.91,.04-.86-.15-1.73-.23-2.59-.23-7,0-14.01,.02-21.02,.05-.45,0-.59-.1-.57-.56,.06-2.17,.08-4.34,.12-6.51,0-.11,0-.22,0-.33-.03-.49-.35-.8-.88-.89-.23-.1-.46-.05-.7-.05-2.32,0-4.63,0-6.95-.1-.15-.64-.1-1.29-.1-1.93,0-.11,0-.22,0-.33-.25-1.69-.32-3.39-.08-5.09,.03-.24-.08-.71,.45-.71,.54,0,1.08-.09,1.61-.08,1.54,.01,3.07-.1,4.61-.15,1.34-.04,1.84-.34,1.89-1.74,.07-1.82,.18-3.65,.12-5.47-.01-.4-.02-.91-.52-1.14-.04-.04-.08-.07-.12-.11-.08-.14-.22-.11-.34-.11-1.94-.03-3.88-.07-5.82-.07-.56,0-1.12,.08-1.67-.05-.32-.65-.15-1.3-.13-1.98,.05-1.61,.03-3.23,0-4.85,0-.48-.13-.95-.65-1.18-1.1-.42-2.25-.35-3.4-.32-1.48,.05-2.94,.25-4.42,.15v-4.23c0-.2,.05-.4,.06-.58,.05-.82,.27-1.65-.05-2.47-.12-.31-.25-.6-.53-.77-.79-.48-1.64-.7-2.58-.58-1.58,.2-3.17,.26-4.76,.06-.27-.04-.53-.1-.76-.25,.02-.11-.02-.2-.11-.27v-.04s-.05,0-.05,0c-.15-.45-.22-.91-.3-1.38-.1-.65,0-1.29-.11-1.92-.11-.68-.15-1.34,0-2.01,.16-.71,0-1.31-.41-1.54-.25-.2-.53-.33-.85-.32-.94,0-1.89,.05-2.83,.06-1.65,.02-3.3,.08-4.95-.04h-.22c-2.03,.03-4.06,.05-6.1,.08-.58-.06-1.17-.06-1.75,0-.14,0-.28,0-.42-.01,0-.11,0-.22,0-.33,0-2.41,0-4.81,0-7.23,0-.16,.19-.47-.2-.5-.04-.04-.08-.08-.11-.12-.11-.14-.28-.16-.43-.2-1.55-.33-3.12-.35-4.68-.18-.59,.06-1.19,.07-1.75,.28-.25,.03-.5,.06-.76,.09-.82-.29-1.26,.16-1.17,.92,.03,.25,.07,.5,.06,.76-.02,4.16-.05,8.31-.06,12.46,0,3.1,0,6.2,0,9.31,0,.67-.13,.81-.8,.76-.49-.04-.97-.11-1.46-.07-1.14,.1-2.28,.2-3.41,.31-.8-.02-1.61-.04-2.41-.05-.38-.3-.83-.34-1.29-.34-5.43,0-10.86,0-16.28,.05-2.5,.02-5,.2-7.5,.06-.7-.04-1.45,.04-2.08-.42,0-.23-.1-.44-.1-.68,.08-7.97-.12-15.93,.1-23.9,.07-2.46,0-4.93,.02-7.39,0-.34-.1-.51-.45-.51-.28-.19-.6-.2-.92-.19-2.67,.08-5.33,.11-7.99,.08-.47,0-.64,.17-.55,.61,.13,.65,.14,1.29,.11,1.95-.06,1.71-.4,3.42-.13,5.15,.09,.57-.19,.78-.87,.83-.39-.14-.79-.1-1.18-.1-6.98,0-13.96,0-20.94,0-1.49,0-2.97,.09-4.46-.01-.05-.08-.07-.2-.21-.12h.01c-.11-.25-.32-.5-.33-.77,0-.52-.14-1.03-.12-1.54,.06-1.73-.12-3.45-.12-5.18,0-.39-.15-.64-.55-.71-.41-.13-.84-.16-1.27-.15-1.9,.03-3.81,.06-5.71,.08-1.38,.02-2.76,.03-4.14,.04-.15,0-.29-.01-.43-.02-1.19-.04-2.38,.03-3.57-.06-.76-.06-1.54-.14-2.3,.07-.15-.04-.29-.09-.44-.13-.08-.84,.17-1.69,.1-2.53-.06-.81-.25-1.59-.13-2.43,.13-.89,.03-1.81,.03-2.71,0-.3-.12-.47-.44-.49-.2-.28-.48-.35-.81-.35-.69,0-1.38,0-2.06,.02-.56,.01-1.12,.04-1.63,.31-.71,.01-1.43,.03-2.14,.04-.24,0-.47-.03-.7-.03-1.24,.01-1.48,.25-1.49,1.5-.01,1.79-.07,3.57-.24,5.36-.09,.88,.01,1.08,.79,1.43,.44,.19,.89,.13,1.35,.13,2.31,0,4.61-.14,6.92,.07,.31,.77,.26,1.59,.31,2.39,.11,1.97-.18,3.93,.05,5.9-.14,.82-.24,1.64-.24,2.48,0,1.79,0,3.57,0,5.36-.21,.2-.07,.45-.09,.67,.11,.44,.09,.89,.08,1.34-.02,.67-.05,1.34-.07,2-.05,1.46,0,2.93-.15,4.38-1.27-.04-2.54-.06-3.81-.12-1.18-.05-2.36-.05-3.53,.02-1.12,.06-1.44,.41-1.44,1.53,0,.69,.04,1.38,.06,2.07,.04,1.4-.03,2.79-.23,4.17-.04,.24,.06,.63-.39,.65-.52-.05-1.04-.14-1.57-.14-2.03-.02-4.07,0-6.1-.01-.56,0-.84,.26-.92,.78-.03,.21-.04,.43-.04,.65,.02,2.21,.05,4.42,.07,6.64,0,.14,.03,.29,.05,.43,0,.24-.02,.47-.03,.7-.05,2.42,.05,4.84-.12,7.26-2.53,0-5.05,0-7.57,0-.89,0-1.24-.3-1.24-1.18-.02-2.7-.07-5.41,.02-8.11,.04-1.17,.07-2.34,.07-3.52,.01-8.75,.06-17.5-.02-26.25-.03-3.02-.03-6.05-.08-9.07-.01-1.1,.22-1.35,1.3-1.32,1.85,.05,3.68-.18,5.53-.12,.47,.02,.93,.22,1.42,.01,.38-.16,.58-.37,.57-.79,0-1.74,.03-3.48-.02-5.23-.01-.44-.09-.89-.09-1.34,0-.89,.26-1.21,1.14-1.14,2.43,.19,4.85,.05,7.28,.1,.79,.01,1.07-.26,1.07-1.04,0-1.04,.06-2.08-.02-3.1-.1-1.21-.01-2.46-.54-3.61,.13-.15,.29-.09,.42-.09h8.39c.68,0,.89,.21,.89,.89V5.43c0,.51-.21,1-.01,1.53,.18,.47,.47,.77,.95,.79,1.94,.08,3.87-.07,5.8-.14,1.43-.05,2.86-.1,4.28-.05,1.62,.05,3.23,.16,4.85,.22,.59,.02,1.18,.06,1.77,.1,.5,.03,.85,.41,.76,1.24-.11,.91-.18,1.82-.2,2.73-.02,1.05,.02,2.11-.01,3.16-.03,1.08,.3,1.37,1.4,1.35,1.84-.03,3.69-.11,5.53-.1,3.81,.02,7.61-.07,11.41-.14,2.83-.05,5.65,0,8.48-.08,.35,0,.66,.16,1.04,.03,.53-.19,.8-.44,.81-1.01,.04-1.97,.12-3.94,.1-5.91-.02-1.4,.24-1.49,1.78-1.31,.88,.1,1.77,.07,2.65,0,.19-.01,.39-.06,.58-.06h3.76c.62,0,.85-.22,.83-.83-.06-1.71-.14-3.42-.22-5.12-.01-.3-.1-.59-.11-.9,0-.55,.13-.81,.87-.88,.09,0,.18,0,.27,0h24.35c1,0,1.34,.31,1.32,1.29-.02,1.34,.2,2.67,.11,4.01-.02,.35-.05,.71-.09,1.06-.12,1.25,.38,1.69,1.69,1.57,.34-.03,.67-.08,1.01-.08,.88,0,1.76,.02,2.63-.18,.31-.07,.6,.09,.9,.12,.46,.05,.92-.05,1.38-.04-.1,.45-.46,.45-.8,.45-1.66,0-3.32,0-4.98,0-.5,0-1.01-.06-1.51,.05-.21-.09-.43-.05-.65-.05h-12.24c-1.59,0-3.19,.01-4.79,.02-.05,0-.1-.03-.16-.03-2.63,0-5.25,.01-7.88,.02-.11,0-.21,.03-.32,.04-.39,.02-.54,.26-.54,.61,0,2.13,.01,4.27,.02,6.4-.08,.7,0,.86,.53,.85,2.89,0,5.79,0,8.68-.13,.18,0,.36,.03,.54,.03h10.26c.21,.22,.47,.1,.7,.09,.79-.03,1.59,.13,2.38-.09,1.75,.05,3.5,.06,5.25,0,.7,.26,1.43,.08,2.14,.1,1.16,0,2.32,.01,3.47-.01,.82-.02,1.24-.31,1.28-.92,.03-.47,.05-.95-.02-1.44-.07-.5,0-.99,.01-1.49,.04-.85,.1-1.71,0-2.57-.08-.67-.48-1.25-.41-1.94,2.73,0,5.45-.02,8.17,0,.89,0,1.2,.43,1.23,1.24,.16,4.75,.05,9.49,.1,14.24,.01,1.06,.26,1.56,1.52,1.51,4.82-.2,9.64-.09,14.47-.11,.88,0,1.19,.34,1.22,1.21,.09,2.23,.25,4.47,.22,6.7,0,.49,.41,.88,.9,.91,.13,0,.25,0,.38,0,4.7,0,9.41,.03,14.11-.02,1.34-.01,1.53,.83,1.31,1.76-.1,.4,.09,.74,.08,1.11-.03,1.26,0,2.53-.1,3.79-.06,.84,.35,1.21,1.19,1.21,2.25,0,4.51,.03,6.75-.01,.83-.01,1.29,.29,1.31,1.33v11.76c0,.61-.18,1.21-.1,1.83,.04,.32,.05,.64,.14,.94,.11,.4,.45,.5,.84,.5,1.87,0,3.74,0,5.61,0,.74,0,1.04,.29,1.04,1.03,0,4.77,0,9.55,0,14.32,0,.91,.49,1.33,1.32,1.33,7.83-.03,15.65-.02,23.48-.02,1.1,0,1.56,.38,1.46,1.44-.18,2.06-.08,4.12-.1,6.18,0,.96,.24,1.19,1.2,1.19h6.48c1.15,0,1.5,.36,1.58,1.51,.03,.48-.12,.92-.12,1.39,0,4.28,0,8.57,0,12.85,0,1.1,.43,1.44,1.53,1.25,.42-.07,.86-.1,1.28-.1,1.38,0,2.74-.2,4.12-.14,.23,0,.45,0,.69-.08,.6-.18,1.11,.29,1.11,.99,0,1.62,.09,3.24-.02,4.85-.15,2.26-.04,4.52-.08,6.78-.03,1.25,0,2.5,0,3.76,0,.87-.23,1.14-1.13,1.02-1.46-.19-2.93-.11-4.39-.07-.94,.03-1.87,.09-2.81,.08-.38,0-.28,.24-.28,.44v6.37c0,.75-.29,1.04-1.03,1.04-1.62,0-3.23,0-4.85,0-.03-.11-.12-.12-.21-.12-1.06,0-2.12,.02-3.18,.03-.8,0-1.6,0-2.4,0-1.83-.02-3.66-.06-5.5-.07-.69,0-.99,.31-1.02,1-.01,.29,0,.58,0,.87-.03,1.7-.07,3.41-.1,5.11-.01,.87,.27,1.12,1.13,1.27,.48,.09,.92-.03,1.38-.03,2.14,0,4.28,0,6.42,0,3.72,0,7.44,.01,11.16,.02,1.76,0,3.52,.04,5.28,0,1.65-.05,1.72,.82,1.59,2.05-.12,1.22-.12,2.44,0,3.67,.05,.46,.07,.94,0,1.4-.09,.6-.58,.9-1.35,.94-.11,0-.22,0-.33,0-15.43,0-30.87,.1-46.3-.03-14.75-.12-29.51,0-44.26-.08-.49,0-.98,.04-1.47,0-.66-.05-1.06-.41-1.05-1.08,0-.66,.1-1.34,.05-1.98-.06-1.01,0-2.02-.06-3.03-.01-.25-.02-.51,0-.76,.08-.78-.27-1.09-1.12-.98-.5,.07-1,.08-1.5,.08-1.54,0-3.09,0-4.63,0-.42,0-.81-.21-1.25-.02-.33,.15-.55,.3-.55,.68,.05,1.99-.21,3.97-.1,5.96,.05,.89-.43,1.1-1.14,1.21-.12,.02-.25,0-.38,0-47.26,0-94.52,0-141.79,0-.59,0-1.16-.09-1.74-.2-.75-.15-.91-.86-.84-1.44,.14-1.11,.12-2.21,0-3.32-.05-.55-.21-1.1-.13-1.66,.15-1.06,.51-1.32,1.58-1.41,.68-.06,1.37,.09,2.04,.09,7.39,.02,14.78,.01,22.17,.01,.84,0,1.01-.17,1.01-.99v-6.1c0-.21,.07-.44-.12-.61-.2-.45-.55-.65-1.04-.58-.2,.03-.4,0-.6,0-1.92-.05-3.83-.23-5.74,.15-.5,.15-1.02,.2-1.54,.2-.2-.03-.39-.08-.59-.09-2.09-.13-4.19-.29-6.29-.26-1.28,.02-2.58-.17-3.81,.36h-.03ZM125.04,22.17c-1.7,.09-3.4,.11-5.1,.28-.62,.06-.75,.26-.74,.9,.02,1.81,.05,3.62,.09,5.43,.03,1.12,.08,2.24,.15,3.37,.04,.77,.29,1,1,1.09,2.66,.35,5.31,.18,7.97-.03,.78-.06,1.01-.33,1.05-1.09,.01-.22,0-.44,0-.65,.06-2.73-.12-5.47,.05-8.21,.05-.8-.24-1.08-1.05-1.09-1.14-.01-2.28,0-3.42,0h0Zm-80.06,5.01h.01c0-1.45-.02-2.9,0-4.35,0-.49-.22-.66-.64-.66-.53,0-1.05,.04-1.58,.05-2.07,.04-4.13,.07-6.2,.11-.88,.02-1.18,.33-1.16,1.2,0,.3,.07,.61,.06,.92-.03,2.5,.1,5-.05,7.5-.07,1.11,.21,1.4,1.32,1.4,2.07,0,4.14,.02,6.2,.04,1.38,.01,2.01-.58,2.02-1.96,.01-1.41,0-2.83,0-4.24h0Z"/><path class="cls-7" d="M110.25,122.44c.04,.4,.15,.8,.13,1.22-.03,.97-.45,1.41-1.39,1.4-.27,0-.54-.02-.81-.03-.11-.13-.27-.08-.41-.08-2.88-.03-5.77-.06-8.65-.08-3.3-.02-6.6-.01-9.91-.02-.91,0-1.81-.01-2.72-.02-.57-.2-1.16-.18-1.75-.23-1.79-.15-3.57-.2-5.31,.33-1.22,.21-2.44,.35-3.67,.35-.9,0-1.8,0-2.71,0-.29,0-.63-.04-.72,.38v.04s-.05,0-.05,0c-.23-.07-.28,.05-.26,.24h0c-.3,.35-.31,.75-.15,1.17,0,.18,.01,.37,.02,.55,.04,.54-.12,1.09,.09,1.63,.1,.76,.15,1.53,.13,2.29,.07,.43-.15,.83-.12,1.25v.04s-.05,0-.05,0c-.51,.02-.98,.25-1.51,.24-2.89-.07-5.79-.04-8.68-.1-5.47-.1-10.95-.03-16.43-.04-.19,0-.5,.17-.57-.2,.16-.14-.14-.12-.08-.22,.43,.08,.58-.4,.99-.46,.57-.08,1.11,.02,1.67,.02,4.17,.01,8.34,0,12.52,.01,.22,0,.43-.03,.63-.13,.49-.25,.5-.34,.05-.63-.33-.22-.69-.4-1.03-.6-.3-.18-.37-.44-.36-.78,0-.34,.25-.35,.46-.44,.36-.15,.67-.35,.87-.7,.21-.15,.23-.39,.21-.61-.06-.68-.14-1.36-.21-2.04,.46-.31,.95-.55,1.49-.71,1.25-.36,2.54-.27,3.81-.4,1.46-.15,2.83-.44,3.8-1.71,.15,.34,.29,.66,.44,.96,.2,.39,.49,.59,.98,.45,.23-.06,.41-.21,.64-.26,.11-.04,.25-.05,.17-.23h0c.33,.04,.2-.22,.22-.36,.06-.44-.24-.83-.2-1.26,.09-1.26-.35-2.49-.24-3.75,.02-.21,.05-.55-.32-.61h0c.07-.24-.05-.33-.28-.33-.39-.3-.83-.45-1.33-.44-.2,0-.34-.09-.35-.3,.35-.1,.69-.23,.98-.46,.23-.1,.25-.32,.33-.52,.19-.48-.04-.96,0-1.43,.13-1.64,.13-3.29,.1-4.93-.02-.98-.26-1.12-.86-1.16-1.26-.14-2.53-.05-3.79-.1h-5.77c-.59,.02-1.18-.11-1.76,.08h-3.72c-.12-.13-.28-.14-.44-.09h0c-.5-.69-.44-1.49-.43-2.29,0-.4,.21-.78,.1-1.18-.15-.57-.11-1.15-.1-1.73,.02-.74-.03-1.48-.13-2.21-.04-.24,.04-.65-.43-.66h0c.06-.25-.14-.2-.27-.23-.46-.14-.92-.26-1.4-.21-1.88,.17-3.77,.1-5.65,.1-.43,0-.87-.01-1.28-.16h0c0-6.05,0-12.11,0-18.16,0-3.72,0-7.44,.02-11.15,0-1.12,.07-2.24,.03-3.37-.03-.78-.3-1.39-1.14-1.57-.36-.24-.77-.13-1.14-.1-2.01,.2-4.03,.05-6.05,.08,.43-.43,.99-.47,1.54-.52,.75-.06,1.5,.15,2.26,.1,.85-.05,1.71-.09,2.57-.02,.5,.04,1.04,.14,1.54-.1,.11,.64,.61,.65,1.08,.65,2.32,0,4.64-.02,6.96-.07,3.19-.06,6.39-.01,9.58-.02,18.5,0,37-.01,55.5-.02,1.26,0,1.62,.33,1.53,1.59-.05,.74-.04,1.47,0,2.21,.06,1.25,.03,2.5-.07,3.75-.07,.82,.32,1.18,1.13,1.16,1.69-.03,3.37-.02,5.06-.07,3.33-.1,6.67-.04,10.01-.14,.94-.03,1.33,.4,1.34,1.31,0,1.82,0,3.63,0,5.45,0,1.36,.38,1.74,1.75,1.73,2.51,0,5.01,0,7.52,0-.07,2.83,.12,5.66,.1,8.48h0c-2.52,.06-5.04-.12-7.55,.1-.86,.08-1.2,.51-1.02,1.35,.2,.94,.3,1.89,.3,2.85,0,1.47,0,2.94,0,4.41-2.5,.02-5,.03-7.49,.05-.12-.05-.24-.05-.34,.05-.63,.22-.73,.4-.57,1.05,.27,1.11,.39,2.23,.37,3.38-.03,1.35-.06,2.7-.1,4.06-.3,.01-.61,.02-.91,.04-2.62,.1-5.24,.2-7.86,.33-.77,.04-1.17,.51-1.17,1.35,0,2.15,0,4.31,0,6.46l-.13,.13c-.35-.37-.79-.5-1.28-.44-1.58,.19-3.16,.1-4.73,.1-.72,0-1.43,.15-2.15,.13-.5-.01-.77,.35-.98,.76-.03,.04-.1,.08-.1,.11,0,1.6,0,3.21,0,4.81,0,.02,.05,.05,.07,.07h-.01Zm-10.56-39.2c-.33-.17-.68-.23-1.05-.22-3.1,.07-6.2-.05-9.3,.08-2.75,.11-5.52,.02-8.28,.02v-6.96c0-.92-.27-1.19-1.2-1.19h-15.63c-.25,0-.5,.01-.75,.1-.28,.1-.4,.27-.4,.56,0,1.05,0,2.09-.09,3.14-.12,1.5,0,3,.54,4.43-2.04,.09-4.08,.18-6.13,.25-.74,.03-1.49-.05-2.23,.02-1.18,.11-1.87,.04-1.77,1.81,.05,.92,.11,1.84,.09,2.77-.02,.74-.09,1.48-.1,2.22,0,.72,.32,1.15,.86,1.24,.08,.15,.22,.1,.34,.1,1.84,0,3.69,0,5.54-.01,.53,0,1.05-.03,1.58,.02,1.06,.11,1.28,.12,1.26,1.27-.02,1.38,0,2.75,0,4.13,0,.85-.17,1.69-.12,2.54,.02,.4,.09,.76,.55,.88,.15,.2,.37,.1,.55,.1,1.66,0,3.32,0,4.98,0,.81,0,1.62-.05,2.43,.04,.56,.21,.59,.69,.52,1.16-.13,.9-.1,1.81-.08,2.71,.02,.96-.14,1.91-.12,2.87,0,.59,.34,.91,.86,1.07,.64,.19,1.25-.1,1.87-.03,2.14,0,4.27,0,6.41,.01,.81,.34,.88,.44,.88,1.37,0,.85,0,1.7-.02,2.56-.02,1.03-.08,2.06-.09,3.09,0,.49,.19,.88,.75,.94,.08,.15,.22,.1,.34,.1,5.55,0,11.1,0,16.65-.01,.13,0,.25,.01,.38,.01,.83,0,1.02-.17,1.22-.99,.1-.43-.06-.82-.06-1.24,.02-1.38,.01-2.76,0-4.14,0-1.04,.08-1.17,1.1-1.49,.78,0,1.55,.02,2.33,0,.27,0,.57,.11,.82-.1l.55-.02c.7,0,1.41,.03,2.11,0,.31,0,.64,.13,.93-.1,.7-.02,.97-.29,.99-.99,0-.18,0-.36,0-.55,.01,0,.04-.02,.04-.03,0-.03-.02-.05-.03-.08v-.88c.19-.65,.07-1.32,.08-1.98,0-.5,.12-1-.08-1.49-.1-1.27,0-1.49,.86-1.87,2.71,0,5.42,0,8.13,.01,.14,0,.3,.03,.4-.11,.36-.03,.52-.26,.62-.58,.13-.37,.1-.75,.11-1.13,.03-1.69-.06-3.37,.08-5.06,.13-1.48-.26-1.84-1.75-1.84-.81,0-1.63,.05-2.44,.09-2.01,.07-4.02,.03-6.02-.21,0-1.45-.03-2.91,0-4.36,.03-1.03,.15-2.05,.2-3.08,.02-.46-.15-.74-.69-.87-.51-.12-.97,.04-1.45,.04-2.33-.01-4.65,0-6.97,0-.26-.41-.68-.13-1.02-.22h-.11Z"/><path class="cls-5" d="M7.08,125.3c1.23-.52,2.53-.34,3.81-.36,2.1-.03,4.19,.13,6.29,.26,.2,.01,.39,.06,.59,.09,.06,1.15,.5,2.26,.4,3.43,0,.01,.02,.03,.03,.05,0,1.19,.02,2.38,.02,3.58-.15,.22-.36,.39-.44,.65-1.39,.06-2.78-.06-4.17,.06-1.35,.12-2.72,.14-4.06,.02-1.02-.09-2-.57-2.63-1.45-.4-.56-.2-1.24-.1-1.88,.08-.46,.15-.93,.28-1.37,.15-.48,.05-.88-.26-1.25-.05-.05-.07-.13-.1-.19-.41-.77-.33-1.14,.35-1.65h0Z"/><path class="cls-13" d="M130.74,16.04h-10.26c-.18,0-.36-.02-.54-.03v-.23s.1-.05,.14-.08c5.56-.04,11.13,.1,16.69-.1,.41-.01,.52-.14,.51-.53-.02-2.27,0-4.53,0-6.8,.5-.11,1.01-.05,1.51-.05,1.66,0,3.32,0,4.98,0,.35,0,.71,0,.8-.45,.32-.18,.65-.2,.97,0-.07,.69,.33,1.28,.41,1.94,.1,.86,.04,1.72,0,2.57-.02,.5-.08,1-.01,1.49,.07,.48,.05,.96,.02,1.44-.04,.61-.46,.9-1.28,.92-1.16,.02-2.32,0-3.47,.01-.7-.27-1.43-.08-2.14-.1-1.75,.06-3.5,.05-5.25,0-1.03,0-2.06,0-3.08,0h0Z"/><path class="cls-10" d="M44.41,65.26c-.5,.24-1.04,.13-1.54,.1-.86-.06-1.72-.03-2.57,.02-.76,.05-1.5-.17-2.26-.1-.55,.05-1.12,.09-1.54,.52-.36,.16-.72,.52-1.09,.02,.17-2.42,.07-4.84,.12-7.26,0-.24,.02-.47,.03-.7,.73,.15,1.47,.11,2.2,.11h5.42c.34,0,.76-.1,1.01,.06,.33,.21-.05,.65,.07,.99-.53,1.43-.21,2.89-.22,4.35,0,.4,.25,.16,.41,.16,.19,.59,.15,1.17-.02,1.74h-.01Z"/><path class="cls-5" d="M231.97,124.96c1.06,0,2.12-.02,3.18-.03,.09,0,.18,.01,.21,.12,.21,.92,.28,1.84,.15,2.78-.11,.76-.16,1.53-.44,2.26-.21,.57-.52,1-1.19,1.11-.78,.13-1.18,.72-1.42,1.41-.11,.32-.27,.44-.58,.41,0-.22-.02-.45-.03-.67,0-.98,.02-1.95,.03-2.93,.13-1.01,.07-2.03,.03-3.04,0-.36,.01-.73,.02-1.09,.01-.11,.02-.22,.04-.32h0Z"/><path class="cls-7" d="M231.85,132.35c0,.22,.02,.45,.03,.67,0,.03-.01,.05,0,.09-2.14,0-4.28,.02-6.42,0-.46,0-.9,.11-1.38,.03-.85-.15-1.14-.4-1.13-1.27,.03-1.7,.07-3.41,.1-5.11,0-.29,0-.58,0-.87,.03-.69,.33-1,1.02-1,1.83,0,3.67,.04,5.5,.07-.38,.11-.76,.21-1.13,.34-1.13,.42-2.24,.67-3.4,.03-.6-.33-1.2,.1-1.24,.79-.01,.23,0,.46,.05,.7,.09,.46,.24,.92,.15,1.39-.17,.93-.23,1.86-.2,2.81,.04,1.06,.58,1.68,1.6,1.76,.5,.04,1-.07,1.51-.13,1.58-.17,3.14-.46,4.73-.51,.07,.07,.14,.14,.21,.21h0Z"/><path class="cls-7" d="M17.77,133c.08-.26,.3-.43,.44-.65,.04-.03,.07-.06,.11-.09,2.12,.43,4.27,.5,6.42,.41,.69-.03,1.15-.49,1.31-1.17,.39-1.6,.42-3.21,.04-4.82-.25-1.05-.69-1.4-1.78-1.41h-4.19c-.3,0-.58-.03-.83-.19,1.9-.38,3.82-.19,5.74-.15,.2,0,.4,.03,.6,0,.5-.06,.84,.13,1.04,.58,0,2.13,.02,4.27,.01,6.4,0,.7-.36,1.08-.99,1.08-2.64,0-5.29,0-7.93,0h0Z"/><path class="cls-11" d="M110.47,49.03c.63,.45,1.39,.38,2.08,.42,2.5,.14,5-.05,7.5-.06,5.43-.05,10.86-.04,16.28-.05,.45,0,.91,.04,1.29,.34,0,2.41,0,4.82-.01,7.24,0,1.05,.34,1.38,1.41,1.39,1.3,0,2.6-.12,3.91-.11,3.39,.02,6.78,0,10.17-.01,.57,.06,1.15,.27,1.64-.22,2.89,0,5.79,.01,8.68,.02,0,1.63,0,3.26,.02,4.88,.01,1.79,.84,2.77,2.48,2.98,.22,.13,.2,.35,.23,.56,.09,.62,.03,1.3,.55,1.76,.41,.36,.2,.48-.18,.56-.12,.03-.25,.03-.38,.05-.91,.19-1.09,.53-.97,1.45,.21,1.5-.2,2.79-1.44,3.74-.27,.21-.34,.39-.22,.67-.03,.87-.06,1.74-.08,2.6-.04,1.92-.06,3.84-.09,5.76-1.29,.04-2.59,.14-3.89,.1-.8-.02-1.61-.1-2.42-.08-.46,.01-.93,.06-1.35,.34h1.08c-.67,.16-1.31,.1-1.92-.24-.05-.11-.11-.22-.16-.34,.3-1.36,.25-2.75,.29-4.13,.03-1.05-.08-2.13-.06-3.19,0-.4-.1-.54-.51-.53-.99,.03-1.98-.09-2.98-.18-1.46-.13-2.93-.22-4.39-.11-.99,.07-1.18-.05-1.18-1.06,0-2.14,0-4.27,0-6.41,0-.4-.1-.56-.52-.52-.45,.05-.9,0-1.33-.2-.2-.36-.53-.49-.92-.44-.45,.05-.89,0-1.34,0-2.79,0-5.59,0-8.38,0-.29,0-.58,.09-.86,.06-.9-.1-1.8-.16-2.68,.15-.33-.46-.46-.99-.42-1.53,.11-1.59,.11-3.18,.1-4.77,0-1.23-.5-1.76-1.51-1.95-.43-.08-.86-.12-1.29-.12-2.68-.01-5.36-.01-8.05-.01-1.58,0-3.15,.02-4.73,.01-.79,0-1.06-.3-1.07-1.09,0-.45,.02-.91-.02-1.35-.05-.51-.03-1.03-.22-1.52-.02-.23-.17-.31-.37-.3-.51,.03-1.01-.1-1.51-.1-2.68-.01-5.36,0-8.04-.02-.43,0-.61,.11-.54,.55-.69,0-1.38,0-2.07,0-.17-.2-.4-.22-.64-.22h-10.47c-.3,0-.58,.04-.76,.32-3.66,.1-7.33,.05-10.99,.09-5.84,.05-11.68,.11-17.52-.04-1.68-.04-3.37-.1-5.06,.07-.88,.09-1.09-.15-1.09-.97,.24-.53,.06-1.09,.09-1.63,.03-.09,.06-.17,.08-.25,.31-1.19-.1-1.72-1.3-1.73-2.35-.01-4.71,.06-7.05-.1v-6.86c0-.83,.26-1.09,1.11-1.09,2.27,0,4.54,0,6.81,0,.41,0,.7-.12,.81-.55,.38,.2,.79,.17,1.16,.06,1.25-.38,2.49-.15,3.73,0,1.02,.12,2.05,.15,3.04-.18,.65-.21,.95-.69,.99-1.38,.02-.42-.1-.82-.13-1.24-.03-.65,.13-1.31-.09-1.95,0-.26,0-.51-.02-.77,0-.55,.03-1.11,0-1.67-.02-.38,.13-.77-.1-1.14h-7.19c-.63,0-1.25,0-1.88,0-.03,0-.06,0-.09-.02,0-1.79,0-3.57,0-5.36,0-.83,.1-1.66,.24-2.48,.15,0,.29,0,.43,0,.03-.04,.09-.08,.09-.12v-4.77c-.16,.25-.06,.46-.12,.65-.16-.19-.09-.42-.08-.63,.02-.43,.15-.87,.06-1.27-.07-.34-.05-.6,.11-.87,.3-.49,.33-.97,.02-1.47,.76-.21,1.54-.13,2.3-.07,1.19,.1,2.38,.02,3.57,.06,.15,0,.29,.01,.43,.02-.15,.14-.35,.08-.52,.08-.91,0-1.81,0-2.72,0-.15,0-.38-.08-.42,.13-.05,.23,.17,.32,.35,.42,.4,.22,.78-.02,1.17-.02,2.99,.02,5.99,0,8.98,0,.28,0,.55,.02,.8,.13,.64,.27,1.26,.34,1.93,.03,.47-.21,.85-.02,.89,.38,.05,.41,.13,.81,.13,1.24-.02,1.56-.01,3.12,0,4.68,0,1.09,.55,1.66,1.65,1.72,.2,0,.4,0,.6,0h17.25c0,.25-.01,.51-.02,.76,0,0-.03,.02-.03,.03,0,.02,.02,.05,.04,.07,0,.33,.01,.65,.02,.99v.12c0,.25,0,.5,0,.74v1c.03,.83,.15,1.65,.1,2.48-.01,.25-.03,.52,.05,.75,.13,.39,0,.48-.37,.48-.98,0-1.96,0-2.94,0-2.74,0-5.48,0-8.21-.01-.11,0-.22,0-.3,.09-2.18,0-4.37,.03-6.56,0-.52,0-.74,.14-.65,.66-.12,.19-.13,.37,0,.55v2.6s-.04,.03-.03,.04c0,.03,.03,.05,.04,.08-.02,.81,.04,1.62-.08,2.43-.12,.86,.26,1.55,1.35,1.49,1.93-.1,3.86-.23,5.8-.25,.53,0,1.08-.1,1.62-.08,.52,.02,.92,.22,1.05,.81,.15,.65,0,1.29-.02,1.93-.07,1.63-.08,3.25-.12,4.88,.04,.04,.07,.07,.11,.1,3.04,.03,6.08,.06,9.12,.09,.19,0,.4,.06,.58-.08,.32,.01,.44-.15,.44-.46,0-2.16,0-4.32,0-6.49,2.47-.04,4.93-.08,7.39-.12,1.11-.02,1.42-.34,1.42-1.43,0-2.14,0-4.28,0-6.42,.1,0,.19-.02,.24-.12,.4,.05,.55-.12,.55-.53s-.11-.75-.11-1.13c0-2.1,0-4.21,.01-6.31,.21-.03,.43-.07,.65-.07,2.72-.08,5.43-.15,8.15-.23-.05,.33-.01,.66-.01,.99,.02,3.29,.02,6.59,.02,9.88,0,.2,.03,.4-.13,.56-.43,.01-.53,.28-.53,.65,0,2.26,0,4.51,0,6.77,0,.45,.18,.68,.65,.65,0,1.27,0,2.53,.02,3.8,0,.38,0,.78,.42,.99l.05,.03ZM63.19,30.02c0-1.51,0-3.03,0-4.54,0-.17-.04-.41-.29-.56,.4,1.72,.07,3.41,.3,5.1Zm-.6-5.31s.04,.05,.06,.07c.04,.03,.08,.02,.07-.03,0-.03-.03-.07-.05-.07-.03,0-.06,.02-.09,.04h0Z"/><path class="cls-5" d="M45.43,49.58c2.35,.16,4.7,.08,7.05,.1,1.2,0,1.61,.54,1.3,1.73-.02,.09-.05,.17-.08,.25-.21,.53-.05,1.09-.09,1.63,0,.82,.21,1.05,1.09,.97,1.69-.16,3.37-.11,5.06-.07,5.84,.15,11.68,.1,17.52,.04,3.66-.04,7.33,.02,10.99-.09,3.96,.02,7.91,.08,11.87-.1,.69,0,1.38,0,2.07,0,.23,.01,.47,.04,.7,.03,2.11-.04,4.22-.08,6.34-.11,1.14-.02,2.28-.03,3.41-.05,.19,.49,.16,1.01,.22,1.52,.05,.45,.02,.9,.02,1.35,0,.79,.27,1.08,1.07,1.09,1.58,0,3.15-.01,4.73-.01,2.68,0,5.36,0,8.05,.01,.43,0,.87,.05,1.29,.12,1.02,.19,1.5,.72,1.51,1.95,.01,1.59,.02,3.18-.1,4.77-.04,.54,.09,1.07,.42,1.53,.12,.17,.3,.1,.45,.1,2.79,.04,5.58,.09,8.37,.12,1.79,.02,3.57,0,5.36,0,.42,.19,.88,.24,1.33,.2,.41-.04,.52,.12,.52,.52-.02,2.14,0,4.27,0,6.41,0,1,.19,1.14,1.18,1.06,1.46-.11,2.93-.01,4.39,.11,.99,.09,1.98,.21,2.98,.18,.41-.01,.52,.13,.51,.53-.02,1.06,.09,2.13,.06,3.19-.04,1.37,.01,2.77-.29,4.13h-4.14c-1.59,0-3.19,0-4.79,.01-2.51,0-5.01-.01-7.52,0-1.37,0-1.75-.37-1.75-1.73,0-1.82,0-3.63,0-5.45,0-.92-.4-1.34-1.34-1.31-3.34,.1-6.68,.05-10.01,.14-1.69,.05-3.37,.04-5.06,.07-.81,.01-1.2-.35-1.13-1.16,.1-1.25,.14-2.5,.07-3.75-.04-.74-.05-1.47,0-2.21,.09-1.26-.26-1.59-1.53-1.59-18.5,0-37,.01-55.5,.02-3.19,0-6.39-.05-9.58,.02-2.32,.05-4.64,.06-6.96,.07-.48,0-.98,0-1.08-.65,.17-.58,.21-1.16,.02-1.74,.15-.21,.11-.45,.1-.68-.04-1.04-.08-2.08-.14-3.12-.01-.24,.03-.5-.15-.71-.12-.33,.26-.78-.07-.99-.25-.16-.66-.05-1.01-.06h-5.42c-.74,0-1.47,.03-2.2-.11-.02-.14-.05-.29-.05-.43-.03-2.21-.05-4.42-.07-6.64,0-.22,0-.44,.04-.65,.07-.52,.35-.79,.92-.78,2.03,.02,4.07,0,6.1,.01,.52,0,1.04,.09,1.57,.14,.45,.23,.91,.28,1.39,.07h0Z"/><path class="cls-12" d="M154.84,33.45c.14,0,.28,0,.42,.01,.15,.24,.4,.35,.64,.47,.47,.22,.88,.05,1.11-.46,2.03-.03,4.06-.05,6.1-.08-.47,.16-.96,.03-1.44,.08-.14,.01-.32-.06-.37,.13-.06,.23,.17,.25,.3,.3,.69,.25,1.22-.13,1.74-.51,1.65,.12,3.3,.05,4.95,.04,.94,0,1.89-.05,2.83-.06,.31,0,.6,.12,.85,.32,.13,.3,.15,.64,.09,.94-.19,.94-.06,1.9-.09,2.84-.22,.46-.44,.92-.27,1.45,.16,.52,.26,1.04,.27,1.59,0,.66,.37,1.01,1.02,1.12,.38,.06,.74,.01,1.12,0,1.69-.03,3.37-.02,5.06-.01,.53,0,.85,.26,1.01,.8,.14,.44-.05,.82-.05,1.23,.03,1.59-.03,3.18,.1,4.77,.07,.95,.37,1.29,1.34,1.24,1.48,.1,2.95-.1,4.42-.15,1.14-.04,2.29-.1,3.4,.32,.05,.24,.24,.44,.23,.71-.08,1.48,.19,2.95,.1,4.43-.04,.66-.12,1.32-.11,1.99,0,.42,.11,.74,.55,.86,.55,.13,1.11,.05,1.67,.05,1.94,0,3.88,.04,5.82,.07,.12,0,.26-.03,.34,.11-.19,.24-.06,.51-.09,.77v1.94c.02,.63-.03,1.26-.12,1.89-.15,.92-.19,1.87-.65,2.71-.38,.69-.79,.89-1.55,.8-1.65-.2-3.32-.15-4.98-.15-.43,0-.77,.19-.86,.66-.04,.06-.09,.12-.1,.19-.21,1.31-.32,2.61-.14,3.94,.15,1.17,.17,2.35,.23,3.53,.01,.3,.04,.55,.44,.5,2.32,.1,4.63,.11,6.95,.1,.23,0,.47-.05,.7,.05-.2,.81-.33,1.64-.3,2.46,.06,2.01,.53,3.98,.74,5.99,.02,.21,.12,.25,.28,.23,.74-.07,1.47,.17,2.21,.12,.06,.06,.11,.15,.18,.19,.48,.32,1,.15,1.52,.14,2.97-.03,5.95-.01,8.92,0,.11,0,.25-.05,.35,.21-.77,0-1.49,.09-2.22,.1-1.43,.04-2.86,0-4.3,.01-.91,0-1.1,.32-.67,1.12,.47,.85,.31,1.62-.47,2.18-.46,.33-.61,.72-.41,1.26,.38,1.03,1.07,1.72,2.1,2.12,.37,.14,.84,.09,1.08,.5-.38,0-.75,.01-1.13,.01-.26,0-.29,.16-.28,.36,0,2.53,0,5.06,0,7.59-.31-.19-.33-.5-.32-.81,0-1.1-.02-2.21,0-3.32,.03-1.14-.15-2.27-.23-3.4-.03-.38-.19-.57-.63-.55-.67,.04-1.34,0-2.01,0-1.05,0-2.06-.23-2.97-.72-.54-.29-.86-.15-1.23,.18-.12-.18-.31-.08-.46-.13-.01-.01-.02-.03-.04-.04-1.9-.54-3.82-.19-5.73-.14-.38,0-.02,.2,0,.3-.79,.23-1.59,.6-2.39,0,.02-1.35,.15-2.7,.1-4.05-.01-.4-.19-.78-.09-1.18,.16-.6,.12-1.23,.06-1.83-.05-.41,0-.99-.63-1.11-.15-.45-.55-.41-.89-.41-1.69,0-3.37,0-5.05,0-.15,0-.29,.02-.43,.04-1.08,.1-1.59-.24-1.59-1.26,.01-2.17,0-4.34,0-6.52,0-2.55,0-5.11,0-7.65,0-.35-.15-.41-.46-.42-.43,0-.87,.1-1.29-.07,.44,0,.89-.03,1.33-.01,.33,.01,.46-.1,.41-.43,0-2.28,0-4.56,0-6.85,0-.88-.46-1.38-1.35-1.32-1.46,.1-2.93,.09-4.39,.1-1.07,0-2.14,0-3.21,.01h0v-.34c.5-1.12,.52-2.33,.5-3.49-.01-1.26-.1-2.52-.17-3.78-.05-.84-.17-1-1.03-1-2.5,.02-5-.1-7.49,.22-.11-1.14,.01-2.28-.22-3.41-.16-.79-.05-1.55,.14-2.31,.32-1.36,0-1.83-1.39-2-.05,0-.11-.02-.16-.03-.67-.23-1.38-.24-2.07-.3-1.66-.13-3.33,.1-5,.09-.27,0-.36,.12-.32,.37-.05,.06-.09,.12-.13,.18-.15,0-.26,.08-.32,.23-.03,.04-.09,.08-.09,.11,0,1.34,0,2.67,0,4.01,0,.04,.06,.08,.09,.11,0,.2,.02,.39,.06,.59,.14,.61-.24,1.12-.87,1.15-.7,.03-1.41,.08-2.11,.1-1.25,.03-2.5,.03-3.69,.5-.35,.14-.55,0-.6-.38-.1-.55-.17-1.1-.4-1.63-.43-.99-.64-1.99-.48-3.11,.19-1.32,.35-2.64,.53-3.96,.14-1.08,.25-2.16,.23-3.23-.04-1.75-.15-3.5-.19-5.26-.03-1.52,.15-3.04,.12-4.56,0-.53,0-1.05,0-1.58,.25-.03,.5-.06,.76-.09,.16,.17,.37,.1,.56,.1,1.99,0,3.98,0,5.98,0-.04,.41,0,.81,.12,1.2v1.72c-.06,.22-.15,.43-.15,.68,.02,.84-.05,1.67,.03,2.5,.05,.51,.03,1.04,.23,1.53-.07,.35,.06,.53,.43,.52h0Z"/><path class="cls-6" d="M197.99,90.97c.37-.32,.69-.47,1.23-.18,.91,.49,1.92,.72,2.97,.72,.67,0,1.34,.03,2.01,0,.44-.03,.6,.17,.63,.55,.08,1.13,.26,2.26,.23,3.4-.03,1.1,0,2.21,0,3.32,0,.32,.01,.62,.32,.81-.16,.56-.02,.86,.51,.95,.48,.08,.96,.13,1.44,.14,1.57,.03,3.13,.03,4.7,.04,.04,.02,.08,.05,.11,.07,.57,.06,.73,.46,.75,.95,.02,.42,.01,.84,0,1.25-.05,1.37,.07,2.75-.09,4.12-.13,1.09,.39,1.6,1.48,1.51,.54-.05,1.08-.06,1.62-.11,1.97-.21,3.94-.27,5.91-.15,.38,.02,.6-.21,.67-.56,.04-.19,0-.4-.01-.6,0-1.51,0-3.03,0-4.54,0-.12,.05-.26-.1-.34v-.65c0-1.02,.3-1.34,1.32-1.31,.81,.02,1.63,.08,2.44,.1,1.94,.04,3.88,.01,5.81-.2,.15,.53,.6,.52,1,.53,1.27,.01,2.53,0,3.8,.01,.64,.01,1.27-.15,1.89-.1,1.09,.09,1.52,.07,1.49,1.49-.03,1.41-.04,2.83,0,4.24,.02,.73-.11,1.36-.66,1.86-2.14,0-4.28,0-6.42,0-.69,0-1.09,.35-1.11,.99-.08,2.11,.14,4.22-.23,6.34-.09,.53-.22,.52-.57,.52-.85,0-1.7,0-2.56,0-.18,0-.43-.07-.45,.24-.18,0-.36,0-.55-.01-1.41,0-2.82,0-4.23,0-.12,0-.26-.05-.34,.1-.91,0-1.82,.01-2.73,.02-1.16,0-2.32,0-3.48-.01-1.54-.03-1.66,.77-1.51,1.85,.12,.89,.12,1.77,.05,2.64-.08,1.06,.02,2.1,.2,3.14,.09,.54-.14,.86-.69,.87-.74,0-1.49,0-2.23,0-.17,0-.36-.09-.5,.09-1.67,0-3.34,.01-5.01,.02h-.32c-2.87-.27-5.76,.04-8.63-.22-.28-.55,0-1.09,0-1.63,0-2.58,.01-5.16,.02-7.74,.03-.08,.09-.16,.09-.25,0-1.49,0-2.98-.02-4.47v-1.02c.02-.13,.05-.25-.07-.35-.12-.6-.55-.76-1.08-.74-.61,.02-1.22,.08-1.84,.09-1.54,.01-3.08,0-4.61,0-.79,0-.96,.18-.97,.99,0,.94-.02,1.88-.03,2.82-.16,.29-.07,.59-.05,.89-.02,1.26-.04,2.53-.05,3.78-1.09-.03-2.17-.07-3.25-.09-1.84-.03-3.69,.03-5.53-.1l-.05-.02c.03-1.92,.05-3.84,.07-5.76,0-.43-.07-.86-.06-1.29,.03-.68,.27-1,.81-1,.62,0,1.22-.08,1.83-.15,.67-.07,1.34-.03,1.99-.1,.84-.1,1.68-.16,2.52,0,.67,.13,1.28-.36,1.34-1.04,.15-1.67,.04-3.35,.07-5.02,0-.09-.02-.18-.03-.27-.2-2.15,.19-2.33,1.87-2.26,.05,0,.11,0,.16,.02,.94,.15,1.88,.14,2.83,0,.6,0,1.2-.09,1.79,0,1.79,.25,2.02-.59,2.03-1.74,0-2.48,.01-4.95,.02-7.43h.03Z"/><path class="cls-13" d="M111.98,133.16c-.18,0-.36-.01-.54,0-.48,.01-.67-.27-.62-.69,.14-1.15,.11-2.31,.25-3.45,.13-.99-.09-1.95,.03-2.93,.12-.98,.31-1.24,1.32-1.24,.99,0,1.99,.13,2.98,.06,1.3-.09,2.56-.06,3.8,.36,.55,0,1.09,0,1.63,0,1.83,.05,3.66-.05,5.49,.07,.75,.05,1.52,.09,2.28-.04,.74-.12,.83-.27,.85-1,.02-.79,0-1.59,.06-2.38,.12-1.62,.15-3.25-.4-4.83,.01-.1,.03-.2,.04-.3,1.04-.23,2.1-.36,3.18-.35,2.05,0,4.1,0,6.15,0h6.26c1.14,0,1.63-.55,1.47-1.69-.06-.42-.08-.83-.08-1.24v-4.9c.02-.1,.05-.21,.07-.31,.96-.07,1.4-.59,1.08-1.29-.22-.48-.64-.71-1.15-.8,0-.25,.01-.51,.02-.76,.41-.21,.4-.61,.41-.98,.02-.67,0-1.34,0-2.01,.01-.77,.4-1.41,.94-1.56,.47-.12,.96-.23,1.44-.13,.65,.14,1.29,.08,1.94,.09,.51,0,1-.13,1.41-.46,.4-.22,.83-.29,1.29-.29,.35,0,.7,.17,1.05,0,.26,.27,.57,.34,.94,.31,2.32-.19,4.64-.07,6.96-.1,.62,0,.92,.33,.92,.96,0,.64,0,1.27,0,1.9,0,1.29,.03,2.58-.04,3.86-.05,1.04,.05,1.22,1.09,1.23,2.16,0,4.32,0,6.48,.01,.67,.06,.74,.4,.69,1.04-.09,.95-.23,1.95,.28,2.86,0,.04,0,.07,0,.11,0,.25,0,.5,0,.76-.5,.01-.63,.35-.66,.76-.04,.55,.11,1.1,0,1.65-.27,.39-.65,.61-1.1,.74-.33-.18-.68-.19-1.04-.2-1.55-.05-3.12,.16-4.65-.15-.46-.1-.6,.08-.62,.48-.22,.04-.44,.07-.65,.1-2.3,0-4.61,0-6.91,0-.98,0-1.3,.29-1.36,1.27-.03,.5-.06,1.02,0,1.52,.2,1.49,.12,2.95-.25,4.41-.16-.01-.27,.1-.38,.19-.67,.53-1.43,.69-2.28,.69-3.6-.03-7.21,0-10.81,0-.46,0-.9,.03-1.23,.43-1.75,.04-2.41,.71-2.4,2.46,0,.79,0,1.58,.09,2.38,.15,1.13-.27,2.2-.43,3.3-.47,.01-.94,.04-1.41,.04h-15.72c-2.45,0-4.9,.02-7.34,.03-.28-.05-.55-.05-.83,0h0Zm1.42-7.87v.06h2.24v-.06h-2.24Z"/><path class="cls-9" d="M44.79,100.06h0c-.13,.25-.12,.53-.12,.79,0,2.16,.02,4.32,.03,6.47,0,1.14-.23,1.38-1.35,1.38-2.21,0-4.42,0-6.64,0-.91,0-1.21,.27-1.29,1.17-.08,.84-.17,1.69-.18,2.54-.04,2.7,0,5.4-.08,8.1-.04,1.49-.07,2.97,.27,4.43,.02,.02,.02,.05,0,.07-.09-.02-.17-.06-.26-.06h-4.35c-.1,0-.22-.03-.29,.1-.29,0-.58,.01-.88,.02h-1.75c-.72-.15-.9-.34-.88-1.05,.05-1.9-.06-3.8,.04-5.69,.06-1.15-.43-1.68-1.55-1.77-.08-.15-.22-.1-.34-.1-2.25,0-4.5,0-6.74,0-.65-.11-.96-.36-.95-.98,.05-2.13-.18-4.28,.2-6.4,.03-.16,.08-.31,.13-.47,.9,.02,1.79-.17,2.69-.2,1.85-.08,3.69-.16,5.55-.12,.16,0,.31,0,.48-.07,.46-.18,.24-.52,.22-.82-.05-1.18-.1-2.35-.11-3.53-.01-1.81,.05-3.62,.06-5.44,.05-4.99,.02-9.98,.02-14.97,1.99-.01,3.99-.02,5.98-.04,.49,0,.98-.03,1.46-.07,.5-.04,.93,.05,1.28,.43-.04,1.38-.19,2.77-.2,4.14-.06,3.86-.02,7.71-.01,11.56,0,.2-.04,.41,.21,.5,.78,.01,1.55,.03,2.33,.04,2.35,0,4.7,.01,7.05,.02h0Z"/><path class="cls-4" d="M198.19,124.85c2.87,.26,5.76-.05,8.63,.22-.37,1.17-.27,2.38-.2,3.57,.09,1.4,.5,2.81-.25,4.16h0c-.31-.05-.59,.1-.87,.2-1.16,.23-2.34,.1-3.51,.12-1.27,.02-2.53,0-3.8-.02v-.87c-.41,.4-.81,.56-1.28,.57-2.77,.04-5.55,0-8.32,.08-2.03,.06-4.08-.18-6.11-.26-3.31-.13-6.63-.02-9.94,.15-2.29,.12-4.6,.12-6.9-.08-.74-.06-1.15-.33-1.2-.81-.04-.41-.09-.86,.02-1.24,.31-1.14,.13-2.25-.08-3.37-.14-.75-.44-1.5-.18-2.29,0-.05,0-.1,.01-.14,1.78,0,3.56,.15,5.34,.05,.04,.05,.06,.04,.09,0,.84-.08,1.7-.1,2.53-.35h.2c.35-.24,.47-.6,.44-.99-.07-1.23-.06-2.45,0-3.67,.05-1.05,.42-1.65,1.28-1.83,.4-.08,.81-.15,1.24-.16,.74,0,1.48-.07,2.22-.1,.34-.01,.47-.23,.58-.49,.11-.28-.2-.24-.29-.37,.33,0,.65,0,.99,0,.04,.63,.23,.85,.72,.84,.49,0,.72-.26,.69-.75,.18,0,.36,0,.54-.01l.05,.02c.09,.66,.17,1.33,.18,1.99,.01,1.65,0,3.29-.1,4.94-.05,.92,.4,1.34,1.32,1.33,.87-.01,1.74-.1,2.6-.11,1.09-.02,2.18,0,3.27,0,1.12,0,1.41-.3,1.42-1.42,.02-2-.25-4.01,.13-6,.12,.2,.07,.42,.07,.64,0,2.1,0,4.2,0,6.3,0,.34,.04,.47,.45,.41,.68-.1,1.37-.14,2.06-.15,1.81-.02,3.62-.01,5.44-.02,.19,0,.4,.08,.56-.1h-.03Z"/><path class="cls-5" d="M212.03,100.7c-1.57-.01-3.13-.01-4.7-.04-.48,0-.97-.06-1.44-.14-.53-.09-.67-.38-.51-.95,0-2.53,0-5.06,0-7.59,.05,0,.11-.02,.16-.02,5.39,0,10.78-.01,16.17-.01,.47,0,.78-.13,.79-.66,.02-.62,.05-1.23,.08-1.84,.09-1.81,.25-3.62-.04-5.42l.16-.55c2.63-.01,5.27-.03,7.91-.04,.37,0,.72,.03,1.03,.25,.14,.24,.22,.48,.22,.77,0,5.12-.05,10.25,.1,15.38v.4c-1.93,.21-3.87,.23-5.81,.2-.81-.01-1.63-.08-2.44-.1-1.02-.02-1.32,.29-1.32,1.31v.65c0,1.49,0,2.98,0,4.48,0,.14-.05,.29,.09,.4,0,.2,.05,.4,.01,.6-.07,.35-.29,.59-.67,.56-1.98-.12-3.95-.07-5.91,.15-.54,.06-1.08,.07-1.62,.11-1.09,.1-1.61-.41-1.48-1.51,.16-1.38,.05-2.75,.09-4.12,.01-.42,.02-.84,0-1.25-.02-.49-.18-.89-.75-.95-.04-.02-.08-.05-.11-.07h-.02Z"/><path class="cls-5" d="M91.3,48.07c-.18,.15-.38,.08-.58,.08-3.04-.03-6.08-.06-9.12-.09-.04-.04-.07-.07-.11-.1,.04-1.63,.05-3.25,.12-4.88,.03-.65,.16-1.28,.02-1.93-.13-.59-.53-.79-1.05-.81-.54-.02-1.09,.08-1.62,.08-1.94,.01-3.87,.14-5.8,.25-1.09,.06-1.47-.63-1.35-1.49,.12-.82,.06-1.62,.08-2.43,0-.04,0-.08,0-.12v-2.6c0-.19,0-.37,0-.55-.09-.53,.13-.67,.65-.66,2.18,.02,4.37,0,6.56,0,2.74,0,5.47,0,8.21,0,.1,0,.2-.05,.3-.08,.98,0,1.96,0,2.94,0,.36,0,.5-.09,.37-.48-.08-.23-.06-.5-.05-.75,.05-.83-.08-1.66-.1-2.48,.16-.33,.15-.66,0-1,0-.25,0-.5,0-.74,.01-.01,.04-.03,.03-.04,0-.03-.02-.05-.04-.08,0-.33-.01-.65-.02-.99,0-.04,0-.07,0-.1,0-.25,.01-.51,.02-.76,.76-.03,1.51-.13,2.28-.12,1.62,.02,3.23,.03,4.85-.02,.6-.02,1.22,0,1.82-.18,.68-.05,.96-.25,.87-.83-.28-1.73,.07-3.43,.13-5.15,.02-.65,.01-1.3-.11-1.95-.09-.44,.08-.62,.55-.61,2.67,.03,5.33,0,7.99-.08,.32,0,.64,0,.92,.19,.09,.46,.19,.93,.1,1.39-.15,.75-.08,1.51-.09,2.26-.02,1.52,0,3.03-.01,4.55-2.72,.08-5.43,.15-8.15,.23-.21,0-.43,.05-.65,.07-.4-.03-.47,.26-.47,.55,0,2.48,0,4.95,.02,7.42-.05,.1-.15,.11-.24,.12-.15-.15-.36-.05-.53-.11-.05-.03-.08-.08-.13-.09-2.19-.28-4.39-.33-6.58-.1-.38,.04-.8-.05-1.15,.19-.29,.03-.63-.04-.78,.33-.14-.09-.13-.33-.33-.38-.03,.06-.06,.1-.06,.13,0,1.89-.01,3.77-.02,5.66,0,.39,.17,.66,.53,.8,.05,.5,.09,1.01,.14,1.51-.1,.07-.11,.17-.13,.28-.2,.9-.19,1.82-.23,2.73-.06,1.33,.26,2.65,.02,3.98h0Z"/><path class="cls-5" d="M26.69,83.47c0,4.99,.02,9.98-.02,14.97-.01,1.81-.08,3.62-.06,5.44,0,1.18,.06,2.35,.11,3.53,.01,.3,.24,.64-.22,.82-.16,.06-.32,.07-.48,.07-1.85-.05-3.7,.04-5.55,.12-.9,.04-1.79,.23-2.69,.2-.17-.15-.26-.32-.24-.55,.25-1.42,.14-2.85,.19-4.28,.1-2.79,.04-5.58,.04-8.38,0-1.49,.09-2.98-.04-4.46-.12-1.42,.07-2.82,.09-4.22,0-.89,0-1.75-.22-2.61,.12-.45,.48-.65,.88-.65,2.74,0,5.49-.1,8.23,0h0Z"/><path class="cls-5" d="M44.7,132.58c-.06,.1,.23,.09,.08,.22-.15,.25-.39,.2-.62,.22-1.66,.18-3.26-.42-4.91-.31-.92,.06-1.84,.15-2.75-.05-.37-.08-.59,0-.78,.27-.3-.48-.33-1.02-.33-1.56,.01-1.94,.04-3.87,.05-5.81,0-.18-.02-.36-.03-.54h0s.02-.04,0-.06c.03,.02,.06,.05,.1,.05,2.67,0,5.33-.04,7.99,.05,.89,.03,1.17-.29,1.18-1.18,.01-1.58,.02-3.15,.04-4.73,.15-.43,.08-.89,.05-1.32-.03-.52,.09-.83,.68-.76,.44,0,.87,0,1.31,0h6.41c.08,0,.16,0,.24,0,.03,.02,.05,.03,.08,.04,.06,.88,.07,1.77,.09,2.64,.04,1.68-.04,3.35-.05,5.03,0,.37-.13,.53-.51,.5-.38-.03-.76-.01-1.14-.01-.54,.05-1.09-.11-1.63,.09-.22,0-.44,0-.66,.02-.76,.05-1.53-.11-2.28,.09-.6,.04-1.19,.07-1.78,.13-.36,.03-.62,.18-.75,.57-.15,.43-.07,.86-.08,1.29,.01,.26-.08,.53,.08,.77v2.57s-.05,.09-.06,.13v1.64h0Z"/><path class="cls-12" d="M137.29,8.28c0,2.27,0,4.53,0,6.8,0,.4-.1,.52-.51,.53-5.56,.2-11.13,.05-16.69,.1-.19-1.07-.27-2.15-.35-3.23-.11-1.41-.07-2.83-.12-4.23,1.59,0,3.19-.02,4.79-.02h12.24c.21,0,.44-.04,.65,.05h0Z"/><path class="cls-2" d="M125.04,22.17c1.14,0,2.28,0,3.42,0,.81,0,1.1,.29,1.05,1.09-.17,2.73,0,5.47-.05,8.21,0,.22,0,.44,0,.65-.04,.77-.27,1.04-1.05,1.09-2.65,.21-5.31,.37-7.97,.03-.72-.09-.96-.33-1-1.09-.06-1.12-.12-2.24-.15-3.37-.05-1.81-.06-3.62-.09-5.43,0-.65,.12-.84,.74-.9,1.69-.17,3.4-.19,5.1-.28h0Z"/><path class="cls-2" d="M44.98,27.18c0,1.41,0,2.83,0,4.24-.01,1.38-.65,1.97-2.02,1.96-2.07-.02-4.14-.03-6.2-.04-1.11,0-1.39-.3-1.32-1.4,.16-2.5,.03-5,.05-7.5,0-.3-.06-.61-.06-.92-.01-.86,.29-1.18,1.16-1.2,2.07-.04,4.13-.07,6.2-.11,.53,0,1.05-.05,1.58-.05,.42,0,.65,.17,.64,.66-.03,1.45,0,2.9,0,4.35h-.02Z"/><path class="cls-5" d="M129.1,117.1c.55,1.57,.52,3.2,.4,4.83-.06,.8-.04,1.59-.06,2.38-.02,.73-.12,.87-.85,1-.75,.13-1.52,.1-2.28,.04-1.83-.13-3.66-.03-5.49-.07-.55-.01-1.09,0-1.63,0,.12-2.43,.36-4.86,.23-7.31-.02-.35-.14-.71-.01-1.07l.13-.13c1.33,.41,2.72,.41,4.04,.16,1.22-.23,2.39-.24,3.58-.01,.05,.26,.25,.2,.43,.2,.5,0,1.01,0,1.52-.01h0Z"/><path class="cls-5" d="M53.61,32.8s.06,.02,.09,.02c.63,.14,1.25,.15,1.88,0h7.19c0,.37-.03,.75,0,1.12,.04,.56-.13,1.13,.09,1.68,0,.26,0,.51,.02,.77,.05,.65-.12,1.31,.09,1.95,.03,.41,.15,.81,.13,1.24-.04,.69-.34,1.17-.99,1.38-.99,.33-2.02,.3-3.04,.18-1.24-.15-2.48-.38-3.73,0-.37,.11-.79,.14-1.16-.06-.04-.09-.12-.11-.21-.12-.01-.07-.03-.14-.04-.21,0-.75,0-1.51-.01-2.27,.07-1.43,.09-2.85-.09-4.27-.03-.25,.05-.59-.28-.75,.02-.22-.12-.47,.09-.67h0Z"/><path class="cls-3" d="M228.16,116.37c.03-.31,.27-.24,.45-.24,.85,0,1.7,0,2.56,0,.35,0,.49,0,.57-.52,.36-2.11,.15-4.22,.23-6.34,.02-.64,.41-.99,1.11-.99,2.14,0,4.28,0,6.42,0,.5-.02,.84,.29,1.2,.56-.1,1.12,.1,2.23,.11,3.34,0,.97-.07,1.94,.08,2.91,.08,.53,.17,1.16-.52,1.45-1.56,0-3.12,.05-4.68,0-2.37-.1-4.75-.05-7.12-.08-.14,0-.3,.03-.41-.09h0Z"/><path class="cls-3" d="M164.21,124.82s0,.1-.01,.14c-.28,.03-.58-.1-.85,.08-2.84-.04-5.68-.08-8.52-.11-.1-.42-.11-.85-.11-1.28,.37-1.45,.44-2.92,.25-4.41-.06-.5-.04-1.02,0-1.52,.06-.98,.38-1.27,1.36-1.27,2.3,0,4.61,0,6.91,0-.04,1.97-.11,3.95-.09,5.92,0,.93,.14,1.89,1.08,2.44h0Z"/><path class="cls-3" d="M137.28,133.08c.16-1.1,.58-2.17,.43-3.3-.1-.79-.09-1.59-.09-2.38,0-1.75,.65-2.43,2.4-2.46,3.17,.04,6.34,.07,9.52,.11,.2,0,.44-.09,.61,.11-.49,.3-1.03,.27-1.55,.19-.54-.08-1.07-.07-1.61-.07-.3-.01-.62-.06-.65,.38v.04s-.05,0-.05,0c-.27,.05-.37,.15-.38,.44-.04,.93,.15,1.85,.16,2.78,.02,.97,.32,1.94,.06,2.93-.05,.18-.3,.33-.12,.56v.04s-.05,0-.05,0c-.16-.15-.21,0-.27,.1-.35,.3-.79,.3-1.21,.32-.97,.05-1.95,.03-2.92,.14-1.43,.16-2.85,.08-4.28,.05h0Z"/><path class="cls-5" d="M119.62,8.24c.05,1.41,0,2.83,.12,4.23,.09,1.08,.16,2.16,.35,3.23-.05,.03-.1,.05-.14,.08-.52-.17-1.09-.2-1.59-.15-1.25,.11-2.49,.03-3.74,.08-1.14,.05-2.27-.1-3.36-.46-.2-.06-.35-.03-.51,.03,0-2.13-.02-4.27-.02-6.4,0-.35,.15-.59,.54-.61,.11,0,.21-.04,.32-.04,2.63,0,5.25-.02,7.88-.02,.05,0,.1,.02,.16,.03h0Z"/><path class="cls-3" d="M153.11,58.17c-3.39,0-6.78,.04-10.17,.01-1.3,0-2.6,.12-3.91,.11-1.07,0-1.41-.34-1.41-1.39,0-2.41,0-4.82,.01-7.24,.8,.02,1.61,.04,2.41,.05,.41,.29,.87,.39,1.38,.41,.85,.04,1.69-.12,2.54-.12s1.43,.43,1.49,1.25c.06,.89,.05,1.8-.03,2.7-.12,1.28-.15,2.55,.36,3.77,.09,.17,.24,.21,.41,.21,1.16,0,2.32,0,3.48-.05,1.15-.04,2.31-.02,3.45,.26h0Z"/><path class="cls-10" d="M19.3,125.09c.25,.16,.54,.2,.83,.19,1.4,0,2.79,0,4.19,0,1.09,0,1.53,.35,1.78,1.41,.39,1.61,.35,3.22-.04,4.82-.16,.68-.62,1.14-1.31,1.17-2.15,.08-4.3,.02-6.42-.42,.11-1.64,.28-3.27-.14-4.9v1.41s-.03-.03-.03-.05c.1-1.17-.34-2.28-.4-3.43,.52,0,1.04-.05,1.54-.2Z"/><path class="cls-12" d="M46.86,8.23c.71-.01,1.43-.03,2.14-.04,.09,0,.19,0,.27,.02,.76,.2,1.49,.35,2.32,.13,.81-.22,1.21,.18,1.24,1.03,.02,.39,0,.79-.05,1.19-.11,.77-.16,1.57,.59,2.11,.34,.77,.23,1.59,.22,2.39-1.38,.73-2.86,.86-4.37,.76-1.03-.07-2.06-.14-3.09-.1-.53,.02-.7-.21-.69-.72,.02-1.54,0-3.08,0-4.62,0-.76,.37-1.25,1.1-1.47,.1-.03,.23-.05,.3-.12,.18-.16,.35-.35,.03-.56h0Z"/><path class="cls-12" d="M231.64,132.14c-1.59,.05-3.15,.34-4.73,.51-.5,.05-1.01,.16-1.51,.13-1.03-.07-1.57-.7-1.6-1.76-.04-.94,.02-1.88,.2-2.81,.09-.48-.06-.94-.15-1.39-.05-.24-.06-.47-.05-.7,.05-.69,.65-1.12,1.24-.79,1.16,.64,2.27,.39,3.4-.03,.37-.14,.75-.23,1.13-.34,.8,0,1.6,0,2.4,0-.01,.11-.02,.22-.04,.32-.41-.02-.3,.29-.3,.5v6.35h0Z"/><path class="cls-6" d="M145.77,57.75c-.51-1.22-.48-2.5-.36-3.77,.09-.9,.09-1.81,.03-2.7-.06-.82-.64-1.24-1.49-1.25-.85,0-1.69,.16-2.54,.12-.5-.02-.96-.12-1.38-.41,1.14-.1,2.28-.2,3.41-.31,.49-.05,.98,.03,1.46,.07,.67,.05,.8-.09,.8-.76,0-3.1,0-6.2,0-9.31,.01-4.16,.05-8.31,.06-12.46,0-.25-.04-.5-.06-.76-.09-.76,.35-1.21,1.17-.92,0,.53-.01,1.05,0,1.58,.03,1.52-.15,3.03-.12,4.56,.04,1.75,.15,3.5,.19,5.26,.02,1.07-.09,2.16-.23,3.23-.17,1.32-.34,2.64-.53,3.96-.16,1.12,.05,2.11,.48,3.11,.23,.52,.3,1.08,.4,1.63,.06,.37,.25,.51,.6,.38,1.19-.47,2.43-.46,3.69-.5,.7-.02,1.41-.06,2.11-.1,.64-.03,1.01-.54,.87-1.15-.05-.2-.05-.39-.06-.59v-4.24c.06-.15,.17-.22,.32-.23,.04,1.99,.08,3.99,.12,5.98,.02,1-.23,1.21-1.23,1.29-.76,.06-1.51-.12-2.27-.07-1.54,.09-3.08,.08-4.62,.1-.72,0-.82,.11-.83,.81,0,2.48,0,4.97,0,7.46h.01Z"/><path class="cls-7" d="M99.7,24.98c-.59,.18-1.21,.16-1.82,.18-1.61,.05-3.23,.04-4.85,.02-.76,0-1.52,.09-2.28,.12h-17.25c-.2,0-.4,0-.6,0-1.09-.05-1.65-.62-1.65-1.72,0-1.56-.01-3.12,0-4.68,0-.42-.08-.83-.13-1.24-.05-.4-.43-.6-.89-.38-.67,.3-1.29,.24-1.93-.03-.25-.1-.52-.13-.8-.13-2.99,0-5.99,.01-8.98,0-.39,0-.77,.24-1.17,.02-.18-.1-.4-.19-.35-.42,.04-.21,.27-.13,.42-.13,.91,0,1.81,0,2.72,0,.18,0,.37,.06,.52-.08,1.38-.01,2.76-.02,4.14-.04,1.9-.02,3.81-.05,5.71-.08,.43,0,.85,.02,1.27,.15,.29,.67,.24,1.38,.22,2.08-.06,1.68,.13,3.36,.12,5.03,0,.61,.27,.97,.78,1.1h-.01c.01,.13,.11,.12,.21,.11,1.49,.1,2.97,.01,4.46,.01,6.98,.01,13.96,0,20.94,0,.4,0,.8-.04,1.18,.1h0Z"/><path class="cls-7" d="M163.35,125.04c.27-.18,.57-.05,.85-.08-.26,.79,.04,1.54,.18,2.29,.21,1.12,.39,2.23,.08,3.37-.1,.39-.06,.83-.02,1.24,.05,.48,.46,.74,1.2,.81,2.3,.2,4.61,.2,6.9,.08,3.32-.18,6.63-.28,9.94-.15,2.03,.08,4.08,.32,6.11,.26,2.78-.08,5.55-.03,8.32-.08,.47,0,.87-.17,1.28-.57v.87c-1.25,0-2.5,.02-3.76,.02-3.47,0-6.94,0-10.41,0-1.24,0-2.49-.01-3.73,0-.28,0-.57-.09-.84,.07-2.25,0-4.5-.07-6.74,0-2.46,.08-4.92-.02-7.39,.02-.34,0-.69-.05-1.02-.13-.36-.08-.6-.3-.67-.69-.07-.34-.09-.68-.09-1.03-.04-1.99-.08-3.98-.13-5.97,0-.12-.05-.25-.07-.37h0Z"/><path class="cls-7" d="M222.72,83.47c-.05,.18-.11,.36-.16,.55h-.16c-.35-.19-.74-.24-1.14-.24h-20.56c-.74,.05-1.47-.19-2.21-.12-.15,.01-.26-.02-.28-.23-.21-2-.67-3.97-.74-5.99-.03-.82,.1-1.65,.3-2.46,.53,.09,.85,.4,.88,.89,0,.11,0,.22,0,.33-.04,2.17-.06,4.34-.12,6.51-.01,.46,.13,.56,.57,.56,7-.03,14.01-.04,21.02-.05,.87,0,1.74,.08,2.59,.23h0Z"/><path class="cls-7" d="M46.86,8.23c.32,.2,.15,.39-.03,.56-.07,.07-.2,.09-.3,.12-.73,.22-1.1,.71-1.1,1.47,0,1.54,.01,3.08,0,4.62,0,.5,.17,.74,.69,.72,1.03-.04,2.06,.03,3.09,.1,1.51,.1,3-.03,4.37-.76,0,.34,.03,.68,.01,1.02,0,.25,.11,.31,.33,.28,.15,.04,.29,.09,.44,.13,.31,.5,.28,.98-.02,1.47-.16,.26-.19,.53-.11,.87,.09,.4-.05,.84-.06,1.27,0,.21-.08,.43,.08,.63,0,1.41,.02,2.83,.03,4.24-.15,0-.29,0-.43,0-.22-1.97,.06-3.94-.05-5.9-.05-.8,0-1.62-.31-2.39-.01-.31-.25-.2-.4-.2h-7.87c-.77-.35-.87-.55-.79-1.43,.17-1.78,.23-3.57,.24-5.36,0-1.24,.24-1.49,1.49-1.5,.24,0,.47,.02,.7,.03Z"/><path class="cls-7" d="M181.55,49.68c-.97,.05-1.27-.29-1.34-1.24-.13-1.59-.06-3.18-.1-4.77,0-.41,.19-.79,.05-1.23-.17-.54-.49-.79-1.01-.8-1.69,0-3.37-.02-5.06,.01-.37,0-.74,.06-1.12,0-.65-.11-1.01-.46-1.02-1.12,0-.55-.11-1.08-.27-1.59-.16-.53,.05-.99,.27-1.45,.19,.2,.08,.44,.1,.66,.06,.69,.09,1.38,.31,2.04,.07,.21,.1,.42,.4,.36h.04s0,.05,0,.05c-.09,.15,0,.21,.11,.27,.24,.14,.49,.21,.76,.25,1.59,.2,3.18,.13,4.76-.06,.94-.12,1.79,.1,2.58,.58,.28,.17,.41,.46,.53,.77,.32,.82,.1,1.65,.05,2.47,0,.19-.06,.39-.06,.58v4.23h0Z"/><path class="cls-7" d="M53.94,40.97c.09,0,.17,.03,.21,.12-.1,.43-.39,.55-.81,.55-2.27,0-4.54,0-6.81,0-.84,0-1.11,.26-1.11,1.09v6.86c-.47,.21-.94,.15-1.39-.07,.45-.02,.35-.41,.39-.65,.2-1.39,.27-2.78,.23-4.17-.02-.69-.05-1.38-.06-2.07,0-1.11,.32-1.46,1.44-1.53,1.18-.07,2.35-.07,3.53-.02,1.27,.05,2.54,.08,3.81,.12,.19-.08,.37-.15,.56-.23h0Z"/><path class="cls-7" d="M240.7,108.84c-.36-.27-.7-.58-1.2-.56,.55-.5,.68-1.13,.66-1.86-.04-1.41-.04-2.83,0-4.24,.03-1.42-.39-1.41-1.49-1.49-.62-.05-1.25,.11-1.89,.1-1.27-.02-2.53,0-3.8-.01-.41,0-.86,0-1-.53v-.4c.1-.12,.2-.12,.33-.05,1.26,.44,2.56,.42,3.87,.38,1.25-.04,2.5-.03,3.75-.02,.32,0,.66,0,.89,.31,.1,.27,.1,.56,.11,.84,.02,.54-.13,1.06-.12,1.61,.03,1.79,.01,3.58,0,5.37,0,.19,.1,.4-.1,.55h0Z"/><path class="cls-1" d="M110.04,24.75c0-1.52,0-3.03,.01-4.55,0-.75-.06-1.51,.09-2.26,.1-.45,0-.93-.1-1.39,.34,0,.45,.17,.45,.51-.01,2.47,.05,4.93-.02,7.39-.22,7.97-.03,15.93-.1,23.9,0,.24,.1,.45,.1,.68-.42-.21-.41-.61-.42-.99-.02-1.27-.01-2.53-.02-3.8-.25-.5,.02-.99,.02-1.48,0-1.99,0-3.98,0-5.97,0-.21,.03-.44-.13-.62,.16-.16,.13-.36,.13-.56,0-3.29,0-6.59-.02-9.88,0-.33-.04-.66,.01-.99h0Z"/><path class="cls-1" d="M35.72,132.93c.19-.28,.4-.35,.78-.27,.9,.2,1.82,.12,2.75,.05,1.64-.11,3.25,.49,4.91,.31,.23-.02,.47,.03,.62-.22,.08,.38,.38,.2,.57,.2,5.48,0,10.96-.06,16.43,.04,2.9,.05,5.79,.02,8.68,.1,.53,.01,1-.21,1.51-.24-.25,.27-.57,.33-.92,.33H36.49c-.3,0-.6,.02-.76-.31h0Z"/><path class="cls-7" d="M197.88,58.85c.03-.26-.1-.53,.09-.77,.04,.04,.08,.07,.12,.11,.21,.52,.34,1.05,.33,1.62-.01,1.03-.2,2.05-.11,3.08,.06,.69-.08,1.37-.12,2.05-.05,.77-.69,1.29-1.45,1.42-1.14,.2-2.3,.09-3.45,.17-1.19,.09-2.38,.15-3.57,.15,.1-.47,.44-.65,.86-.66,1.66,0,3.32-.06,4.98,.15,.75,.09,1.17-.11,1.55-.8,.46-.84,.51-1.79,.65-2.71,.1-.62,.15-1.25,.12-1.89,.16-.65,.17-1.29,0-1.94h0Z"/><path class="cls-7" d="M150.15,125.17c-.18-.2-.41-.1-.61-.11-3.17-.04-6.34-.08-9.52-.11,.32-.39,.77-.43,1.23-.43,3.6,0,7.21-.01,10.81,0,.85,0,1.6-.16,2.28-.69,.11-.09,.21-.2,.38-.19,0,.43,.01,.86,.11,1.28-.54,0-1.09,0-1.63,.03-1.02,.06-2.04,.04-3.05,.21h0Z"/><path class="cls-7" d="M17.58,84.12c.21,.86,.23,1.72,.22,2.61-.01,1.41-.2,2.81-.09,4.22,.12,1.48,.04,2.97,.04,4.46,0,2.79,.06,5.59-.04,8.38-.05,1.43,.06,2.86-.19,4.28-.3-1.06-.2-2.15-.15-3.23,0-.2,.03-.4,.03-.6,0-6.07,.02-12.15,.04-18.22,0-.63,.09-1.26,.13-1.9h0Z"/><path class="cls-1" d="M232.3,99.79c-.12-.07-.23-.08-.33,.05-.15-5.12-.1-10.25-.1-15.38,0-.29-.08-.53-.22-.77,.59,.16,.65,.62,.65,1.11v14.98h0Z"/><path class="cls-1" d="M189.7,66.69c1.19,0,2.39-.07,3.57-.15,1.15-.08,2.31,.02,3.45-.17,.76-.13,1.4-.65,1.45-1.42,.04-.68,.18-1.36,.12-2.05-.09-1.03,.1-2.05,.11-3.08,0-.57-.11-1.1-.33-1.62,.5,.23,.5,.75,.52,1.14,.06,1.83-.05,3.65-.12,5.47-.05,1.4-.55,1.7-1.89,1.74-1.54,.05-3.07,.17-4.61,.15-.53,0-1.07,.09-1.61,.08-.53,0-.41,.47-.45,.71-.25,1.7-.17,3.4,.08,5.09,.02,.1,0,.22,0,.33,0,.65-.05,1.29,.1,1.93-.4,.06-.42-.19-.44-.5-.06-1.18-.08-2.36-.23-3.53-.18-1.33-.07-2.63,.14-3.94,0-.06,.07-.12,.1-.19h0Z"/><path class="cls-2" d="M110.74,15.29c.17-.06,.32-.1,.51-.03,1.09,.36,2.21,.5,3.36,.46,1.24-.05,2.49,.03,3.74-.08,.51-.05,1.08-.01,1.59,.15v.23c-2.89,.13-5.78,.12-8.68,.13-.53,0-.61-.15-.53-.85h0Z"/><path class="cls-1" d="M240.7,108.84c.19-.15,.1-.37,.1-.55,0-1.79,.02-3.58,0-5.37,0-.55,.14-1.07,.12-1.61,0-.29,0-.57-.11-.84,.31,.04,.32,.27,.32,.5,0,1.78,.1,3.56-.02,5.32-.12,1.79-.1,3.57-.05,5.35,.04,1.09,.05,2.19,.07,3.29,0,.29,.18,.55,.11,.84-.14,.57-.1,.8-.87,.79,.69-.3,.6-.93,.52-1.45-.15-.97-.07-1.94-.08-2.91-.01-1.12-.2-2.23-.11-3.34h0Z"/><path class="cls-7" d="M53.37,12.66c-.75-.55-.7-1.34-.59-2.11,.06-.4,.07-.79,.05-1.19-.04-.85-.43-1.24-1.24-1.03-.82,.22-1.55,.06-2.32-.13-.09-.02-.18-.01-.27-.02,.51-.27,1.07-.3,1.63-.31,.69-.02,1.38,0,2.06-.02,.33,0,.61,.07,.81,.35,0,.58-.01,1.16-.02,1.74-.46,.56-.35,1.2-.22,1.83,.24,.27,.35,.55,.11,.88h0Z"/><path class="cls-1" d="M35.41,100.01c-.25-.1-.21-.31-.21-.5,0-3.86-.05-7.71,.01-11.56,.02-1.38,.17-2.76,.2-4.14,.43,.6,.16,1.27,.17,1.91,0,.12-.05,.27-.06,.42-.17,3.4-.1,6.8-.11,10.19,0,1.23,0,2.46,0,3.7h0Z"/><path class="cls-1" d="M53.48,9.95c0-.58,.01-1.16,.02-1.74,.31,.01,.44,.19,.44,.49,0,.9,.1,1.83-.03,2.71-.12,.84,.06,1.62,.13,2.43,.07,.84-.18,1.68-.1,2.53-.21,.03-.34-.02-.33-.28,.01-.34,0-.68-.01-1.02,.01-.8,.12-1.62-.22-2.39,.25-.33,.13-.61-.11-.88,.22-.22,.34-.5,.34-.79,0-.35-.08-.69-.12-1.04h0Z"/><path class="cls-1" d="M72.91,24.74c-.51-.14-.78-.49-.78-1.1,0-1.68-.18-3.35-.12-5.03,.03-.7,.07-1.41-.22-2.08,.4,.07,.55,.32,.55,.71,0,1.73,.17,3.45,.12,5.18-.02,.51,.11,1.03,.12,1.54,0,.26,.21,.52,.33,.78h0Z"/><path class="cls-1" d="M190.13,57.85c-.44-.13-.55-.45-.55-.86-.01-.67,.07-1.33,.11-1.99,.09-1.48-.18-2.95-.1-4.43,.01-.27-.17-.47-.23-.71,.52,.23,.64,.69,.65,1.18,.02,1.62,.05,3.23,0,4.85-.02,.67-.19,1.34,.13,1.98h0Z"/><path class="cls-5" d="M154.41,32.93c-.2-.49-.19-1.02-.23-1.53-.07-.83,0-1.67-.03-2.5,0-.25,.09-.45,.15-.68,.15-.57,.15-1.14,0-1.72-.1-.4-.15-.79-.12-1.2,.11,0,.22-.01,.32-.02,.04,.04,.08,.08,.11,.12v7.84c-.11-.16-.16-.24-.21-.31h0Z"/><path class="cls-10" d="M53.94,40.97c-.19,.08-.37,.15-.56,.23,.14-1.46,.1-2.92,.15-4.38,.02-.67,.05-1.34,.07-2,.01-.45,.03-.9-.08-1.34,.33,.16,.25,.5,.28,.75,.18,1.42,.16,2.84,.09,4.27-.11,.75-.13,1.51,.01,2.27,.01,.07,.03,.14,.04,.21h0Z"/><path class="cls-1" d="M212.15,125.05c.14-.18,.34-.09,.5-.09,.74,0,1.49,0,2.23,0,.55,0,.79-.33,.69-.87-.18-1.04-.27-2.07-.2-3.14,.06-.87,.07-1.76-.05-2.64-.15-1.08-.03-1.88,1.51-1.85,1.16,.02,2.32,0,3.48,.01-.13,.2-.33,.1-.5,.1-.93,0-1.85,.03-2.78,0-1.52-.05-1.63,.93-1.49,1.94,.1,.75,.1,1.5,0,2.25-.08,.63-.08,1.26,0,1.89,.08,.6,.14,1.19,.27,1.78,.09,.43-.2,.65-.64,.64-1.02,0-2.03,0-3.05-.01h0Z"/><path class="cls-7" d="M154.51,25.28c-.11,0-.22,.01-.32,.02-1.99,0-3.98,0-5.98,0-.19,0-.4,.07-.56-.1,.56-.21,1.17-.21,1.75-.28,1.57-.17,3.13-.15,4.68,.18,.15,.03,.32,.05,.43,.2h0Z"/><path class="cls-1" d="M172.76,40.55c-.3,.06-.33-.14-.4-.36-.22-.66-.25-1.35-.31-2.04-.02-.22,.09-.47-.1-.66,.03-.95-.1-1.9,.09-2.84,.06-.31,.04-.64-.09-.94,.41,.23,.58,.83,.41,1.54-.15,.67-.12,1.33,0,2.01,.1,.63,0,1.28,.11,1.92,.08,.47,.15,.93,.3,1.38h0Z"/><path class="cls-1" d="M154.41,32.93c.05,.07,.1,.15,.21,.31v-7.84c.39,.03,.2,.33,.2,.5,.01,2.41,0,4.81,0,7.23,0,.11,0,.22,0,.33-.37,.01-.5-.17-.43-.52h0Z"/><path class="cls-1" d="M206.37,132.8c.74-1.35,.33-2.76,.25-4.16-.07-1.19-.18-2.4,.2-3.57h.32c-.32,.92-.44,1.84-.36,2.84,.1,1.28,.36,2.56,.24,3.85-.04,.41-.09,.9-.63,1.04h0Z"/><path class="cls-1" d="M146,132.42c-.18-.23,.07-.38,.12-.56,.26-.99-.04-1.95-.06-2.93-.02-.92-.2-1.84-.16-2.78,.01-.3,.11-.39,.38-.44-.5,.8-.17,1.65-.12,2.48,.08,1.23,.21,2.46,.16,3.69,0,.21-.16,.39-.32,.54h0Z"/><path class="cls-1" d="M45.22,16.48c2.62,0,5.25,0,7.87,0,.15,0,.39-.11,.4,.2-2.3-.2-4.61-.07-6.92-.07-.47,0-.91,.06-1.35-.13Z"/><path class="cls-7" d="M163.32,33.39c-.52,.38-1.04,.76-1.74,.51-.13-.05-.36-.07-.3-.3,.05-.19,.24-.12,.37-.13,.48-.05,.97,.09,1.44-.08,.07,0,.15,0,.22,0Z"/><path class="cls-1" d="M18.41,116.47c2.25,0,4.5,0,6.74,0,.12,0,.26-.05,.34,.1-2.27,0-4.54,0-6.8,.01-.1,0-.22,.04-.28-.1Z"/><path class="cls-7" d="M157.01,33.47c-.24,.5-.64,.68-1.11,.46-.24-.11-.49-.23-.64-.47,.58-.06,1.17-.05,1.75,0Z"/><path class="cls-1" d="M110.25,122.44s-.07-.05-.07-.07c0-1.6,0-3.21,0-4.81,0-.04,.06-.08,.1-.11,0,1.67,0,3.33-.02,5h0Z"/><path class="cls-1" d="M35.41,125.02h0c-1.63,.1-3.27,.03-4.9,.03,.06-.13,.18-.1,.29-.1h4.35c.09,0,.17,.04,.26,.06Z"/><path class="cls-1" d="M179.46,133.2c.27-.16,.56-.07,.84-.07,1.24,0,2.49,0,3.73,0-.02,.08-.09,.1-.16,.1-1.47,0-2.94-.02-4.41-.03h0Z"/><path class="cls-1" d="M223.04,116.45c.08-.15,.22-.1,.34-.1,1.41,0,2.82,0,4.23,0-.05,.15-.18,.1-.28,.1-1.43,0-2.87,0-4.3-.01h0Z"/><path class="cls-1" d="M130.74,16.04c1.03,0,2.06,0,3.08,0-.79,.21-1.59,.05-2.38,.09-.23,0-.5,.13-.7-.09h0Z"/><path class="cls-9" d="M139.08,16.05c.71,.02,1.44-.16,2.14,.1-.71-.03-1.44,.16-2.14-.1Z"/><path class="cls-1" d="M27.89,125.07h1.75c-.58,.17-1.17,.17-1.75,0Z"/><path class="cls-1" d="M72,129.3c-.2-.53-.05-1.09-.09-1.63,.22,.53,.05,1.09,.09,1.63Z"/><path class="cls-2" d="M71.9,127.12c-.17-.42-.15-.82,.15-1.19-.05,.4-.1,.79-.15,1.19Z"/><path class="cls-1" d="M72.02,132.85c-.04-.43,.2-.83,.12-1.25,.19,.44,.18,.86-.12,1.25Z"/><path class="cls-1" d="M205.5,133c.28-.1,.55-.24,.87-.2-.26,.2-.55,.25-.87,.2Z"/><path class="cls-1" d="M146.33,125.67c.04-.44,.35-.39,.65-.38-.19,.18-.5,.14-.65,.38Z"/><path class="cls-3" d="M111.98,133.16c.28-.05,.55-.05,.83,0-.28,.11-.55,.11-.83,0Z"/><path class="cls-2" d="M72.03,125.96c-.01-.19,.03-.32,.26-.24-.1,.06-.01,.34-.26,.24Z"/><path class="cls-1" d="M73.11,24.85c-.1,0-.2,.02-.21-.12,.14-.07,.16,.04,.21,.12Z"/><path class="cls-1" d="M145.68,132.58c.06-.1,.1-.26,.27-.1-.07,.08-.15,.14-.27,.1Z"/><path class="cls-1" d="M172.92,40.86c-.12-.05-.2-.12-.11-.27,.09,.07,.14,.15,.11,.27Z"/><path class="cls-5" d="M110.6,100.54c-.85,.38-.95,.6-.86,1.87v4.35s0,.07,0,.11c0,.18,0,.36,0,.55-.01,.7-.28,.97-.99,.99-.52,0-1.04-.03-1.56,0-.49,.03-1-.12-1.48,.09-.19,0-.37,.01-.55,.02-.6,0-1.19-.02-1.78,0-.46,.02-.93-.11-1.37,.09-1.02,.32-1.11,.45-1.1,1.49,.01,1.38,.02,2.76,0,4.14,0,.42,.16,.81,.06,1.24-.2,.82-.39,.99-1.22,.99-.13,0-.25,0-.38-.01-.13-.15-.3-.09-.46-.09h-16.53c-.57-.05-.76-.45-.75-.94,0-1.03,.07-2.06,.09-3.09,.02-.85,.01-1.7,.02-2.56,0-.93-.06-1.03-.88-1.37-.1-.15-.25-.11-.39-.11h-5.67c-.12,0-.25-.03-.35,.1-.62-.08-1.23,.22-1.87,.03-.52-.15-.85-.48-.86-1.07-.02-.96,.15-1.91,.12-2.87-.02-.9-.05-1.81,.08-2.71,.07-.47,.04-.95-.52-1.16-.12-.25-.35-.15-.53-.15-2.48,0-4.95,0-7.43,0-.47-.11-.53-.48-.55-.88-.05-.85,.12-1.69,.12-2.54,0-1.38-.02-2.75,0-4.13,.02-1.15-.21-1.16-1.26-1.27-.52-.05-1.05-.02-1.58-.02-.13-.15-.3-.09-.45-.09h-5.42c-.54-.09-.86-.52-.86-1.24,0-.74,.08-1.48,.1-2.22,.02-.92-.04-1.84-.09-2.77-.1-1.77,.59-1.7,1.77-1.81,.74-.07,1.49,0,2.23-.02,2.04-.07,4.09-.17,6.13-.25,.25,.21,.56,.25,.86,.25,5.56,0,11.11,0,16.67,.01,4.32,0,8.63,0,12.94-.01,1.72,0,3.44-.02,5.16-.04,.23-.01,.5,.18,.64-.17,.34,.09,.75-.19,1.02,.22-.11,.53,.06,1.04,.06,1.56,0,1.92,0,3.84,0,5.76,0,.8,.28,1.09,1.07,1.08,2.58-.04,5.17-.09,7.76-.14,2,.24,4.02,.28,6.02,.21,.81-.03,1.63-.09,2.44-.09,1.49,0,1.88,.36,1.75,1.84-.15,1.69-.05,3.37-.08,5.06,0,.38,.02,.76-.11,1.13-.11,.31-.26,.55-.62,.58-2.65,0-5.31,0-7.96,0-.19,0-.4-.08-.56,.09h0Z"/><path class="cls-15" d="M44.71,119.15c-.01,1.58-.02,3.15-.04,4.73,0,.88-.29,1.2-1.18,1.18-2.67-.1-5.33-.06-7.99-.05-.03,0-.06-.04-.1-.05-.34-1.46-.3-2.94-.27-4.43,.07-2.7,.04-5.4,.08-8.1,.01-.85,.1-1.7,.18-2.54,.09-.9,.38-1.17,1.29-1.17,2.21,0,4.42,0,6.64,0,1.12,0,1.36-.24,1.35-1.38,0-2.16-.02-4.32-.03-6.47,0-.27-.01-.55,.12-.79,.41,.15,.85,.16,1.28,.16,1.89,0,3.77,.07,5.65-.1,.49-.05,.94,.07,1.4,.21,.09,.08,.18,.15,.27,.23h0c.12,.38,.34,.74,.33,1.15-.03,1.26,.18,2.51,.12,3.77-.04,.78,0,1.56,0,2.33,0,.38,.11,.7,.54,.8h0c.11,.19,.29,.07,.44,.09h3.72c.59-.02,1.18,.11,1.76-.08h1.16c.05,.1,.14,.09,.23,.09h4.16c.09,0,.18,0,.23-.09,1.26,.05,2.53-.04,3.79,.1,.5,.26,.67,.67,.66,1.24-.03,1.73-.02,3.47,0,5.2,0,.55-.02,1.09-.22,1.61-.29,.24-.63,.36-.98,.46-.21-.19-.47-.14-.72-.14h-13.82c-.83,0-1.24-.42-1.24-1.25,0-1.92,0-3.84-.02-5.76,0-.9-.23-1.15-1.12-1.28-.2-.03-.4-.05-.6-.05-1.5,.06-3,.13-4.5,.19-.44,0-.86-.02-1.3-.08-.76-.1-1.2,.25-1.34,1-.13,.67,.04,1.34,.04,2,0,2.43,.02,4.85,.03,7.28h0Z"/><path class="cls-14" d="M47.28,108.95c1.5-.06,3-.13,4.5-.19,.2,0,.4,.02,.6,.05,.89,.13,1.11,.38,1.12,1.28,.01,1.92,.01,3.84,.02,5.76,0,.83,.41,1.25,1.24,1.25h13.82c.25,0,.51-.05,.72,.14,.02,.22,.15,.31,.35,.3,.5-.02,.93,.14,1.33,.44,.09,.11,.19,.22,.28,.34h0c.35,.99,.16,2.05,.31,3.08,.1,.73-.04,1.49,.25,2.2,.1,.25,.05,.48-.01,.71h0c-.05,.07-.11,.15-.17,.22-.23,.05-.4,.2-.64,.26-.49,.14-.77-.06-.98-.45-.16-.3-.29-.62-.44-.96-.97,1.27-2.34,1.56-3.8,1.71-1.27,.13-2.56,.04-3.81,.4-.55,.16-1.03,.4-1.49,.71-.18,.18-.15,.42-.1,.62,.16,.68,.27,1.35,.1,2.04-.2,.35-.5,.55-.87,.7-.21,.09-.45,.1-.46,.44,0,.34,.07,.61,.36,.78,.34,.2,.7,.38,1.03,.6,.45,.29,.43,.38-.05,.63-.2,.1-.4,.13-.63,.13-4.17,0-8.34,0-12.52-.01-.55,0-1.09-.1-1.67-.02-.41,.06-.56,.55-.99,.46v-1.64s.05-.09,.06-.13v-2.57c0-.26,.1-.53-.08-.77,0-.43-.07-.85,.08-1.29,.14-.39,.39-.54,.75-.57,.59-.05,1.19-.09,1.78-.13,.76-.04,1.53,.14,2.28-.09,.22,0,.44,0,.66-.02,.54-.04,1.09,.14,1.63-.09,.38,0,.76-.01,1.14,.01,.39,.03,.51-.14,.51-.5,.02-1.68,.1-3.36,.05-5.03-.02-.88-.02-1.77-.09-2.64,0-.05-.03-.08-.08-.04-.08,0-.16,0-.24,0-.18-.12-.35-.12-.53,0h-5.35c-.17-.12-.35-.12-.53,0-.44,0-.87,0-1.31,0-.06-1.64,.09-3.29-.1-4.94-.05-.46-.05-.95,.04-1.4,.2-1.04,.99-1.48,1.9-1.79h0Z"/><path class="cls-15" d="M146.18,108.31c-.02,.1-.05,.21-.07,.31-5.31,0-10.62,0-15.93,0-.24,0-.47-.01-.7-.02,.03-1.35,.07-2.7,.1-4.06,.02-1.14-.1-2.27-.37-3.38-.16-.65-.05-.83,.57-1.05,.12,.02,.24,.03,.34-.05,2.5-.02,5-.03,7.49-.05,.05,.03,.09,.08,.14,.08,2.39,0,4.79,.05,7.18,0,.94-.02,1.41-.74,1.22-1.65-.27-1.32-.4-2.64-.36-3.99,.03-1.05,.07-2.1,.1-3.15h0c.22-.04,.43-.07,.65-.11,2.28,.02,4.55-.27,6.83-.23,.33,0,.69-.07,.89-.41,.05-.54,.17-1.06,.13-1.61-.09-1.27-.2-2.54,0-3.82,.01-.08-.1-.36,.19-.15,.12,2.89,.26,5.78,.35,8.68,.06,2.17,.21,4.34-.3,6.49-.35,.17-.7,0-1.05,0-.45,0-.88,.07-1.29,.29-.25,0-.5-.01-.74-.02-.79-.11-1.59-.04-2.38-.04-.7-.04-1.4-.09-2.11-.11-.68-.03-.94,.21-.94,.88,0,1.44,0,2.89,0,4.33,0,.25-.01,.51-.02,.76-.49,.71-.13,1.4,.07,2.09h.01Z"/><path class="cls-12" d="M81.06,83.46c-5.56,0-11.11,0-16.67-.01-.3,0-.61-.03-.86-.25-.53-1.44-.66-2.93-.54-4.43,.08-1.05,.09-2.09,.09-3.14,0-.3,.13-.47,.4-.56,.25-.09,.5-.1,.75-.1h15.63c.93,0,1.2,.27,1.2,1.19v6.96c0,.11,0,.23,0,.34h0Z"/><path class="cls-5" d="M129.47,108.59c.24,0,.47,.02,.7,.02,5.31,0,10.62,0,15.93,0v4.9c0,.42,.02,.83,.08,1.24,.16,1.14-.32,1.69-1.47,1.69h-6.26c-2.08,0-4.1,0-6.15,0-1.07,0-2.13,.12-3.18,.35,0-.15-.02-.29-.02-.43,0-2.15,0-4.31,0-6.45,0-.4-.02-.78-.53-.86,0-.14-.02-.28-.03-.43,.3-.01,.61-.02,.91-.04h0Z"/><path class="cls-12" d="M109.72,91.72c-2.58,.05-5.17,.1-7.76,.14-.79,.01-1.07-.27-1.07-1.08,0-1.92-.02-3.84,0-5.76,0-.52-.17-1.04-.06-1.56,2.33,0,4.65-.01,6.97,0,.48,0,.94-.16,1.45-.04,.53,.13,.71,.41,.69,.87-.05,1.03-.17,2.05-.2,3.08-.04,1.45,0,2.9,0,4.36h0Z"/><path class="cls-3" d="M145.89,91.3c-.04,1.05-.07,2.1-.1,3.15-.04,1.34,.09,2.67,.36,3.99,.19,.92-.28,1.64-1.22,1.65-2.39,.04-4.79,0-7.18,0-.05,0-.09-.05-.14-.08,0-1.47,0-2.94,0-4.41,0-.96-.09-1.91-.3-2.85-.18-.84,.16-1.27,1.02-1.35,2.52-.23,5.04-.04,7.55-.1h0Z"/><path class="cls-15" d="M128.56,108.63c0,.14,.02,.28,.03,.43-.03,.43-.09,.87-.09,1.3,0,1.7-.13,3.4-.08,5.11,.03,1.14-.22,1.38-1.26,1.46-1.19-.22-2.36-.22-3.58,.01-1.32,.25-2.71,.25-4.04-.16,0-2.15-.02-4.31,0-6.46,0-.84,.4-1.32,1.17-1.35,2.62-.13,5.24-.22,7.86-.33h0Z"/><path class="cls-3" d="M154.58,84.96c-.28-.21-.17,.07-.19,.15-.2,1.27-.09,2.54,0,3.82,.04,.55-.09,1.07-.13,1.61-2.14,0-4.28-.02-6.42,0-.5,0-1.09-.01-1.3,.64-.22,.04-.43,.07-.65,.11,.01-2.83-.18-5.66-.1-8.48,1.59,0,3.19,0,4.79-.01h4.14c.05,.11,.11,.22,.16,.34-.3,.58-.46,1.18-.3,1.84h0Z"/><path class="cls-13" d="M81.06,83.46c0-.11,0-.23,0-.34,2.76,0,5.52,.1,8.28-.02,3.1-.13,6.2-.01,9.3-.08,.37,0,.72,.05,1.05,.22-.13,.2-.38,.03-.53,.17-1.72,.01-3.44,.04-5.16,.04-4.32,0-8.63,0-12.94,.01h0Z"/><path class="cls-13" d="M86.5,124.84c-1.01,.15-2.03,.05-3.04,.09-1.34,.04-2.68,0-4.02,.01,1.74-.54,3.52-.48,5.31-.33,.59,.05,1.19,.03,1.75,.23Z"/><path class="cls-1" d="M82.37,116.35h16.53c.15,0,.33-.06,.46,.09-5.55,0-11.1,0-16.65,.01-.12,0-.26,.05-.34-.1h0Z"/><path class="cls-1" d="M70.28,116.78c.2-.52,.23-1.06,.22-1.61-.01-1.73-.02-3.47,0-5.2,0-.56-.17-.97-.66-1.24,.6,.04,.84,.19,.86,1.16,.04,1.64,.04,3.29-.1,4.93-.04,.47,.19,.95,0,1.43-.08,.2-.1,.42-.33,.52h0Z"/><path class="cls-1" d="M54.36,108.62c-.43-.1-.54-.42-.54-.8,0-.78-.03-1.56,0-2.33,.06-1.26-.15-2.52-.12-3.77,0-.4-.2-.77-.33-1.15,.46,0,.39,.42,.43,.66,.1,.73,.15,1.47,.13,2.21-.01,.57-.06,1.15,.1,1.73,.1,.4-.1,.78-.1,1.18,0,.79-.06,1.59,.43,2.29h0Z"/><path class="cls-1" d="M71.8,124.3c.07-.24,.12-.45,.01-.71-.29-.7-.14-1.47-.25-2.2-.15-1.03,.03-2.08-.31-3.08,.37,.06,.34,.4,.32,.61-.1,1.26,.33,2.49,.24,3.75-.03,.43,.26,.82,.2,1.26-.02,.15,.11,.4-.22,.37h0Z"/><path class="cls-1" d="M110.6,100.54c.16-.17,.38-.09,.56-.09,2.65,0,5.31,0,7.96,0-.1,.14-.26,.11-.4,.11-2.71,0-5.42,0-8.13-.01h0Z"/><path class="cls-1" d="M63.41,100.45c2.48,0,4.95,0,7.43,0,.18,0,.41-.1,.53,.15-.81-.1-1.62-.04-2.43-.04-1.66,0-3.32,0-4.98,0-.18,0-.4,.1-.55-.1h0Z"/><path class="cls-1" d="M74.43,108.38c.09-.12,.22-.1,.35-.1h5.67c.14,0,.3-.05,.39,.11-2.14,0-4.27,0-6.41-.01h0Z"/><path class="cls-1" d="M54.26,91.52h5.42c.15,0,.33-.06,.45,.09-1.84,0-3.69,0-5.54,.01-.12,0-.26,.05-.34-.1Z"/><path class="cls-1" d="M66.04,108.63c-.05,.1-.14,.09-.23,.09h-4.16c-.09,0-.18,0-.23-.09h4.62Z"/><path class="cls-8" d="M109.75,105.89v-3.47c.19,.49,.08,1,.08,1.49,0,.66,.11,1.33-.08,1.98Z"/><path class="cls-1" d="M102,108.6c.45-.2,.91-.07,1.37-.09,.59-.02,1.19,0,1.78,0-.25,.21-.55,.1-.82,.1-.78,.01-1.55,0-2.33,0h0Z"/><path class="cls-1" d="M60.48,128.86c.16-.69,.05-1.37-.1-2.04-.05-.2-.08-.44,.1-.62,.07,.68,.15,1.36,.21,2.04,.02,.23,0,.46-.21,.61h0Z"/><path class="cls-1" d="M105.7,108.49c.48-.21,.99-.06,1.48-.09,.52-.03,1.04,0,1.56,0-.29,.22-.62,.09-.93,.1-.7,.02-1.41,0-2.11,0h0Z"/><path class="cls-1" d="M60.27,108.63c-.58,.19-1.17,.06-1.76,.08,.58-.19,1.17-.06,1.76-.08Z"/><path class="cls-9" d="M99.17,83.41c.15-.14,.4,.02,.53-.17h.11c-.13,.35-.41,.16-.64,.17Z"/><path class="cls-1" d="M54.8,108.71c-.15-.01-.32,.1-.44-.09,.16-.05,.31-.05,.44,.09Z"/><path class="cls-1" d="M71.26,118.32c-.09-.11-.19-.22-.28-.34,.23,0,.35,.09,.28,.34Z"/><path class="cls-3" d="M130.11,100.06c-.1,.09-.22,.07-.34,.05,.1-.1,.22-.1,.34-.05Z"/><path class="cls-1" d="M53.38,100.57c-.09-.08-.18-.15-.27-.23,.13,.03,.33-.02,.27,.23Z"/><path class="cls-1" d="M71.63,124.52c.05-.08,.11-.15,.17-.23,.07,.17-.06,.19-.17,.23Z"/><path class="cls-8" d="M109.73,106.88s0-.07,0-.11c0,.03,.02,.05,.03,.08,0,0-.02,.02-.04,.03h0Z"/><path class="cls-3" d="M18.18,128.77v-1.41c.41,1.63,.25,3.26,.14,4.9-.04,.03-.07,.06-.11,.09,0-1.19-.02-2.38-.02-3.58h0Z"/><path class="cls-3" d="M44.24,59.01c.19,.21,.14,.48,.15,.71,.06,1.04,.1,2.08,.14,3.12,0,.23,.05,.47-.1,.68-.16,0-.41,.24-.41-.16,0-1.45-.31-2.92,.22-4.35h0Z"/><path class="cls-3" d="M231.64,132.14c0-2.12,0-4.24,0-6.35,0-.21-.11-.51,.3-.5,0,.36-.01,.73-.02,1.09-.12,1.01-.05,2.03-.03,3.04,0,.98-.02,1.95-.03,2.93-.07-.07-.14-.14-.21-.21h0Z"/><path class="cls-12" d="M231.88,129.42c-.02-1.01-.09-2.03,.03-3.04,.04,1.01,.1,2.03-.03,3.04Z"/><path class="cls-5" d="M154.58,84.96c-.16-.65,0-1.25,.3-1.84,.61,.34,1.25,.4,1.92,.24,.38,0,.76,0,1.14-.01,1.84,0,3.68-.02,5.53-.03,1.94,.04,3.88,.07,5.82,.14,.74,.02,1.49-.09,2.22,.08,.37,.56,.2,1.17,.17,1.76-.08,1.76-.22,3.52,.3,5.25,.03,.06,.06,.13,.09,.19,0,3.13,0,6.25,.02,9.38-.05,2.58-.1,5.15-.15,7.73-.07,.06-.09,.12-.04,.2-.02,.07-.05,.15-.07,.22-.29,0-.57,.02-.85,.03-2.16,0-4.32,0-6.48-.01-1.04,0-1.14-.19-1.09-1.23,.07-1.29,.03-2.58,.04-3.86,0-.64,.02-1.27,0-1.9,0-.63-.31-.97-.92-.96-2.32,.03-4.64-.09-6.96,.1-.37,.03-.68-.05-.94-.31,.51-2.14,.36-4.32,.3-6.49-.08-2.89-.23-5.78-.35-8.68h-.02Z"/><path class="cls-15" d="M172.06,90.75c-.03-.06-.06-.13-.09-.19,.02-.21,.06-.43,.06-.64,.02-1.67,.03-3.33,.04-5,0-.4-.03-.79-.22-1.16-.08-.15-.12-.32-.35-.21-.73-.17-1.48-.06-2.22-.08-1.94-.06-3.88-.09-5.82-.14-.03-.11-.06-.22-.09-.32,.03-1.92,.05-3.84,.09-5.76,.02-.87,.05-1.74,.08-2.6,2.78,0,5.55,0,8.32-.02,.38,0,.5,.1,.49,.49-.05,2.21,.09,4.42-.08,6.63-.06,.82,.16,1.04,.98,1.08,2.46,.12,4.92,.24,7.38,.35,.22,.11,.21,.31,.21,.51,0,2.49,0,4.99,.01,7.49-.63-.2-1.28-.26-1.92-.28-2.29-.06-4.59-.1-6.89-.14h0Z"/><path class="cls-15" d="M145.77,57.75c0-2.48,0-4.97,0-7.46,0-.7,.11-.8,.83-.81,1.54-.02,3.08,0,4.62-.1,.75-.05,1.5,.14,2.27,.07,1-.08,1.25-.3,1.23-1.29-.04-1.99-.08-3.99-.12-5.98,.05-.06,.09-.12,.13-.18,2.46-.06,4.93-.02,7.39-.16,.05,0,.1,.02,.16,.03,1.4,.17,1.71,.64,1.39,2-.18,.76-.3,1.52-.14,2.31,.23,1.13,.1,2.28,.22,3.41-.03,.04-.07,.08-.1,.12-.07,0-.14,0-.2,0-2.63,0-5.25,0-7.88-.02-.49,0-.63,.25-.64,.67-.03,1.07-.09,2.13-.09,3.2,0,1.47-.17,2.93-.1,4.39-.49,.5-1.08,.29-1.64,.22-1.14-.28-2.29-.3-3.45-.26-1.16,.04-2.32,.03-3.48,.05-.17,0-.32-.04-.41-.21h0Z"/><path class="cls-7" d="M180.64,83.16c-2.46-.12-4.92-.24-7.38-.35-.81-.04-1.04-.26-.98-1.08,.17-2.21,.04-4.42,.08-6.63,0-.39-.11-.49-.49-.49-2.78,.02-5.55,.02-8.32,.02-.12-.29-.05-.47,.22-.67,1.23-.94,1.65-2.24,1.44-3.74-.13-.92,.05-1.27,.97-1.45,.12-.03,.25-.03,.38-.05,.38-.08,.59-.19,.18-.56-.52-.47-.46-1.15-.55-1.76-.03-.22,0-.43-.23-.56,1.99-.05,3.99-.09,5.98-.14,.02,.34,.14,.62,.46,.78-.02,.43-.03,.86-.05,1.29-.06,0-.14-.26-.18,0-.21,1.19-.3,2.39-.2,3.59,.06,.7,.1,1.43,.42,2.08,.04,.23,.11,.46,.1,.69-.01,.35,.16,.49,.46,.53,.45,.18,.94,.21,1.42,.25,1.41,.12,2.83,.15,4.22-.25,.76,0,1.53-.02,2.29-.03,0,2.17,.01,4.34,0,6.52,0,1.03,.51,1.37,1.59,1.26,.15-.01,.29-.04,.43-.04,1.69,0,3.37,0,5.05,0,.35,0,.74-.04,.89,.41-2.73,.07-5.47-.14-8.19,.38h0Z"/><path class="cls-15" d="M91.65,41.07c-.05-.5-.09-1.01-.14-1.51,.18-.53,.07-1.07,.09-1.61,.04-1.54-.04-3.07-.21-4.59,.15-.37,.49-.3,.78-.33h7.86c.17,.07,.38-.04,.53,.11,0,2.14,0,4.28,0,6.42,0,1.09-.31,1.41-1.42,1.43-2.47,.04-4.93,.08-7.39,.12-.03-.02-.06-.04-.09-.04h0Z"/><path class="cls-5" d="M154.75,57.95c-.07-1.47,.11-2.93,.1-4.39,0-1.07,.06-2.13,.09-3.2,0-.43,.15-.68,.64-.67,2.63,.02,5.25,.02,7.88,.02,.17,.72,0,1.43,0,2.15-.01,2.04-.02,4.07-.03,6.11h0c-2.89-.01-5.79-.02-8.68-.03h0Z"/><path class="cls-5" d="M171.93,65.69c-1.99,.05-3.99,.09-5.98,.14-1.65-.21-2.47-1.19-2.48-2.98-.01-1.63-.01-3.26-.02-4.88h0c2.83,0,5.66,0,8.5,0h0c0,2.58,0,5.14,0,7.71h0Z"/><path class="cls-3" d="M144.05,66.48c-1.79,0-3.57,.01-5.36,0-2.79-.03-5.58-.07-8.37-.12-.15,0-.33,.07-.45-.1,.88-.31,1.78-.25,2.68-.15,.28,.03,.57-.06,.86-.06,2.79,0,5.59,0,8.38,0,.45,0,.89,.05,1.34,0,.39-.05,.71,.08,.92,.44h0Z"/><path class="cls-7" d="M109.92,36.18c.16,.18,.13,.4,.13,.62v5.97c0,.5-.27,.98-.02,1.48-.46,.03-.65-.19-.65-.65,0-2.26,0-4.51,0-6.77,0-.38,.1-.64,.53-.65h0Z"/><path class="cls-3" d="M112.65,53.91c-1.14,.01-2.28,.03-3.41,.05-2.11,.04-4.22,.08-6.34,.11-.23,0-.47-.02-.7-.03-.08-.44,.11-.55,.54-.55,2.68,.02,5.36,0,8.04,.02,.5,0,1,.13,1.51,.1,.2-.01,.35,.06,.37,.3h0Z"/><path class="cls-3" d="M100.13,54.05c-3.96,.18-7.91,.11-11.87,.1,.18-.28,.46-.32,.76-.32h10.47c.24,0,.47,.03,.64,.22Z"/><path class="cls-3" d="M100.79,33.03c0-2.48-.02-4.95-.02-7.42,0-.29,.06-.58,.47-.55,0,2.1-.02,4.21-.01,6.31,0,.38,.11,.74,.11,1.13,0,.4-.15,.58-.55,.53Z"/><path class="cls-2" d="M91.65,41.07s.07,.02,.09,.04c0,2.16,0,4.32,0,6.49,0,.32-.11,.48-.44,.46,.24-1.33-.08-2.65-.02-3.98,.05-.92,.04-1.83,.23-2.73,.02-.11,.03-.21,.13-.28h0Z"/><path class="cls-3" d="M163.38,83c.03,.11,.06,.22,.09,.32-1.84,0-3.68,.02-5.53,.03-.38,0-.76,0-1.14,.01h-1.08c.42-.28,.89-.33,1.35-.34,.81-.02,1.62,.05,2.42,.08,1.29,.04,2.59-.06,3.89-.1h0Z"/><path class="cls-8" d="M87.62,32.72c-.1,.03-.2,.08-.3,.08-2.74,0-5.47,0-8.21,0,.09-.09,.19-.09,.3-.09,2.74,0,5.48,0,8.21,.01h0Z"/><path class="cls-1" d="M63.19,30.02c-.23-1.69,.1-3.39-.3-5.1,.25,.15,.29,.39,.29,.56,.02,1.51,0,3.03,0,4.54Z"/><path class="cls-1" d="M54.27,24.96c0-1.41-.02-2.83-.03-4.24,.06-.19-.04-.4,.12-.65v4.77s-.05,.08-.09,.12h0Z"/><path class="cls-1" d="M62.86,35.63c-.21-.55-.05-1.12-.09-1.68-.02-.37,0-.75,0-1.12,.22,.36,.08,.76,.1,1.14,.03,.55,0,1.11,0,1.67h0Z"/><path class="cls-1" d="M62.97,38.35c-.22-.64-.04-1.3-.09-1.95,.23,.64,.06,1.3,.09,1.95Z"/><path class="cls-8" d="M55.58,32.82c-.63,.16-1.25,.14-1.88,0,.63,0,1.25,0,1.88,0Z"/><path class="cls-1" d="M53.61,53.29c.05-.54-.12-1.09,.09-1.63-.04,.54,.14,1.09-.09,1.63Z"/><path class="cls-8" d="M90.77,28.01c.15,.33,.15,.67,0,1v-1Z"/><path class="cls-8" d="M71.89,33.46c0,.19,0,.37,0,.55-.14-.18-.13-.37,0-.55Z"/><path class="cls-1" d="M62.59,24.7s.06-.04,.09-.04c.02,0,.05,.05,.05,.07,0,.05-.03,.06-.07,.03-.02-.02-.04-.05-.06-.07h0Z"/><path class="cls-8" d="M81.5,47.95s.07,.07,.11,.1c-.04-.04-.07-.07-.11-.1Z"/><path class="cls-8" d="M71.9,36.62s0,.08,0,.12c-.01-.03-.03-.05-.04-.08,0,0,.02-.02,.03-.04h0Z"/><path class="cls-7" d="M90.74,26.06s.02,.07,0,.1c-.01-.02-.03-.05-.04-.07,0,0,.02-.02,.03-.03Z"/><path class="cls-8" d="M90.76,27.14s.03,.05,.04,.08c0,0-.02,.02-.03,.04v-.12h0Z"/><path class="cls-15" d="M164.21,124.82c-.94-.55-1.07-1.51-1.08-2.44-.02-1.97,.05-3.95,.09-5.92,.22-.04,.44-.07,.65-.1,.87,.01,1.74,.02,2.6,.04,.04,.01,.08,.03,.12,.05,.92,0,1.84,.11,2.76-.06,.29,.02,.56-.08,.84-.15,.45-.13,.83-.34,1.1-.74,.65-.69,.69-1.54,.65-2.42,0-.25,0-.5,0-.76,.01,0,.04-.02,.04-.03,0-.03,0-.06,0-.09,0-.15,.02-.29,.03-.44,.1-.54,.05-1.08,.03-1.62,.02-.47,.03-.94,.05-1.4,.33,0,.65,0,.98,0,1.77-.05,3.55,.13,5.3-.23,2.31-.47,2.98-2.36,2.63-4.47,.12-.18,.11-.37,.1-.57,0-2.21-.02-4.42-.03-6.64,0-.21-.03-.43-.05-.65,.02-.03,.02-.06-.02-.09,0-.88,.02-1.77,0-2.65,0-.28,.22-.54,.08-.79-.24-.44-.18-.9-.19-1.36,2.83-.22,5.66-.37,8.5-.35,.79,.6,1.59,.23,2.39,0,1.92,.02,3.85,.05,5.76-.12,.15,.05,.35-.05,.46,.13,0,2.48,0,4.95-.02,7.43,0,1.15-.24,1.98-2.03,1.74-.59-.08-1.19,0-1.79,0-.94,0-1.88,0-2.83,0-.05,0-.11-.01-.16-.02-1.68-.08-2.07,.1-1.87,2.26,0,.09,.03,.18,.03,.27-.03,1.67,.08,3.35-.07,5.02-.06,.69-.67,1.17-1.34,1.04-.84-.16-1.68-.1-2.52,0-.66,.08-1.33,.04-1.99,.1-.6,.06-1.21,.15-1.83,.15-.54,0-.78,.33-.81,1-.02,.43,.06,.86,.06,1.29-.02,1.92-.05,3.84-.07,5.76-.18,0-.36,0-.54,.01-.45-.28-.92-.29-1.41-.1-.33,0-.65,0-.99,0-1.58-.01-3.15-.02-4.73-.03-.18,0-.36,.02-.51,.14-.1,.03-.2,.06-.13,.2h0c-.38,.22-.29,.62-.3,.94-.04,.77,.12,1.54,.11,2.31-.02,1.35-.21,2.7-.11,4.05-.82,.25-1.68,.27-2.53,.35-.03,0-.06,0-.09,0-1.78,.11-3.56-.05-5.34-.05h0Z"/><path class="cls-10" d="M200.7,83.79h20.56c.39,0,.78,.05,1.14,.24,0,.07,0,.15-.02,.22-.51,1.46-.34,2.98-.29,4.47,.02,.64,0,1.26-.05,1.88-.03,.5-.27,.88-.86,.95-.36,.05-.71,.09-1.08,.09-3.72,.05-7.43-.18-11.15-.11-.38,0-.76,0-1.14,0-.35,0-.69,.01-1.02,.1-.24-.41-.71-.36-1.08-.5-1.03-.4-1.72-1.09-2.1-2.12-.2-.55-.05-.94,.41-1.26,.78-.55,.94-1.33,.47-2.18-.44-.79-.25-1.12,.67-1.12,1.43,0,2.87,.03,4.3-.01,.72-.02,1.45-.11,2.22-.1-.1-.25-.24-.21-.35-.21-2.97,0-5.95-.01-8.92,0-.52,0-1.04,.17-1.52-.14-.07-.05-.12-.13-.18-.19h0Z"/><path class="cls-10" d="M171.93,65.69c0-2.57,0-5.14,0-7.71,1.07,0,2.14,0,3.21-.01,1.46,0,2.93,0,4.39-.1,.89-.06,1.35,.44,1.35,1.32v6.85c-1.37,.03-2.74-.02-4.12,.06-.83,.05-1.69-.07-2.54-.07-.42,0-.81,.1-1.25,.28,.46,.1,.87-.04,1.25,.1-.6,.15-1.22-.08-1.82,.07-.32-.16-.44-.44-.46-.78h0Z"/><path class="cls-3" d="M189.38,90.96c-2.84-.03-5.67,.12-8.5,.35,0-.05,0-.1-.01-.15,0-2.49-.01-4.99-.01-7.49,0-.2,0-.4-.21-.51,2.71-.51,5.46-.31,8.19-.38,.63,.13,.58,.7,.63,1.11,.07,.6,.1,1.22-.06,1.83-.1,.4,.07,.78,.09,1.18,.05,1.35-.08,2.7-.1,4.05h0Z"/><path class="cls-10" d="M163.65,49.71s.07-.08,.1-.12c2.49-.32,4.99-.2,7.49-.22,.86,0,.99,.16,1.03,1,.06,1.26,.16,2.53,.17,3.78,0,1.17,0,2.38-.5,3.49-2.18,0-4.35,0-6.52,0-1.1,0-1.54-.44-1.54-1.49v-4.78c0-.56-.11-1.11-.22-1.66Z"/><path class="cls-5" d="M172.39,66.47c.6-.15,1.22,.07,1.82-.07,1.64,.03,3.28,.05,4.92,.08,.42,.16,.86,.05,1.29,.07,.3,0,.46,.06,.46,.42-.01,2.55,0,5.11,0,7.65-.76,0-1.53,.02-2.29,.03h-5.63c-.3-.05-.47-.19-.46-.53,0-.23-.06-.45-.1-.69,0-1.67,0-3.34-.02-5.01,0-.04,0-.07,0-.1,0-.19,0-.37,0-.55,.02-.43,.03-.86,.05-1.29h0Z"/><path class="cls-3" d="M206.8,91.61c.34-.08,.68-.1,1.02-.1,.38,0,.76,0,1.14,0,3.72-.07,7.43,.16,11.15,.11,.36,0,.72-.05,1.08-.09,.59-.07,.83-.45,.86-.95,.04-.62,.07-1.24,.05-1.88-.06-1.49-.22-3.01,.29-4.47,.02-.07,.01-.15,.02-.22h.16c.29,1.81,.12,3.62,.04,5.42-.03,.61-.06,1.23-.08,1.84-.01,.53-.32,.66-.79,.66-5.39,0-10.78,0-16.17,.01-.05,0-.11,.01-.16,.02,0-.2,.01-.36,.28-.36,.38,0,.75,0,1.13-.01h0Z"/><path class="cls-3" d="M163.65,49.71c.11,.55,.22,1.09,.22,1.66,0,1.59,0,3.19,0,4.78,0,1.06,.44,1.49,1.54,1.49,2.18,0,4.35,0,6.52,0v.34c-2.83,0-5.66,0-8.5,0,0-2.04,.01-4.07,.03-6.11,0-.72,.16-1.43,0-2.15,.07,0,.14,0,.2,0h0Z"/><path class="cls-3" d="M179.13,66.48c-1.64-.03-3.28-.05-4.92-.08-.39-.13-.79,0-1.25-.1,.45-.18,.84-.28,1.25-.28,.85,0,1.71,.12,2.54,.07,1.38-.08,2.75-.03,4.12-.06,.05,.32-.08,.44-.41,.43-.44-.02-.89,0-1.33,.01h0Z"/><path class="cls-6" d="M162.12,41.84c-2.46,.15-4.92,.1-7.39,.16-.04-.25,.05-.37,.32-.37,1.67,0,3.33-.22,5-.09,.69,.05,1.4,.07,2.07,.3h0Z"/><path class="cls-7" d="M197.53,90.84c-1.92,.17-3.84,.14-5.76,.12-.03-.1-.38-.29,0-.3,1.91-.05,3.83-.4,5.73,.14,.01,0,.03,.02,.04,.04h0Z"/><path class="cls-1" d="M154.28,42.4v4.24s-.09-.08-.09-.11c0-1.34,0-2.67,0-4.01,0-.04,.06-.08,.09-.11h0Z"/><path class="cls-1" d="M197.88,58.85c.17,.65,.16,1.29,0,1.94v-1.94Z"/><path class="cls-1" d="M154.3,26.5c.15,.57,.15,1.14,0,1.72v-1.72Z"/><path class="cls-15" d="M198.19,124.85c-.16,.18-.38,.1-.56,.1-1.81,0-3.62,0-5.44,.02-.69,0-1.38,.04-2.06,.15-.41,.06-.45-.07-.45-.41,0-2.1,0-4.2,0-6.3,0-.21,.05-.44-.07-.64,0-.18-.02-.36-.03-.55,.02-1.26,.04-2.53,.05-3.78,.13-.29,.05-.59,.05-.89,0-.94,.02-1.88,.03-2.82,0-.82,.17-.99,.97-.99,1.54,0,3.08,0,4.61,0,.61,0,1.22-.07,1.84-.09,.53-.01,.96,.15,1.08,.74-.02,.13-.02,.25,.07,.35v1.02c-.03,.12-.08,.24-.08,.36,0,1.45,0,2.9,.01,4.35,0,2.58-.01,5.16-.02,7.74,0,.55-.28,1.09,0,1.63h0Z"/><path class="cls-5" d="M189.58,117.22c0,.18,.02,.36,.03,.55-.38,1.99-.1,4-.13,6-.01,1.11-.3,1.41-1.42,1.42-1.09,0-2.18-.02-3.27,0-.87,.01-1.74,.1-2.6,.11-.91,.01-1.37-.4-1.32-1.33,.1-1.65,.11-3.29,.1-4.94,0-.67-.09-1.33-.18-1.99,1.84,.13,3.68,.07,5.53,.1,1.09,.02,2.17,.06,3.25,.09h0Z"/><path class="cls-1" d="M222.48,107.18c-.14-.11-.09-.26-.09-.4v-4.48c.15,.08,.1,.22,.1,.34,0,1.51,0,3.03,0,4.54h0Z"/><path class="cls-4" d="M198.21,115.47c0-1.45-.01-2.9-.01-4.35,0-.12,.05-.24,.08-.36,0,1.49,.01,2.98,.02,4.47,0,.08-.05,.16-.09,.25h0Z"/><path class="cls-4" d="M191.33,100.14c.94,0,1.88,0,2.83,0-.94,.14-1.88,.15-2.83,0Z"/><path class="cls-3" d="M189.68,112.54c0,.3,.08,.6-.05,.89-.03-.3-.11-.6,.05-.89Z"/><path class="cls-4" d="M198.28,109.74c-.08-.11-.09-.23-.07-.35,.11,.1,.09,.23,.07,.35Z"/><path class="cls-8" d="M212.03,100.7s.08,.05,.11,.07c-.04-.02-.08-.05-.11-.07Z"/><path class="cls-2" d="M127.16,116.91c1.04-.07,1.29-.32,1.26-1.46-.05-1.7,.07-3.4,.08-5.11,0-.43,.06-.87,.09-1.3,.5,.08,.53,.45,.53,.86v6.45c0,.15,.01,.29,.02,.43-.01,.1-.03,.2-.04,.3-.5,0-1.01,.01-1.52,.01-.17,0-.38,.06-.43-.2h0Z"/><path class="cls-7" d="M146.13,105.46c0-1.44-.02-2.89,0-4.33,0-.67,.26-.9,.94-.88,.7,.03,1.4,.07,2.11,.11,.79,.17,1.59,.1,2.38,.04,.25,0,.5,.01,.74,.02-.41,.34-.89,.47-1.41,.46-.65,0-1.29,.05-1.94-.09-.48-.1-.97,0-1.44,.13-.55,.15-.93,.79-.94,1.56-.01,.67,.01,1.34,0,2.01,0,.37,0,.77-.41,.98h0Z"/><path class="cls-7" d="M146.18,108.31c-.2-.69-.56-1.38-.07-2.09,.5,.09,.93,.33,1.15,.8,.32,.7-.12,1.22-1.08,1.29Z"/><path class="cls-7" d="M170.19,116.23c-.28,.07-.55,.17-.84,.15-.92,0-1.84-.01-2.76-.02l-.12,.03c-.87-.01-1.74-.02-2.6-.04,.02-.4,.16-.57,.62-.48,1.54,.31,3.1,.09,4.65,.15,.36,.01,.72,.02,1.04,.2h0Z"/><path class="cls-7" d="M171.99,111.76c0,.15-.02,.29-.03,.44h-.04c-.51-.9-.36-1.9-.28-2.85,.06-.65-.02-.98-.69-1.04,.29,0,.57-.02,.85-.03,.19,.1,.05,.38,.25,.46-.02,.47-.03,.94-.05,1.4-.15,.54-.1,1.08-.03,1.62h0Z"/><path class="cls-7" d="M171.94,113.08c.04,.88-.01,1.73-.65,2.42,.1-.55-.04-1.1,0-1.65,.03-.41,.16-.74,.66-.76h0Z"/><path class="cls-1" d="M113.39,125.29h2.24v.06h-2.24v-.06Z"/><path class="cls-4" d="M171.93,112.21h.04s0,.05,0,.08c0,0-.02,.02-.04,.03,0-.04,0-.07,0-.11h0Z"/><path class="cls-7" d="M172.58,117.02c.15-.12,.33-.14,.51-.14,1.58,0,3.15,.02,4.73,.03,.09,.13,.4,.09,.29,.37-.1,.26-.25,.48-.58,.49-.74,.03-1.48,.09-2.22,.1-.42,0-.83,.08-1.24,.16-.85,.17-1.23,.77-1.28,1.83-.06,1.23-.07,2.45,0,3.67,.02,.39-.09,.75-.44,.99,0-2.08,0-4.16,0-6.25,0-.36,0-.72,.1-1.06h0c.14,0,.13-.09,.13-.19h0Z"/><path class="cls-1" d="M172.47,117.2c-.1,.35-.1,.7-.1,1.06,0,2.08,0,4.16,0,6.25h-.2c-.1-1.35,.1-2.7,.11-4.05,0-.78-.14-1.54-.11-2.31,.01-.32-.07-.72,.3-.95h0Z"/><path class="cls-7" d="M178.81,116.92c.49-.19,.96-.18,1.41,.1,.02,.49-.2,.74-.69,.75s-.68-.21-.72-.84h0Z"/><path class="cls-3" d="M169.55,124.87s.06-.02,.09,0c-.03,.05-.05,.05-.09,0Z"/><path class="cls-2" d="M91.39,33.36c.17,1.53,.25,3.06,.21,4.59-.01,.54,.1,1.08-.09,1.61-.36-.14-.53-.41-.53-.8,0-1.89,.01-3.77,.02-5.66,0-.03,.03-.06,.06-.13,.2,.05,.19,.29,.33,.38h0Z"/><path class="cls-2" d="M100.03,33.03h-7.86c.35-.24,.77-.15,1.15-.19,2.19-.24,4.39-.18,6.58,.1,.05,0,.09,.06,.13,.09h0Z"/><path class="cls-7" d="M47.28,108.95c-.91,.3-1.71,.75-1.9,1.79-.09,.45-.1,.94-.04,1.4,.19,1.64,.04,3.29,.1,4.94-.59-.07-.7,.24-.68,.76,.02,.44,.1,.89-.05,1.32-.01-2.43-.04-4.85-.03-7.28,0-.67-.17-1.33-.04-2,.14-.75,.58-1.11,1.34-1,.44,.06,.86,.07,1.3,.08h0Z"/><path class="cls-1" d="M49.57,125.39c-.75,.23-1.52,.06-2.28,.09,.75-.2,1.52-.04,2.28-.09Z"/><path class="cls-1" d="M51.86,125.28c-.53,.24-1.09,.06-1.63,.09,.53-.2,1.09-.04,1.63-.09Z"/><path class="cls-7" d="M44.69,127.47c.18,.24,.07,.51,.08,.77-.15-.25-.06-.51-.08-.77Z"/><path class="cls-7" d="M46.75,117.09c.18-.12,.35-.12,.53,0h-.53Z"/><path class="cls-7" d="M52.63,117.09c.18-.12,.35-.12,.53,0h-.53Z"/><path class="cls-7" d="M44.76,130.81s-.05,.09-.06,.13c.02-.04,.05-.09,.06-.13Z"/><path class="cls-7" d="M53.4,117.08s.07-.01,.08,.04c-.03,0-.06-.02-.08-.04Z"/><path class="cls-7" d="M53.9,40.75c-.15-.75-.12-1.51-.01-2.27,0,.75,0,1.51,.01,2.27Z"/><path class="cls-12" d="M53.48,9.95c.04,.35,.11,.69,.12,1.04,0,.3-.12,.57-.34,.79-.13-.64-.25-1.27,.22-1.83Z"/><path class="cls-4" d="M146.54,91.19c.21-.65,.8-.63,1.3-.64,2.14-.03,4.28,0,6.42,0-.2,.35-.56,.42-.89,.41-2.28-.03-4.55,.25-6.83,.23h0Z"/><path class="cls-13" d="M151.55,100.39c-.79,.06-1.59,.14-2.38-.04,.79,0,1.59-.07,2.38,.04Z"/><path class="cls-12" d="M180.86,91.16s0,.1,.01,.15c0,.46-.05,.92,.19,1.36,.14,.25-.09,.51-.08,.79,.03,.88,0,1.76,0,2.65,0,.03,0,.06,.02,.09,.02,.21,.05,.43,.05,.65,.01,2.21,.02,4.42,.03,6.64,0,.2,.01,.4-.1,.57-.44,.61-.06,1.36-.35,2.15-.16-.6-.08-1.07-.09-1.53-.02-.96,0-1.91-.11-2.87-.13-1.05-.9-1.66-2.22-1.67-2.05,0-4.1,0-6.15,0,0-3.13,0-6.25-.02-9.38,2.29,.04,4.59,.07,6.89,.14,.65,.02,1.3,.08,1.92,.28h0Z"/><path class="cls-10" d="M172.07,100.12c2.05,0,4.1,0,6.15,0,1.32,0,2.09,.62,2.22,1.67,.12,.95,.09,1.91,.11,2.87,0,.46-.07,.92,.09,1.53,.28-.79-.09-1.54,.35-2.15,.34,2.11-.32,4-2.63,4.47-1.75,.36-3.53,.18-5.3,.23-.33,0-.65,0-.98,0-.21-.09-.07-.37-.25-.46,.02-.07,.05-.15,.07-.22,.01-.07,.03-.14,.04-.2,.05-2.58,.1-5.15,.15-7.73h0Z"/><path class="cls-2" d="M171.5,83.55c.23-.11,.27,.06,.35,.21,.19,.36,.23,.75,.22,1.16-.01,1.67-.02,3.33-.04,5,0,.21-.04,.43-.06,.64-.51-1.73-.37-3.49-.3-5.25,.03-.6,.2-1.2-.17-1.76h0Z"/><path class="cls-7" d="M171.93,107.85c-.01,.07-.03,.14-.04,.2-.05-.08-.03-.15,.04-.2Z"/><path class="cls-13" d="M172.36,68.42c0,1.67,0,3.34,.02,5.01-.32-.65-.36-1.38-.42-2.08-.1-1.2,0-2.4,.2-3.59,.05-.26,.12,0,.18,0,0,.19,0,.37,0,.55,0,0-.03,.02-.03,.03,0,.02,.02,.05,.04,.07h0Z"/><path class="cls-3" d="M172.93,74.65h5.63c-1.39,.4-2.8,.37-4.22,.25-.47-.04-.96-.07-1.42-.25h0Z"/><path class="cls-4" d="M166.59,116.36c.92,0,1.84,.01,2.76,.02-.92,.17-1.84,.06-2.76,.06v-.08h0Z"/><path class="cls-4" d="M171.99,111.76c-.07-.54-.12-1.08,.03-1.62,.02,.54,.07,1.08-.03,1.62Z"/><path class="cls-1" d="M172.58,117.02c0,.09,0,.19-.13,.2-.07-.14,.03-.17,.13-.2Z"/><path class="cls-3" d="M181.01,96.18s-.03-.05-.02-.09c.04,.02,.04,.05,.02,.09Z"/><path class="cls-3" d="M166.59,116.36v.08s-.08-.03-.12-.05c.04,0,.08-.02,.12-.03h0Z"/><path class="cls-7" d="M172.36,68.42s-.03-.05-.04-.07c0,0,.02-.02,.03-.03,.01,.03,.02,.06,0,.1Z"/></g></g></g></svg>